<svg width="45" height="46" viewBox="0 0 45 46" fill="none" xmlns="http://www.w3.org/2000/svg">
<path d="M22.5 45.5C34.9264 45.5 45 35.4264 45 23C45 10.5736 34.9264 0.5 22.5 0.5C10.0736 0.5 0 10.5736 0 23C0 35.4264 10.0736 45.5 22.5 45.5Z" fill="#E40421"/>
<path d="M22.5001 40.353C32.0884 40.353 39.8614 32.5801 39.8614 22.9917C39.8614 13.4033 32.0884 5.6304 22.5001 5.6304C12.9117 5.6304 5.13874 13.4033 5.13874 22.9917C5.13874 32.5801 12.9117 40.353 22.5001 40.353Z" fill="white"/>
<path d="M28.8544 16.3375C25.9527 16.3375 23.4888 18.2016 22.5891 20.8034C21.6732 18.2341 19.2254 16.3942 16.34 16.3942C12.6764 16.3942 9.70994 19.3607 9.70994 23.0242C9.70994 26.6878 12.6764 29.6543 16.34 29.6543C19.2416 29.6543 21.7056 27.7901 22.6053 25.1883C23.5212 27.7577 25.9689 29.5975 28.8544 29.5975C32.5179 29.5975 35.4844 26.631 35.4844 22.9675C35.4844 19.3039 32.5179 16.3375 28.8544 16.3375ZM18.2366 24.8317C17.7017 25.4801 16.883 25.8935 15.9752 25.8935C14.3542 25.8935 13.0412 24.5804 13.0412 22.9594C13.0412 21.3384 14.3542 20.0253 15.9752 20.0253C16.7777 20.0253 17.5071 20.3495 18.0421 20.8764L20.3034 22.9351L18.2366 24.8317ZM29.0894 25.934C28.1817 25.934 27.3711 25.5206 26.8281 24.8722L24.7613 22.9675L27.0226 20.9088C27.5495 20.3819 28.2789 20.0577 29.0894 20.0577C30.7105 20.0577 32.0235 21.3708 32.0235 22.9918C32.0235 24.6128 30.7105 25.934 29.0894 25.934Z" fill="#0F0F0F"/>
</svg>
