<svg width="145" height="45" viewBox="0 0 145 45" fill="none" xmlns="http://www.w3.org/2000/svg">
<path d="M23 45C35.4264 45 45.5 34.9264 45.5 22.5C45.5 10.0736 35.4264 0 23 0C10.5736 0 0.5 10.0736 0.5 22.5C0.5 34.9264 10.5736 45 23 45Z" fill="#E40421"/>
<path d="M23 39.8535C32.5884 39.8535 40.3613 32.0806 40.3613 22.4922C40.3613 12.9038 32.5884 5.13086 23 5.13086C13.4116 5.13086 5.63867 12.9038 5.63867 22.4922C5.63867 32.0806 13.4116 39.8535 23 39.8535Z" fill="white"/>
<path d="M29.3544 15.8379C26.4528 15.8379 23.9888 17.7021 23.0891 20.3038C22.1732 17.7345 19.7255 15.8946 16.84 15.8946C13.1765 15.8946 10.21 18.8611 10.21 22.5247C10.21 26.1882 13.1765 29.1547 16.84 29.1547C19.7417 29.1547 22.2056 27.2905 23.1053 24.6888C24.0212 27.2581 26.469 29.098 29.3544 29.098C33.018 29.098 35.9845 26.1315 35.9845 22.4679C35.9845 18.8044 33.018 15.8379 29.3544 15.8379ZM18.7366 24.3321C18.2017 24.9805 17.3831 25.3939 16.4753 25.3939C14.8542 25.3939 13.5412 24.0809 13.5412 22.4598C13.5412 20.8388 14.8542 19.5258 16.4753 19.5258C17.2777 19.5258 18.0072 19.85 18.5421 20.3768L20.8034 22.4355L18.7366 24.3321ZM29.5895 25.4344C28.6817 25.4344 27.8712 25.0211 27.3281 24.3727L25.2613 22.4679L27.5226 20.4092C28.0495 19.8824 28.7789 19.5582 29.5895 19.5582C31.2105 19.5582 32.5235 20.8712 32.5235 22.4922C32.5235 24.1133 31.2105 25.4344 29.5895 25.4344Z" fill="black"/>
<path d="M59.962 7.44V19.5H57.658V7.44H59.962ZM53.806 8.466V6.342H63.814V8.466H53.806ZM70.2089 10.608H72.4049V19.5H70.3709L70.2089 18.312C69.9449 18.732 69.5489 19.074 69.0209 19.338C68.4929 19.602 67.9289 19.734 67.3289 19.734C66.3089 19.734 65.5109 19.41 64.9349 18.762C64.3589 18.114 64.0709 17.25 64.0709 16.17V10.608H66.2669V15.396C66.2669 16.236 66.4289 16.842 66.7529 17.214C67.0769 17.586 67.5449 17.772 68.1569 17.772C68.8529 17.772 69.3689 17.568 69.7049 17.16C70.0409 16.74 70.2089 16.11 70.2089 15.27V10.608ZM76.8691 19.5H74.6731V10.608H76.7071L76.8871 11.76C77.1631 11.316 77.5531 10.968 78.0571 10.716C78.5731 10.464 79.1311 10.338 79.7311 10.338C80.8471 10.338 81.6871 10.668 82.2511 11.328C82.8271 11.988 83.1151 12.888 83.1151 14.028V19.5H80.9191V14.55C80.9191 13.806 80.7511 13.254 80.4151 12.894C80.0791 12.522 79.6231 12.336 79.0471 12.336C78.3631 12.336 77.8291 12.552 77.4451 12.984C77.0611 13.416 76.8691 13.992 76.8691 14.712V19.5ZM85.2727 19.5V10.608H87.4687V19.5H85.2727ZM86.3527 8.826C85.9807 8.826 85.6627 8.7 85.3987 8.448C85.1467 8.184 85.0207 7.866 85.0207 7.494C85.0207 7.122 85.1467 6.81 85.3987 6.558C85.6627 6.306 85.9807 6.18 86.3527 6.18C86.7247 6.18 87.0367 6.306 87.2887 6.558C87.5527 6.81 87.6847 7.122 87.6847 7.494C87.6847 7.866 87.5527 8.184 87.2887 8.448C87.0367 8.7 86.7247 8.826 86.3527 8.826ZM91.9335 19.5H89.7375V10.608H91.7715L91.9515 11.76C92.2275 11.316 92.6175 10.968 93.1215 10.716C93.6375 10.464 94.1955 10.338 94.7955 10.338C95.9115 10.338 96.7515 10.668 97.3155 11.328C97.8915 11.988 98.1795 12.888 98.1795 14.028V19.5H95.9835V14.55C95.9835 13.806 95.8155 13.254 95.4795 12.894C95.1435 12.522 94.6875 12.336 94.1115 12.336C93.4275 12.336 92.8935 12.552 92.5095 12.984C92.1255 13.416 91.9335 13.992 91.9335 14.712V19.5ZM99.8331 14.856C99.8331 13.992 100.007 13.224 100.355 12.552C100.715 11.868 101.213 11.328 101.849 10.932C102.485 10.536 103.223 10.338 104.063 10.338C104.819 10.338 105.467 10.506 106.007 10.842C106.547 11.166 106.925 11.622 107.141 12.21L106.907 12.408L107.087 10.608H109.121V19.05C109.121 20.034 108.929 20.886 108.545 21.606C108.173 22.338 107.639 22.896 106.943 23.28C106.259 23.676 105.431 23.874 104.459 23.874C103.187 23.874 102.143 23.532 101.327 22.848C100.511 22.164 100.031 21.228 99.8871 20.04H102.083C102.155 20.616 102.395 21.066 102.803 21.39C103.223 21.714 103.775 21.876 104.459 21.876C105.215 21.876 105.815 21.654 106.259 21.21C106.715 20.778 106.943 20.19 106.943 19.446V17.232L107.195 17.466C106.979 18.03 106.583 18.48 106.007 18.816C105.431 19.152 104.765 19.32 104.009 19.32C103.169 19.32 102.437 19.128 101.813 18.744C101.189 18.36 100.703 17.832 100.355 17.16C100.007 16.488 99.8331 15.72 99.8331 14.856ZM102.047 14.802C102.047 15.306 102.143 15.756 102.335 16.152C102.539 16.536 102.821 16.842 103.181 17.07C103.541 17.298 103.961 17.412 104.441 17.412C104.945 17.412 105.377 17.304 105.737 17.088C106.109 16.86 106.391 16.554 106.583 16.17C106.787 15.774 106.889 15.318 106.889 14.802C106.889 14.286 106.793 13.842 106.601 13.47C106.409 13.086 106.127 12.786 105.755 12.57C105.395 12.354 104.957 12.246 104.441 12.246C103.949 12.246 103.523 12.36 103.163 12.588C102.803 12.804 102.527 13.104 102.335 13.488C102.143 13.872 102.047 14.31 102.047 14.802ZM118.873 6.342V19.5H116.569V6.342H118.873ZM124.705 8.466H116.749V6.342H124.705V8.466ZM123.769 14.118H116.713V12.048H123.769V14.118ZM126.458 19.5V10.608H128.654V19.5H126.458ZM127.538 8.826C127.166 8.826 126.848 8.7 126.584 8.448C126.332 8.184 126.206 7.866 126.206 7.494C126.206 7.122 126.332 6.81 126.584 6.558C126.848 6.306 127.166 6.18 127.538 6.18C127.91 6.18 128.222 6.306 128.474 6.558C128.738 6.81 128.87 7.122 128.87 7.494C128.87 7.866 128.738 8.184 128.474 8.448C128.222 8.7 127.91 8.826 127.538 8.826ZM133.137 19.5H130.959V6.108H133.137V19.5ZM139.419 19.734C138.543 19.734 137.763 19.536 137.079 19.14C136.407 18.732 135.879 18.18 135.495 17.484C135.111 16.776 134.919 15.966 134.919 15.054C134.919 14.13 135.105 13.314 135.477 12.606C135.849 11.898 136.371 11.346 137.043 10.95C137.715 10.542 138.483 10.338 139.347 10.338C140.247 10.338 141.021 10.53 141.669 10.914C142.317 11.286 142.815 11.808 143.163 12.48C143.523 13.152 143.703 13.956 143.703 14.892V15.558L136.071 15.576L136.107 14.172H141.525C141.525 13.56 141.327 13.068 140.931 12.696C140.547 12.324 140.025 12.138 139.365 12.138C138.849 12.138 138.411 12.246 138.051 12.462C137.703 12.678 137.439 13.002 137.259 13.434C137.079 13.866 136.989 14.394 136.989 15.018C136.989 15.978 137.193 16.704 137.601 17.196C138.021 17.688 138.639 17.934 139.455 17.934C140.055 17.934 140.547 17.82 140.931 17.592C141.327 17.364 141.585 17.04 141.705 16.62H143.739C143.547 17.592 143.067 18.354 142.299 18.906C141.543 19.458 140.583 19.734 139.419 19.734ZM54.202 30.014C54.202 29.246 54.4 28.568 54.796 27.98C55.192 27.392 55.738 26.936 56.434 26.612C57.142 26.276 57.958 26.108 58.882 26.108C59.77 26.108 60.538 26.264 61.186 26.576C61.846 26.888 62.356 27.332 62.716 27.908C63.088 28.484 63.286 29.168 63.31 29.96H61.006C60.982 29.396 60.778 28.958 60.394 28.646C60.01 28.322 59.494 28.16 58.846 28.16C58.138 28.16 57.568 28.322 57.136 28.646C56.716 28.958 56.506 29.39 56.506 29.942C56.506 30.41 56.632 30.782 56.884 31.058C57.148 31.322 57.556 31.52 58.108 31.652L60.178 32.12C61.306 32.36 62.146 32.774 62.698 33.362C63.25 33.938 63.526 34.718 63.526 35.702C63.526 36.506 63.328 37.214 62.932 37.826C62.536 38.438 61.972 38.912 61.24 39.248C60.52 39.572 59.674 39.734 58.702 39.734C57.778 39.734 56.968 39.578 56.272 39.266C55.576 38.942 55.03 38.492 54.634 37.916C54.25 37.34 54.046 36.662 54.022 35.882H56.326C56.338 36.434 56.554 36.872 56.974 37.196C57.406 37.508 57.988 37.664 58.72 37.664C59.488 37.664 60.094 37.508 60.538 37.196C60.994 36.872 61.222 36.446 61.222 35.918C61.222 35.462 61.102 35.102 60.862 34.838C60.622 34.562 60.232 34.37 59.692 34.262L57.604 33.794C56.488 33.554 55.642 33.122 55.066 32.498C54.49 31.862 54.202 31.034 54.202 30.014ZM69.2643 39.734C68.3883 39.734 67.6083 39.536 66.9243 39.14C66.2523 38.732 65.7243 38.18 65.3403 37.484C64.9563 36.776 64.7643 35.966 64.7643 35.054C64.7643 34.13 64.9503 33.314 65.3223 32.606C65.6943 31.898 66.2163 31.346 66.8883 30.95C67.5603 30.542 68.3283 30.338 69.1923 30.338C70.0923 30.338 70.8663 30.53 71.5143 30.914C72.1623 31.286 72.6603 31.808 73.0083 32.48C73.3683 33.152 73.5483 33.956 73.5483 34.892V35.558L65.9163 35.576L65.9523 34.172H71.3703C71.3703 33.56 71.1723 33.068 70.7763 32.696C70.3923 32.324 69.8703 32.138 69.2103 32.138C68.6943 32.138 68.2563 32.246 67.8963 32.462C67.5483 32.678 67.2843 33.002 67.1043 33.434C66.9243 33.866 66.8343 34.394 66.8343 35.018C66.8343 35.978 67.0383 36.704 67.4463 37.196C67.8663 37.688 68.4843 37.934 69.3003 37.934C69.9003 37.934 70.3923 37.82 70.7763 37.592C71.1723 37.364 71.4303 37.04 71.5503 36.62H73.5843C73.3923 37.592 72.9123 38.354 72.1443 38.906C71.3883 39.458 70.4283 39.734 69.2643 39.734ZM80.8859 30.572V32.606H80.0759C79.2719 32.606 78.6419 32.822 78.1859 33.254C77.7299 33.674 77.5019 34.316 77.5019 35.18V39.5H75.3059V30.626H77.3759L77.5559 32.462H77.3399C77.4599 31.874 77.7419 31.394 78.1859 31.022C78.6299 30.65 79.2059 30.464 79.9139 30.464C80.0699 30.464 80.2259 30.47 80.3819 30.482C80.5379 30.494 80.7059 30.524 80.8859 30.572ZM85.156 39.5L81.628 30.608H83.968L85.516 34.694C85.708 35.222 85.87 35.708 86.002 36.152C86.146 36.584 86.248 36.92 86.308 37.16C86.368 36.884 86.47 36.53 86.614 36.098C86.77 35.654 86.944 35.186 87.136 34.694L88.756 30.608H91.024L87.316 39.5H85.156ZM92.2863 39.5V30.608H94.4823V39.5H92.2863ZM93.3663 28.826C92.9943 28.826 92.6763 28.7 92.4123 28.448C92.1603 28.184 92.0343 27.866 92.0343 27.494C92.0343 27.122 92.1603 26.81 92.4123 26.558C92.6763 26.306 92.9943 26.18 93.3663 26.18C93.7383 26.18 94.0503 26.306 94.3023 26.558C94.5663 26.81 94.6983 27.122 94.6983 27.494C94.6983 27.866 94.5663 28.184 94.3023 28.448C94.0503 28.7 93.7383 28.826 93.3663 28.826ZM96.2292 35.036C96.2292 34.124 96.4152 33.314 96.7872 32.606C97.1712 31.898 97.6932 31.346 98.3532 30.95C99.0252 30.542 99.7992 30.338 100.675 30.338C101.887 30.338 102.877 30.656 103.645 31.292C104.425 31.916 104.875 32.762 104.995 33.83H102.799C102.667 33.326 102.421 32.948 102.061 32.696C101.713 32.432 101.275 32.3 100.747 32.3C100.291 32.3 99.8832 32.414 99.5232 32.642C99.1752 32.858 98.9052 33.17 98.7132 33.578C98.5212 33.986 98.4252 34.472 98.4252 35.036C98.4252 35.6 98.5152 36.086 98.6952 36.494C98.8752 36.902 99.1332 37.22 99.4692 37.448C99.8172 37.664 100.225 37.772 100.693 37.772C101.245 37.772 101.701 37.64 102.061 37.376C102.433 37.112 102.679 36.734 102.799 36.242H105.013C104.917 36.938 104.671 37.55 104.275 38.078C103.891 38.594 103.393 39.002 102.781 39.302C102.169 39.59 101.473 39.734 100.693 39.734C99.7932 39.734 99.0072 39.542 98.3352 39.158C97.6632 38.762 97.1412 38.216 96.7692 37.52C96.4092 36.812 96.2292 35.984 96.2292 35.036ZM110.626 39.734C109.75 39.734 108.97 39.536 108.286 39.14C107.614 38.732 107.086 38.18 106.702 37.484C106.318 36.776 106.126 35.966 106.126 35.054C106.126 34.13 106.312 33.314 106.684 32.606C107.056 31.898 107.578 31.346 108.25 30.95C108.922 30.542 109.69 30.338 110.554 30.338C111.454 30.338 112.228 30.53 112.876 30.914C113.524 31.286 114.022 31.808 114.37 32.48C114.73 33.152 114.91 33.956 114.91 34.892V35.558L107.278 35.576L107.314 34.172H112.732C112.732 33.56 112.534 33.068 112.138 32.696C111.754 32.324 111.232 32.138 110.572 32.138C110.056 32.138 109.618 32.246 109.258 32.462C108.91 32.678 108.646 33.002 108.466 33.434C108.286 33.866 108.196 34.394 108.196 35.018C108.196 35.978 108.4 36.704 108.808 37.196C109.228 37.688 109.846 37.934 110.662 37.934C111.262 37.934 111.754 37.82 112.138 37.592C112.534 37.364 112.792 37.04 112.912 36.62H114.946C114.754 37.592 114.274 38.354 113.506 38.906C112.75 39.458 111.79 39.734 110.626 39.734ZM115.983 36.8H118.071C118.083 37.184 118.227 37.49 118.503 37.718C118.779 37.946 119.163 38.06 119.655 38.06C120.183 38.06 120.579 37.964 120.843 37.772C121.119 37.58 121.257 37.322 121.257 36.998C121.257 36.782 121.185 36.59 121.041 36.422C120.897 36.254 120.627 36.128 120.231 36.044L118.629 35.666C117.825 35.486 117.225 35.198 116.829 34.802C116.445 34.394 116.253 33.836 116.253 33.128C116.253 32.552 116.403 32.054 116.703 31.634C117.015 31.214 117.435 30.896 117.963 30.68C118.491 30.452 119.097 30.338 119.781 30.338C120.441 30.338 121.023 30.458 121.527 30.698C122.031 30.938 122.421 31.274 122.697 31.706C122.985 32.138 123.135 32.642 123.147 33.218H121.059C121.059 32.834 120.939 32.534 120.699 32.318C120.459 32.09 120.123 31.976 119.691 31.976C119.259 31.976 118.923 32.072 118.683 32.264C118.443 32.456 118.323 32.714 118.323 33.038C118.323 33.53 118.707 33.866 119.475 34.046L121.077 34.424C121.821 34.592 122.379 34.862 122.751 35.234C123.135 35.606 123.327 36.134 123.327 36.818C123.327 37.418 123.171 37.94 122.859 38.384C122.547 38.816 122.109 39.152 121.545 39.392C120.981 39.62 120.333 39.734 119.601 39.734C118.497 39.734 117.615 39.464 116.955 38.924C116.307 38.384 115.983 37.676 115.983 36.8Z" fill="black"/>
</svg>
