<svg width="144" height="46" viewBox="0 0 144 46" fill="none" xmlns="http://www.w3.org/2000/svg">
<path d="M22.5 45.5C34.9264 45.5 45 35.4264 45 23C45 10.5736 34.9264 0.5 22.5 0.5C10.0736 0.5 0 10.5736 0 23C0 35.4264 10.0736 45.5 22.5 45.5Z" fill="#E40421"/>
<path d="M22.5 40.3535C32.0884 40.3535 39.8613 32.5806 39.8613 22.9922C39.8613 13.4038 32.0884 5.63086 22.5 5.63086C12.9116 5.63086 5.13867 13.4038 5.13867 22.9922C5.13867 32.5806 12.9116 40.3535 22.5 40.3535Z" fill="white"/>
<path d="M28.8544 16.3379C25.9528 16.3379 23.4888 18.2021 22.5891 20.8038C21.6732 18.2345 19.2255 16.3946 16.34 16.3946C12.6765 16.3946 9.70996 19.3611 9.70996 23.0247C9.70996 26.6882 12.6765 29.6547 16.34 29.6547C19.2417 29.6547 21.7056 27.7905 22.6053 25.1888C23.5212 27.7581 25.969 29.598 28.8544 29.598C32.518 29.598 35.4845 26.6315 35.4845 22.9679C35.4845 19.3044 32.518 16.3379 28.8544 16.3379ZM18.2366 24.8321C17.7017 25.4805 16.8831 25.8939 15.9753 25.8939C14.3542 25.8939 13.0412 24.5809 13.0412 22.9598C13.0412 21.3388 14.3542 20.0258 15.9753 20.0258C16.7777 20.0258 17.5072 20.35 18.0421 20.8768L20.3034 22.9355L18.2366 24.8321ZM29.0895 25.9344C28.1817 25.9344 27.3712 25.5211 26.8281 24.8727L24.7613 22.9679L27.0226 20.9092C27.5495 20.3824 28.2789 20.0582 29.0895 20.0582C30.7105 20.0582 32.0235 21.3712 32.0235 22.9922C32.0235 24.6133 30.7105 25.9344 29.0895 25.9344Z" fill="#0F0F0F"/>
<path d="M59.462 7.94V20H57.158V7.94H59.462ZM53.306 8.966V6.842H63.314V8.966H53.306ZM69.7089 11.108H71.9049V20H69.8709L69.7089 18.812C69.4449 19.232 69.0489 19.574 68.5209 19.838C67.9929 20.102 67.4289 20.234 66.8289 20.234C65.8089 20.234 65.0109 19.91 64.4349 19.262C63.8589 18.614 63.5709 17.75 63.5709 16.67V11.108H65.7669V15.896C65.7669 16.736 65.9289 17.342 66.2529 17.714C66.5769 18.086 67.0449 18.272 67.6569 18.272C68.3529 18.272 68.8689 18.068 69.2049 17.66C69.5409 17.24 69.7089 16.61 69.7089 15.77V11.108ZM76.3691 20H74.1731V11.108H76.2071L76.3871 12.26C76.6631 11.816 77.0531 11.468 77.5571 11.216C78.0731 10.964 78.6311 10.838 79.2311 10.838C80.3471 10.838 81.1871 11.168 81.7511 11.828C82.3271 12.488 82.6151 13.388 82.6151 14.528V20H80.4191V15.05C80.4191 14.306 80.2511 13.754 79.9151 13.394C79.5791 13.022 79.1231 12.836 78.5471 12.836C77.8631 12.836 77.3291 13.052 76.9451 13.484C76.5611 13.916 76.3691 14.492 76.3691 15.212V20ZM84.7727 20V11.108H86.9687V20H84.7727ZM85.8527 9.326C85.4807 9.326 85.1627 9.2 84.8987 8.948C84.6467 8.684 84.5207 8.366 84.5207 7.994C84.5207 7.622 84.6467 7.31 84.8987 7.058C85.1627 6.806 85.4807 6.68 85.8527 6.68C86.2247 6.68 86.5367 6.806 86.7887 7.058C87.0527 7.31 87.1847 7.622 87.1847 7.994C87.1847 8.366 87.0527 8.684 86.7887 8.948C86.5367 9.2 86.2247 9.326 85.8527 9.326ZM91.4335 20H89.2375V11.108H91.2715L91.4515 12.26C91.7275 11.816 92.1175 11.468 92.6215 11.216C93.1375 10.964 93.6955 10.838 94.2955 10.838C95.4115 10.838 96.2515 11.168 96.8155 11.828C97.3915 12.488 97.6795 13.388 97.6795 14.528V20H95.4835V15.05C95.4835 14.306 95.3155 13.754 94.9795 13.394C94.6435 13.022 94.1875 12.836 93.6115 12.836C92.9275 12.836 92.3935 13.052 92.0095 13.484C91.6255 13.916 91.4335 14.492 91.4335 15.212V20ZM99.3331 15.356C99.3331 14.492 99.5071 13.724 99.8551 13.052C100.215 12.368 100.713 11.828 101.349 11.432C101.985 11.036 102.723 10.838 103.563 10.838C104.319 10.838 104.967 11.006 105.507 11.342C106.047 11.666 106.425 12.122 106.641 12.71L106.407 12.908L106.587 11.108H108.621V19.55C108.621 20.534 108.429 21.386 108.045 22.106C107.673 22.838 107.139 23.396 106.443 23.78C105.759 24.176 104.931 24.374 103.959 24.374C102.687 24.374 101.643 24.032 100.827 23.348C100.011 22.664 99.5311 21.728 99.3871 20.54H101.583C101.655 21.116 101.895 21.566 102.303 21.89C102.723 22.214 103.275 22.376 103.959 22.376C104.715 22.376 105.315 22.154 105.759 21.71C106.215 21.278 106.443 20.69 106.443 19.946V17.732L106.695 17.966C106.479 18.53 106.083 18.98 105.507 19.316C104.931 19.652 104.265 19.82 103.509 19.82C102.669 19.82 101.937 19.628 101.313 19.244C100.689 18.86 100.203 18.332 99.8551 17.66C99.5071 16.988 99.3331 16.22 99.3331 15.356ZM101.547 15.302C101.547 15.806 101.643 16.256 101.835 16.652C102.039 17.036 102.321 17.342 102.681 17.57C103.041 17.798 103.461 17.912 103.941 17.912C104.445 17.912 104.877 17.804 105.237 17.588C105.609 17.36 105.891 17.054 106.083 16.67C106.287 16.274 106.389 15.818 106.389 15.302C106.389 14.786 106.293 14.342 106.101 13.97C105.909 13.586 105.627 13.286 105.255 13.07C104.895 12.854 104.457 12.746 103.941 12.746C103.449 12.746 103.023 12.86 102.663 13.088C102.303 13.304 102.027 13.604 101.835 13.988C101.643 14.372 101.547 14.81 101.547 15.302ZM118.373 6.842V20H116.069V6.842H118.373ZM124.205 8.966H116.249V6.842H124.205V8.966ZM123.269 14.618H116.213V12.548H123.269V14.618ZM125.958 20V11.108H128.154V20H125.958ZM127.038 9.326C126.666 9.326 126.348 9.2 126.084 8.948C125.832 8.684 125.706 8.366 125.706 7.994C125.706 7.622 125.832 7.31 126.084 7.058C126.348 6.806 126.666 6.68 127.038 6.68C127.41 6.68 127.722 6.806 127.974 7.058C128.238 7.31 128.37 7.622 128.37 7.994C128.37 8.366 128.238 8.684 127.974 8.948C127.722 9.2 127.41 9.326 127.038 9.326ZM132.637 20H130.459V6.608H132.637V20ZM138.919 20.234C138.043 20.234 137.263 20.036 136.579 19.64C135.907 19.232 135.379 18.68 134.995 17.984C134.611 17.276 134.419 16.466 134.419 15.554C134.419 14.63 134.605 13.814 134.977 13.106C135.349 12.398 135.871 11.846 136.543 11.45C137.215 11.042 137.983 10.838 138.847 10.838C139.747 10.838 140.521 11.03 141.169 11.414C141.817 11.786 142.315 12.308 142.663 12.98C143.023 13.652 143.203 14.456 143.203 15.392V16.058L135.571 16.076L135.607 14.672H141.025C141.025 14.06 140.827 13.568 140.431 13.196C140.047 12.824 139.525 12.638 138.865 12.638C138.349 12.638 137.911 12.746 137.551 12.962C137.203 13.178 136.939 13.502 136.759 13.934C136.579 14.366 136.489 14.894 136.489 15.518C136.489 16.478 136.693 17.204 137.101 17.696C137.521 18.188 138.139 18.434 138.955 18.434C139.555 18.434 140.047 18.32 140.431 18.092C140.827 17.864 141.085 17.54 141.205 17.12H143.239C143.047 18.092 142.567 18.854 141.799 19.406C141.043 19.958 140.083 20.234 138.919 20.234ZM53.702 30.514C53.702 29.746 53.9 29.068 54.296 28.48C54.692 27.892 55.238 27.436 55.934 27.112C56.642 26.776 57.458 26.608 58.382 26.608C59.27 26.608 60.038 26.764 60.686 27.076C61.346 27.388 61.856 27.832 62.216 28.408C62.588 28.984 62.786 29.668 62.81 30.46H60.506C60.482 29.896 60.278 29.458 59.894 29.146C59.51 28.822 58.994 28.66 58.346 28.66C57.638 28.66 57.068 28.822 56.636 29.146C56.216 29.458 56.006 29.89 56.006 30.442C56.006 30.91 56.132 31.282 56.384 31.558C56.648 31.822 57.056 32.02 57.608 32.152L59.678 32.62C60.806 32.86 61.646 33.274 62.198 33.862C62.75 34.438 63.026 35.218 63.026 36.202C63.026 37.006 62.828 37.714 62.432 38.326C62.036 38.938 61.472 39.412 60.74 39.748C60.02 40.072 59.174 40.234 58.202 40.234C57.278 40.234 56.468 40.078 55.772 39.766C55.076 39.442 54.53 38.992 54.134 38.416C53.75 37.84 53.546 37.162 53.522 36.382H55.826C55.838 36.934 56.054 37.372 56.474 37.696C56.906 38.008 57.488 38.164 58.22 38.164C58.988 38.164 59.594 38.008 60.038 37.696C60.494 37.372 60.722 36.946 60.722 36.418C60.722 35.962 60.602 35.602 60.362 35.338C60.122 35.062 59.732 34.87 59.192 34.762L57.104 34.294C55.988 34.054 55.142 33.622 54.566 32.998C53.99 32.362 53.702 31.534 53.702 30.514ZM68.7643 40.234C67.8883 40.234 67.1083 40.036 66.4243 39.64C65.7523 39.232 65.2243 38.68 64.8403 37.984C64.4563 37.276 64.2643 36.466 64.2643 35.554C64.2643 34.63 64.4503 33.814 64.8223 33.106C65.1943 32.398 65.7163 31.846 66.3883 31.45C67.0603 31.042 67.8283 30.838 68.6923 30.838C69.5923 30.838 70.3663 31.03 71.0143 31.414C71.6623 31.786 72.1603 32.308 72.5083 32.98C72.8683 33.652 73.0483 34.456 73.0483 35.392V36.058L65.4163 36.076L65.4523 34.672H70.8703C70.8703 34.06 70.6723 33.568 70.2763 33.196C69.8923 32.824 69.3703 32.638 68.7103 32.638C68.1943 32.638 67.7563 32.746 67.3963 32.962C67.0483 33.178 66.7843 33.502 66.6043 33.934C66.4243 34.366 66.3343 34.894 66.3343 35.518C66.3343 36.478 66.5383 37.204 66.9463 37.696C67.3663 38.188 67.9843 38.434 68.8003 38.434C69.4003 38.434 69.8923 38.32 70.2763 38.092C70.6723 37.864 70.9303 37.54 71.0503 37.12H73.0843C72.8923 38.092 72.4123 38.854 71.6443 39.406C70.8883 39.958 69.9283 40.234 68.7643 40.234ZM80.3859 31.072V33.106H79.5759C78.7719 33.106 78.1419 33.322 77.6859 33.754C77.2299 34.174 77.0019 34.816 77.0019 35.68V40H74.8059V31.126H76.8759L77.0559 32.962H76.8399C76.9599 32.374 77.2419 31.894 77.6859 31.522C78.1299 31.15 78.7059 30.964 79.4139 30.964C79.5699 30.964 79.7259 30.97 79.8819 30.982C80.0379 30.994 80.2059 31.024 80.3859 31.072ZM84.656 40L81.128 31.108H83.468L85.016 35.194C85.208 35.722 85.37 36.208 85.502 36.652C85.646 37.084 85.748 37.42 85.808 37.66C85.868 37.384 85.97 37.03 86.114 36.598C86.27 36.154 86.444 35.686 86.636 35.194L88.256 31.108H90.524L86.816 40H84.656ZM91.7863 40V31.108H93.9823V40H91.7863ZM92.8663 29.326C92.4943 29.326 92.1763 29.2 91.9123 28.948C91.6603 28.684 91.5343 28.366 91.5343 27.994C91.5343 27.622 91.6603 27.31 91.9123 27.058C92.1763 26.806 92.4943 26.68 92.8663 26.68C93.2383 26.68 93.5503 26.806 93.8023 27.058C94.0663 27.31 94.1983 27.622 94.1983 27.994C94.1983 28.366 94.0663 28.684 93.8023 28.948C93.5503 29.2 93.2383 29.326 92.8663 29.326ZM95.7292 35.536C95.7292 34.624 95.9152 33.814 96.2872 33.106C96.6712 32.398 97.1932 31.846 97.8532 31.45C98.5252 31.042 99.2992 30.838 100.175 30.838C101.387 30.838 102.377 31.156 103.145 31.792C103.925 32.416 104.375 33.262 104.495 34.33H102.299C102.167 33.826 101.921 33.448 101.561 33.196C101.213 32.932 100.775 32.8 100.247 32.8C99.7912 32.8 99.3832 32.914 99.0232 33.142C98.6752 33.358 98.4052 33.67 98.2132 34.078C98.0212 34.486 97.9252 34.972 97.9252 35.536C97.9252 36.1 98.0152 36.586 98.1952 36.994C98.3752 37.402 98.6332 37.72 98.9692 37.948C99.3172 38.164 99.7252 38.272 100.193 38.272C100.745 38.272 101.201 38.14 101.561 37.876C101.933 37.612 102.179 37.234 102.299 36.742H104.513C104.417 37.438 104.171 38.05 103.775 38.578C103.391 39.094 102.893 39.502 102.281 39.802C101.669 40.09 100.973 40.234 100.193 40.234C99.2932 40.234 98.5072 40.042 97.8352 39.658C97.1632 39.262 96.6412 38.716 96.2692 38.02C95.9092 37.312 95.7292 36.484 95.7292 35.536ZM110.126 40.234C109.25 40.234 108.47 40.036 107.786 39.64C107.114 39.232 106.586 38.68 106.202 37.984C105.818 37.276 105.626 36.466 105.626 35.554C105.626 34.63 105.812 33.814 106.184 33.106C106.556 32.398 107.078 31.846 107.75 31.45C108.422 31.042 109.19 30.838 110.054 30.838C110.954 30.838 111.728 31.03 112.376 31.414C113.024 31.786 113.522 32.308 113.87 32.98C114.23 33.652 114.41 34.456 114.41 35.392V36.058L106.778 36.076L106.814 34.672H112.232C112.232 34.06 112.034 33.568 111.638 33.196C111.254 32.824 110.732 32.638 110.072 32.638C109.556 32.638 109.118 32.746 108.758 32.962C108.41 33.178 108.146 33.502 107.966 33.934C107.786 34.366 107.696 34.894 107.696 35.518C107.696 36.478 107.9 37.204 108.308 37.696C108.728 38.188 109.346 38.434 110.162 38.434C110.762 38.434 111.254 38.32 111.638 38.092C112.034 37.864 112.292 37.54 112.412 37.12H114.446C114.254 38.092 113.774 38.854 113.006 39.406C112.25 39.958 111.29 40.234 110.126 40.234ZM115.483 37.3H117.571C117.583 37.684 117.727 37.99 118.003 38.218C118.279 38.446 118.663 38.56 119.155 38.56C119.683 38.56 120.079 38.464 120.343 38.272C120.619 38.08 120.757 37.822 120.757 37.498C120.757 37.282 120.685 37.09 120.541 36.922C120.397 36.754 120.127 36.628 119.731 36.544L118.129 36.166C117.325 35.986 116.725 35.698 116.329 35.302C115.945 34.894 115.753 34.336 115.753 33.628C115.753 33.052 115.903 32.554 116.203 32.134C116.515 31.714 116.935 31.396 117.463 31.18C117.991 30.952 118.597 30.838 119.281 30.838C119.941 30.838 120.523 30.958 121.027 31.198C121.531 31.438 121.921 31.774 122.197 32.206C122.485 32.638 122.635 33.142 122.647 33.718H120.559C120.559 33.334 120.439 33.034 120.199 32.818C119.959 32.59 119.623 32.476 119.191 32.476C118.759 32.476 118.423 32.572 118.183 32.764C117.943 32.956 117.823 33.214 117.823 33.538C117.823 34.03 118.207 34.366 118.975 34.546L120.577 34.924C121.321 35.092 121.879 35.362 122.251 35.734C122.635 36.106 122.827 36.634 122.827 37.318C122.827 37.918 122.671 38.44 122.359 38.884C122.047 39.316 121.609 39.652 121.045 39.892C120.481 40.12 119.833 40.234 119.101 40.234C117.997 40.234 117.115 39.964 116.455 39.424C115.807 38.884 115.483 38.176 115.483 37.3Z" fill="white"/>
</svg>
