<svg width="39" height="37" viewBox="0 0 39 37" fill="none" xmlns="http://www.w3.org/2000/svg">
<rect x="0.5" y="0.5" width="38" height="36" rx="7.5" fill="white"/>
<rect x="0.5" y="0.5" width="38" height="36" rx="7.5" stroke="#434854"/>
<mask id="path-2-outside-1_2337_2260" maskUnits="userSpaceOnUse" x="11" y="11.5" width="5" height="14" fill="black">
<rect fill="white" x="11" y="11.5" width="5" height="14"/>
<path d="M12 13.5C12 12.9477 12.4477 12.5 13 12.5H14C14.5523 12.5 15 12.9477 15 13.5V23.5C15 24.0523 14.5523 24.5 14 24.5H13C12.4477 24.5 12 24.0523 12 23.5V13.5Z"/>
</mask>
<path d="M13 12.5V13.5H14V12.5V11.5H13V12.5ZM15 13.5H14V23.5H15H16V13.5H15ZM14 24.5V23.5H13V24.5V25.5H14V24.5ZM12 23.5H13V13.5H12H11V23.5H12ZM13 24.5V23.5L13 23.5H12H11C11 24.6046 11.8954 25.5 13 25.5V24.5ZM15 23.5H14L14 23.5V24.5V25.5C15.1046 25.5 16 24.6046 16 23.5H15ZM14 12.5V13.5L14 13.5H15H16C16 12.3954 15.1046 11.5 14 11.5V12.5ZM13 12.5V11.5C11.8954 11.5 11 12.3954 11 13.5H12H13L13 13.5V12.5Z" fill="#434854" mask="url(#path-2-outside-1_2337_2260)"/>
<mask id="path-4-outside-2_2337_2260" maskUnits="userSpaceOnUse" x="17" y="11.5" width="5" height="14" fill="black">
<rect fill="white" x="17" y="11.5" width="5" height="14"/>
<path d="M18 13.5C18 12.9477 18.4477 12.5 19 12.5H20C20.5523 12.5 21 12.9477 21 13.5V23.5C21 24.0523 20.5523 24.5 20 24.5H19C18.4477 24.5 18 24.0523 18 23.5V13.5Z"/>
</mask>
<path d="M19 12.5V13.5H20V12.5V11.5H19V12.5ZM21 13.5H20V23.5H21H22V13.5H21ZM20 24.5V23.5H19V24.5V25.5H20V24.5ZM18 23.5H19V13.5H18H17V23.5H18ZM19 24.5V23.5L19 23.5H18H17C17 24.6046 17.8954 25.5 19 25.5V24.5ZM21 23.5H20L20 23.5V24.5V25.5C21.1046 25.5 22 24.6046 22 23.5H21ZM20 12.5V13.5L20 13.5H21H22C22 12.3954 21.1046 11.5 20 11.5V12.5ZM19 12.5V11.5C17.8954 11.5 17 12.3954 17 13.5H18H19L19 13.5V12.5Z" fill="#434854" mask="url(#path-4-outside-2_2337_2260)"/>
<mask id="path-6-outside-3_2337_2260" maskUnits="userSpaceOnUse" x="23" y="11.5" width="5" height="14" fill="black">
<rect fill="white" x="23" y="11.5" width="5" height="14"/>
<path d="M24 13.5C24 12.9477 24.4477 12.5 25 12.5H26C26.5523 12.5 27 12.9477 27 13.5V23.5C27 24.0523 26.5523 24.5 26 24.5H25C24.4477 24.5 24 24.0523 24 23.5V13.5Z"/>
</mask>
<path d="M25 12.5V13.5H26V12.5V11.5H25V12.5ZM27 13.5H26V23.5H27H28V13.5H27ZM26 24.5V23.5H25V24.5V25.5H26V24.5ZM24 23.5H25V13.5H24H23V23.5H24ZM25 24.5V23.5L25 23.5H24H23C23 24.6046 23.8954 25.5 25 25.5V24.5ZM27 23.5H26L26 23.5V24.5V25.5C27.1046 25.5 28 24.6046 28 23.5H27ZM26 12.5V13.5L26 13.5H27H28C28 12.3954 27.1046 11.5 26 11.5V12.5ZM25 12.5V11.5C23.8954 11.5 23 12.3954 23 13.5H24H25L25 13.5V12.5Z" fill="#434854" mask="url(#path-6-outside-3_2337_2260)"/>
</svg>
