<svg width="25" height="26" viewBox="0 0 25 26" fill="none" xmlns="http://www.w3.org/2000/svg">
<path d="M12.4008 3.18248C14.9842 3.18248 17.9809 5.14585 18.2909 7.9359C18.2909 8.2459 18.2909 8.55591 18.2909 8.96925C18.2909 9.38259 18.2909 9.79593 18.2909 10.3126V10.4159V10.5193C18.4976 11.7593 19.1176 12.9993 19.9443 13.9293C20.151 14.2393 20.2543 14.6527 20.3576 15.066V15.2727C20.3576 15.8927 20.151 16.4094 19.7376 16.9261C19.2209 17.5461 18.3943 17.8561 17.5676 17.9594C15.8109 18.1661 14.0542 18.2694 12.1942 18.2694C10.3341 18.2694 8.78409 18.1661 7.0274 17.8561C6.20072 17.7527 5.47737 17.4427 4.85736 16.8227C4.54735 16.4094 4.34068 15.7894 4.34068 15.2727V15.066C4.34068 14.6527 4.44402 14.2393 4.65069 13.9293C5.47737 12.9993 6.09738 11.7593 6.30405 10.5193V10.4159V10.3126C6.30405 9.89926 6.30405 9.38259 6.30405 8.96925C6.30405 8.55591 6.30405 8.2459 6.30405 7.9359C6.71739 5.04251 9.71411 3.18248 12.4008 3.18248ZM12.4008 1.42578C8.68076 1.42578 5.06403 4.00916 4.75402 7.83256C4.65069 8.65924 4.75402 9.38259 4.65069 10.2093C4.44402 11.2426 3.92734 12.1726 3.30733 12.896C2.89399 13.516 2.68732 14.2393 2.58398 15.066V15.2727C2.58398 16.306 2.89399 17.2361 3.514 18.0627C4.34068 18.9928 5.5807 19.5094 6.82073 19.7161C8.68076 19.9228 10.5408 20.0261 12.4008 20.0261C14.2609 20.0261 16.1209 19.9228 17.9809 19.7161C19.2209 19.6128 20.3576 18.9928 21.1843 18.0627C21.9077 17.2361 22.2177 16.306 22.2177 15.2727V15.066C22.2177 14.3427 21.9077 13.6193 21.4943 12.896C20.771 12.1726 20.3576 11.2426 20.151 10.2093C20.0476 9.38259 20.151 8.65924 20.0476 7.83256C19.7376 4.00916 16.0176 1.42578 12.4008 1.42578ZM13.7442 21.1628H11.7808C11.1608 21.1628 10.6441 21.2661 10.0241 21.3695C9.50744 21.4728 8.99076 21.7828 8.99076 22.2995C9.0941 22.8162 9.30077 23.3328 9.81745 23.6428C10.5408 24.2628 11.4708 24.5729 12.4008 24.5729C12.6075 24.5729 12.7108 24.5729 12.9175 24.5729C13.9509 24.4695 14.9842 23.9528 15.6042 23.0228C15.9142 22.6095 15.9142 21.9895 15.3975 21.5761C14.8809 21.3695 14.3642 21.1628 13.7442 21.1628Z" fill="white"/>
</svg>
