<svg width="24" height="25" viewBox="0 0 24 25" fill="none" xmlns="http://www.w3.org/2000/svg">
<path d="M12 3.5C16.9706 3.5 21 7.52944 21 12.5C21 17.4706 16.9706 21.5 12 21.5C7.02944 21.5 3 17.4706 3 12.5C3 7.52944 7.02944 3.5 12 3.5ZM12.001 5.30078C8.02453 5.30078 4.80078 8.52453 4.80078 12.501C4.80093 16.4773 8.02462 19.7012 12.001 19.7012C15.9772 19.701 19.201 16.4772 19.2012 12.501C19.2012 8.52462 15.9773 5.30093 12.001 5.30078Z" fill="#D80027"/>
<path d="M12.9391 12.499L15.8031 9.8454C15.9285 9.72892 15.9989 9.57095 15.9989 9.40623C15.9989 9.24151 15.9285 9.08354 15.8031 8.96706C15.6777 8.85059 15.5076 8.78516 15.3302 8.78516C15.1528 8.78516 14.9827 8.85059 14.8573 8.96706L12 11.6268L9.14277 8.96706C9.01736 8.85059 8.84726 8.78516 8.66989 8.78516C8.49253 8.78516 8.32243 8.85059 8.19701 8.96706C8.07159 9.08354 8.00114 9.24151 8.00114 9.40623C8.00114 9.57095 8.07159 9.72892 8.19701 9.8454L11.0609 12.499L8.19701 15.1525C8.13458 15.21 8.08504 15.2784 8.05122 15.3538C8.01741 15.4292 8 15.51 8 15.5917C8 15.6733 8.01741 15.7542 8.05122 15.8295C8.08504 15.9049 8.13458 15.9733 8.19701 16.0308C8.25893 16.0888 8.33259 16.1348 8.41375 16.1662C8.49491 16.1976 8.58197 16.2138 8.66989 16.2138C8.75782 16.2138 8.84487 16.1976 8.92603 16.1662C9.00719 16.1348 9.08086 16.0888 9.14277 16.0308L12 13.3711L14.8573 16.0308C14.9192 16.0888 14.9929 16.1348 15.074 16.1662C15.1552 16.1976 15.2423 16.2138 15.3302 16.2138C15.4181 16.2138 15.5052 16.1976 15.5863 16.1662C15.6675 16.1348 15.7412 16.0888 15.8031 16.0308C15.8655 15.9733 15.915 15.9049 15.9489 15.8295C15.9827 15.7542 16.0001 15.6733 16.0001 15.5917C16.0001 15.51 15.9827 15.4292 15.9489 15.3538C15.915 15.2784 15.8655 15.21 15.8031 15.1525L12.9391 12.499Z" fill="#D80027"/>
</svg>
