<svg width="14" height="14" viewBox="0 0 14 14" fill="none" xmlns="http://www.w3.org/2000/svg">
<path d="M7.00098 1.16602C10.2225 1.16602 12.8348 3.77751 12.835 6.99902C12.835 10.2207 10.2226 12.833 7.00098 12.833C3.77947 12.8328 1.16797 10.2206 1.16797 6.99902C1.16814 3.77762 3.77957 1.16619 7.00098 1.16602ZM7.00293 2.33203C4.4256 2.33203 2.33594 4.42169 2.33594 6.99902C2.33611 9.5762 4.42571 11.665 7.00293 11.665C9.58 11.6649 11.6688 9.57609 11.6689 6.99902C11.6689 4.4218 9.58011 2.33221 7.00293 2.33203Z" fill="#D80027"/>
<path d="M7.68498 7.00069L9.77526 4.91527C9.86679 4.82373 9.91822 4.69958 9.91822 4.57013C9.91822 4.44068 9.86679 4.31653 9.77526 4.22499C9.68372 4.13346 9.55957 4.08203 9.43012 4.08203C9.30067 4.08203 9.17652 4.13346 9.08498 4.22499L6.99956 6.31527L4.91415 4.22499C4.82261 4.13346 4.69846 4.08203 4.56901 4.08203C4.43956 4.08203 4.31541 4.13346 4.22387 4.22499C4.13233 4.31653 4.08091 4.44068 4.08091 4.57013C4.08091 4.69958 4.13233 4.82373 4.22387 4.91527L6.31415 7.00069L4.22387 9.0861C4.17831 9.13129 4.14214 9.18506 4.11746 9.2443C4.09278 9.30353 4.08008 9.36707 4.08008 9.43124C4.08008 9.49542 4.09278 9.55895 4.11746 9.61819C4.14214 9.67743 4.17831 9.73119 4.22387 9.77638C4.26906 9.82194 4.32282 9.85811 4.38206 9.88279C4.4413 9.90747 4.50484 9.92017 4.56901 9.92017C4.63318 9.92017 4.69672 9.90747 4.75595 9.88279C4.81519 9.85811 4.86896 9.82194 4.91415 9.77638L6.99956 7.6861L9.08498 9.77638C9.13017 9.82194 9.18393 9.85811 9.24317 9.88279C9.30241 9.90747 9.36595 9.92017 9.43012 9.92017C9.49429 9.92017 9.55783 9.90747 9.61707 9.88279C9.6763 9.85811 9.73007 9.82194 9.77526 9.77638C9.82082 9.73119 9.85698 9.67743 9.88166 9.61819C9.90634 9.55895 9.91905 9.49542 9.91905 9.43124C9.91905 9.36707 9.90634 9.30353 9.88166 9.2443C9.85698 9.18506 9.82082 9.13129 9.77526 9.0861L7.68498 7.00069Z" fill="#D80027"/>
</svg>
