<svg width="24" height="24" viewBox="0 0 24 24" fill="none" xmlns="http://www.w3.org/2000/svg">
<path d="M13.175 12L16.7583 8.42501C16.9153 8.26809 17.0034 8.05526 17.0034 7.83334C17.0034 7.61142 16.9153 7.39859 16.7583 7.24167C16.6014 7.08475 16.3886 6.9966 16.1667 6.9966C15.9448 6.9966 15.7319 7.08475 15.575 7.24167L12 10.825L8.42501 7.24167C8.26809 7.08475 8.05526 6.9966 7.83334 6.9966C7.61143 6.9966 7.3986 7.08475 7.24168 7.24167C7.08476 7.39859 6.9966 7.61142 6.9966 7.83334C6.9966 8.05526 7.08476 8.26809 7.24168 8.42501L10.825 12L7.24168 15.575C7.16357 15.6525 7.10157 15.7446 7.05927 15.8462C7.01696 15.9477 6.99518 16.0567 6.99518 16.1667C6.99518 16.2767 7.01696 16.3856 7.05927 16.4872C7.10157 16.5887 7.16357 16.6809 7.24168 16.7583C7.31915 16.8364 7.41131 16.8984 7.51286 16.9408C7.61441 16.9831 7.72333 17.0048 7.83334 17.0048C7.94335 17.0048 8.05227 16.9831 8.15382 16.9408C8.25537 16.8984 8.34754 16.8364 8.42501 16.7583L12 13.175L15.575 16.7583C15.6525 16.8364 15.7446 16.8984 15.8462 16.9408C15.9477 16.9831 16.0567 17.0048 16.1667 17.0048C16.2767 17.0048 16.3856 16.9831 16.4872 16.9408C16.5887 16.8984 16.6809 16.8364 16.7583 16.7583C16.8364 16.6809 16.8984 16.5887 16.9408 16.4872C16.9831 16.3856 17.0048 16.2767 17.0048 16.1667C17.0048 16.0567 16.9831 15.9477 16.9408 15.8462C16.8984 15.7446 16.8364 15.6525 16.7583 15.575L13.175 12Z" fill="#D80027"/>
<path fill-rule="evenodd" clip-rule="evenodd" d="M12 22C17.5228 22 22 17.5228 22 12C22 6.47715 17.5228 2 12 2C6.47715 2 2 6.47715 2 12C2 17.5228 6.47715 22 12 22ZM12 20C16.4183 20 20 16.4183 20 12C20 7.58172 16.4183 4 12 4C7.58172 4 4 7.58172 4 12C4 16.4183 7.58172 20 12 20Z" fill="#D80027"/>
</svg>
