<svg width="37" height="36" viewBox="0 0 37 36" fill="none" xmlns="http://www.w3.org/2000/svg">
<rect x="0.5" y="0.5" width="36" height="35" rx="7.5" fill="white"/>
<rect x="0.5" y="0.5" width="36" height="35" rx="7.5" stroke="#434854"/>
<mask id="path-2-inside-1_2331_2238" fill="white">
<path d="M12 13C12 12.4477 12.4477 12 13 12H24C24.5523 12 25 12.4477 25 13V23C25 23.5523 24.5523 24 24 24H13C12.4477 24 12 23.5523 12 23V13Z"/>
</mask>
<path d="M11 12C11 10.8954 11.8954 10 13 10H24C25.1046 10 26 10.8954 26 12L24 14H13L11 12ZM26 23C26 24.1046 25.1046 25 24 25H13C11.8954 25 11 24.1046 11 23H13H24H26ZM13 25C11.8954 25 11 24.1046 11 23V12C11 10.8954 11.8954 10 13 10V14V23V25ZM24 10C25.1046 10 26 10.8954 26 12V23C26 24.1046 25.1046 25 24 25V23V14V10Z" fill="#434854" mask="url(#path-2-inside-1_2331_2238)"/>
<line x1="18.5" y1="14" x2="18.5" y2="24" stroke="#434854"/>
</svg>
