<svg width="14" height="14" viewBox="0 0 14 14" fill="none" xmlns="http://www.w3.org/2000/svg">
<g clip-path="url(#clip0_1000_14167)">
<path d="M9.88 4L6.66 7.9L4.77 6.325L4 7.6L6.94 10L11 5.05L9.88 4Z" fill="#4C8936"/>
<path d="M7 0C10.8659 4.40667e-05 14 3.13408 14 7C14 10.8659 10.8659 14 7 14C3.13408 14 4.4068e-05 10.8659 0 7C0 3.13405 3.13405 0 7 0ZM6.99902 1.40039C3.90652 1.40057 1.39959 3.9075 1.39941 7C1.39941 10.0927 3.90641 12.6004 6.99902 12.6006C10.0918 12.6006 12.5996 10.0928 12.5996 7C12.5994 3.90739 10.0917 1.40039 6.99902 1.40039Z" fill="#4C8936"/>
</g>
<defs>
<clipPath id="clip0_1000_14167">
<rect width="14" height="14" fill="white"/>
</clipPath>
</defs>
</svg>
