<svg width="82" height="82" viewBox="0 0 82 82" fill="none" xmlns="http://www.w3.org/2000/svg">
<rect width="82" height="82" rx="41" fill="#5DC07C"/>
<path d="M53.9471 27.9362C49.8704 32.1759 45.7937 36.4157 41.717 40.6963C37.9664 44.6507 34.1751 48.5643 30.3837 52.5187H34.8273C31.7698 49.7873 28.7123 47.0559 25.6548 44.3653C24.391 43.2238 22.4749 43.1015 21.2111 44.3653C20.0697 45.5068 19.9474 47.6674 21.2111 48.8089C24.2687 51.5403 27.3262 54.2717 30.3837 56.9623C31.6475 58.1038 33.6043 58.2261 34.8273 56.9623C38.904 52.7225 42.9807 48.4828 47.0575 44.2022C50.808 40.2478 54.5994 36.3342 58.3907 32.4205C59.5729 31.1975 59.6137 29.1999 58.3907 27.9769C57.1677 26.7539 55.1293 26.6724 53.9471 27.9362Z" fill="white"/>
</svg>
