<svg width="92" height="91" viewBox="0 0 92 91" fill="none" xmlns="http://www.w3.org/2000/svg">
<path d="M68.2428 79.625H23.7796C20.6223 79.625 17.5943 78.3708 15.3618 76.1382C13.1292 73.9057 11.875 70.8777 11.875 67.7204V23.2572C11.8809 20.1038 13.1378 17.0816 15.3697 14.8539C17.6016 12.6262 20.6262 11.375 23.7796 11.375H68.2428C69.8032 11.375 71.3483 11.6823 72.7899 12.2795C74.2315 12.8766 75.5414 13.7519 76.6448 14.8552C77.7481 15.9586 78.6234 17.2685 79.2205 18.7101C79.8177 20.1517 80.125 21.6968 80.125 23.2572V67.7204C80.125 70.8738 78.8738 73.8984 76.6461 76.1303C74.4184 78.3622 71.3962 79.6191 68.2428 79.625ZM23.7796 16.9693C22.952 16.9663 22.1319 17.1268 21.3664 17.4415C20.601 17.7561 19.9051 18.2188 19.3189 18.803C18.7326 19.3872 18.2674 20.0814 17.95 20.8457C17.6326 21.6101 17.4693 22.4296 17.4693 23.2572V67.7204C17.4693 69.394 18.1341 70.9991 19.3175 72.1825C20.5009 73.3659 22.106 74.0307 23.7796 74.0307H68.2428C69.0704 74.0307 69.8899 73.8674 70.6543 73.55C71.4186 73.2326 72.1128 72.7674 72.697 72.1811C73.2812 71.5949 73.7439 70.8991 74.0585 70.1336C74.3732 69.3681 74.5337 68.548 74.5307 67.7204V23.2572C74.5307 21.5895 73.8683 19.9902 72.689 18.811C71.5098 17.6317 69.9105 16.9693 68.2428 16.9693H23.7796Z" fill="black"/>
<path d="M41.5409 49.9621C40.7659 49.9593 40.0004 49.7839 39.2959 49.4476C38.3105 48.9813 37.4762 48.227 36.8944 47.2763C36.3125 46.3257 36.0081 45.2195 36.0181 44.0922V14.2983C36.0181 13.523 36.3138 12.7794 36.84 12.2312C37.3663 11.683 38.0801 11.375 38.8244 11.375C39.5687 11.375 40.2825 11.683 40.8088 12.2312C41.3351 12.7794 41.6307 13.523 41.6307 14.2983V44.0922L46.9066 39.2278C47.8981 38.3058 49.1807 37.7961 50.5099 37.7961C51.839 37.7961 53.1217 38.3058 54.1132 39.2278L59.5238 44.1155L59.3442 14.2983C59.3442 13.523 59.6398 12.7794 60.1661 12.2312C60.6924 11.683 61.4062 11.375 62.1505 11.375C62.8948 11.375 63.6086 11.683 64.1348 12.2312C64.6611 12.7794 64.9568 13.523 64.9568 14.2983V44.0922C64.9668 45.2195 64.6624 46.3257 64.0805 47.2763C63.4987 48.227 62.6644 48.9813 61.679 49.4476C60.723 49.9056 59.6595 50.0632 58.6187 49.9012C57.578 49.7392 56.6052 49.2646 55.8194 48.5355L50.4762 43.718L45.133 48.5589C44.1404 49.4679 42.8626 49.9671 41.5409 49.9621ZM53.8438 68.25H33.6383C32.8941 68.25 32.1803 67.942 31.654 67.3938C31.1277 66.8456 30.832 66.102 30.832 65.3267C30.832 64.5514 31.1277 63.8079 31.654 63.2597C32.1803 62.7115 32.8941 62.4035 33.6383 62.4035H53.8438C54.5881 62.4035 55.3019 62.7115 55.8282 63.2597C56.3544 63.8079 56.6501 64.5514 56.6501 65.3267C56.6501 66.102 56.3544 66.8456 55.8282 67.3938C55.3019 67.942 54.5881 68.25 53.8438 68.25Z" fill="black"/>
<rect x="31.5" y="54" width="30" height="30" rx="15" fill="#5DC07C"/>
<path d="M51.2365 64.2206C49.745 65.7718 48.2535 67.3229 46.762 68.889C45.3899 70.3357 44.0028 71.7675 42.6157 73.2143H44.2414C43.1228 72.215 42.0042 71.2157 40.8856 70.2313C40.4232 69.8137 39.7222 69.7689 39.2599 70.2313C38.8423 70.6489 38.7975 71.4394 39.2599 71.857C40.3785 72.8563 41.4971 73.8556 42.6157 74.84C43.0781 75.2576 43.794 75.3023 44.2414 74.84C45.7329 73.2888 47.2244 71.7377 48.7159 70.1716C50.088 68.7249 51.4751 67.2931 52.8622 65.8613C53.2947 65.4138 53.3096 64.683 52.8622 64.2356C52.4147 63.7881 51.669 63.7583 51.2365 64.2206Z" fill="white"/>
</svg>
