<svg width="24" height="24" viewBox="0 0 24 24" fill="none" xmlns="http://www.w3.org/2000/svg">
<g clip-path="url(#clip0_811_6924)">
<path d="M17.0301 12.9698C16.8894 12.8292 16.6987 12.7502 16.4998 12.7502C16.3009 12.7502 16.1102 12.8292 15.9696 12.9698L15.3748 13.5645L14.1853 12.375L16.8103 9.75004H17.9998C20.9439 9.75004 22.4998 7.93467 22.4998 4.50004C22.4999 4.37213 22.4673 4.24631 22.4051 4.13455C22.3429 4.0228 22.2531 3.92883 22.1443 3.86158C22.0354 3.79434 21.9112 3.75606 21.7834 3.75039C21.6556 3.74471 21.5285 3.77183 21.4142 3.82917L18.8979 5.08729L18.1626 4.35192L19.4207 1.83567C19.478 1.72132 19.5051 1.59421 19.4995 1.46642C19.4938 1.33863 19.4555 1.21441 19.3883 1.1056C19.321 0.996785 19.2271 0.906987 19.1153 0.844751C19.0035 0.782515 18.8777 0.749912 18.7498 0.750043C15.3152 0.750043 13.4998 2.30592 13.4998 5.25004V6.43917L10.8748 9.06417L6.68531 4.87504L7.28006 4.28029C7.36071 4.19974 7.42193 4.10186 7.45906 3.99408C7.49619 3.88631 7.50826 3.77149 7.49434 3.65836C7.48042 3.54522 7.44088 3.43675 7.37873 3.3412C7.31658 3.24564 7.23346 3.16552 7.13569 3.10692L3.38569 0.856918C3.24228 0.770828 3.0742 0.735173 2.90819 0.755627C2.74218 0.776081 2.58779 0.851468 2.46956 0.969793L1.71956 1.71979C1.6013 1.83805 1.52595 1.99244 1.5055 2.15843C1.48505 2.32443 1.52066 2.49249 1.60669 2.63592L3.85669 6.38592C3.91534 6.48363 3.99548 6.5667 4.09104 6.6288C4.1866 6.6909 4.29505 6.73042 4.40816 6.74433C4.52127 6.75825 4.63606 6.74621 4.74382 6.70912C4.85159 6.67203 4.94948 6.61087 5.03006 6.53029L5.62481 5.93554L9.81431 10.125L0.969564 18.9698C0.887064 19.0519 0.825189 19.1524 0.788439 19.263L0.0384392 21.513C-0.00556302 21.6451 -0.0119257 21.7869 0.0200637 21.9224C0.0520531 22.0579 0.121132 22.1818 0.219564 22.2803L0.969564 23.0303C1.06804 23.1287 1.19196 23.1978 1.32747 23.2298C1.46298 23.2618 1.60472 23.2554 1.73681 23.2114L3.98681 22.4614C4.09744 22.4247 4.19756 22.3624 4.28006 22.2803L13.1248 13.4355L14.3143 14.625L13.7196 15.2198C13.579 15.3604 13.5 15.5512 13.5 15.75C13.5 15.9489 13.579 16.1396 13.7196 16.2803L20.4696 23.0303C20.6158 23.1769 20.8078 23.25 20.9998 23.25C21.1918 23.25 21.3838 23.1769 21.5301 23.0303L23.7801 20.7803C23.9207 20.6396 23.9997 20.4489 23.9997 20.25C23.9997 20.0512 23.9207 19.8604 23.7801 19.7198L17.0301 12.9698ZM4.64869 4.79029L3.31144 2.56167L5.54006 3.89892L4.64869 4.79029ZM3.34444 21.0945L1.70231 21.642L1.60781 21.5475L2.15531 19.9054L14.7801 7.28029C14.9207 7.13967 14.9998 6.94894 14.9998 6.75004V5.25004C14.9998 3.98067 15.3261 2.68692 17.4913 2.34004L16.5789 4.16479C16.5085 4.30562 16.4842 4.46503 16.5095 4.62043C16.5347 4.77584 16.6082 4.91937 16.7196 5.03067L18.2196 6.53067C18.3309 6.64203 18.4744 6.71553 18.6298 6.74077C18.7852 6.76601 18.9446 6.7417 19.0854 6.67129L20.9102 5.75892C20.5629 7.92379 19.2692 8.25004 17.9998 8.25004H16.4998C16.3009 8.25008 16.1102 8.32913 15.9696 8.46979L3.34444 21.0945ZM20.9998 21.4392L15.3107 15.75L16.4998 14.5609L22.1889 20.25L20.9998 21.4392Z" fill="#BABABA"/>
</g>
<defs>
<clipPath id="clip0_811_6924">
<rect width="24" height="24" fill="white"/>
</clipPath>
</defs>
</svg>
