<svg width="18" height="24" viewBox="0 0 18 24" fill="none" xmlns="http://www.w3.org/2000/svg">
<g clip-path="url(#clip0_672_2367)">
<path d="M15 0.75H3C1.75736 0.75 0.75 1.75736 0.75 3V21C0.75 22.2426 1.75736 23.25 3 23.25H15C16.2426 23.25 17.25 22.2426 17.25 21V3C17.25 1.75736 16.2426 0.75 15 0.75Z" stroke="#BABABA" stroke-width="1.5"/>
<path d="M15.4549 16.1426L12.955 9.89274C12.8597 9.6556 12.6302 9.50006 12.3745 9.50006C12.1188 9.50006 11.8893 9.65575 11.794 9.89274L9.29426 16.1426C9.16616 16.463 9.322 16.8267 9.64239 16.955C9.96247 17.083 10.3268 16.9275 10.455 16.6065L11.0535 15.1104C11.078 15.1132 11.0994 15.1248 11.1246 15.1248H13.6245C13.6497 15.1248 13.6712 15.1134 13.6956 15.1104L14.2941 16.6065C14.3917 16.8513 14.6268 16.9995 14.8746 16.9995C14.9521 16.9995 15.0308 16.9854 15.1064 16.955C15.4267 16.8269 15.583 16.4631 15.4549 16.1426ZM11.5477 13.8747L12.3745 11.8075L13.2014 13.8747H11.5477ZM8.93083 13.6367C8.60414 13.4528 8.14007 13.1635 7.65859 12.7735C8.4174 11.9248 9.04782 10.8357 9.20306 9.49991H9.87472C10.2202 9.49991 10.4997 9.22003 10.4997 8.8749C10.4997 8.52977 10.2202 8.25003 9.87472 8.25003H7.37481V7.62502C7.37481 7.27988 7.09493 7 6.74979 7C6.40466 7 6.12478 7.27988 6.12478 7.62502V8.25003H3.62502C3.27988 8.25003 3 8.52992 3 8.87505C3 9.22018 3.27988 9.50006 3.62502 9.50006H4.29713C4.45387 10.8287 5.08684 11.9196 5.84234 12.7664C4.90895 13.5213 4.02174 13.9175 4.00315 13.9256C3.68636 14.0622 3.54027 14.4303 3.67631 14.7465C3.77831 14.9833 4.00839 15.1249 4.25063 15.1249C4.33238 15.1249 4.41607 15.109 4.49632 15.0742C4.58811 15.0351 5.65515 14.5615 6.75474 13.6449C7.34511 14.1393 7.91838 14.5014 8.31811 14.7264C8.41485 14.7807 8.52015 14.8063 8.62394 14.8063C8.84248 14.8063 9.05457 14.6916 9.16931 14.4877C9.3385 14.1866 9.23171 13.8057 8.93083 13.6367ZM6.75084 11.9059C6.17983 11.2574 5.70615 10.4524 5.55646 9.50006H7.94343C7.79464 10.4507 7.32381 11.256 6.75084 11.9059Z" fill="#BABABA"/>
</g>
<defs>
<clipPath id="clip0_672_2367">
<rect width="18" height="24" fill="white"/>
</clipPath>
</defs>
</svg>
