<svg width="24" height="24" viewBox="0 0 24 24" fill="none" xmlns="http://www.w3.org/2000/svg">
<path d="M4.94227 24C4.46227 24 4.07227 23.61 4.07227 23.13V8.9325C4.07227 8.4525 4.46227 8.0625 4.94227 8.0625C5.42227 8.0625 5.81227 8.4525 5.81227 8.9325V23.1337C5.81127 23.3638 5.71918 23.5842 5.55613 23.7465C5.39308 23.9089 5.17236 24 4.94227 24ZM4.94227 5.1675C4.46227 5.1675 4.07227 4.7775 4.07227 4.2975V0.87C4.07227 0.39 4.46227 0 4.94227 0C5.42227 0 5.81227 0.39 5.81227 0.87V4.2975C5.81227 4.7775 5.42227 5.1675 4.94227 5.1675Z" fill="#BABABA"/>
<path d="M4.94238 9.79875C3.18738 9.79875 1.75488 8.37 1.75488 6.61125C1.75488 4.8525 3.18363 3.42375 4.94238 3.42375C6.70113 3.42375 8.12988 4.8525 8.12988 6.61125C8.12988 8.37 6.70113 9.79875 4.94238 9.79875ZM4.94238 5.1675C4.14363 5.1675 3.49488 5.81625 3.49488 6.615C3.49488 7.41375 4.14363 8.0625 4.94238 8.0625C5.74113 8.0625 6.38988 7.41375 6.38988 6.615C6.38988 5.81625 5.74113 5.1675 4.94238 5.1675ZM11.9999 24C11.5199 24 11.1299 23.61 11.1299 23.13V18.735C11.1299 18.255 11.5199 17.865 11.9999 17.865C12.4799 17.865 12.8699 18.255 12.8699 18.735V23.13C12.8699 23.61 12.4799 24 11.9999 24ZM11.9999 14.9738C11.5199 14.9738 11.1299 14.5837 11.1299 14.1038V0.87C11.1299 0.39 11.5199 0 11.9999 0C12.4799 0 12.8699 0.39 12.8699 0.87V14.1038C12.8699 14.5837 12.4799 14.9738 11.9999 14.9738Z" fill="#BABABA"/>
<path d="M12 19.605C10.245 19.605 8.8125 18.1763 8.8125 16.4175C8.8125 14.6587 10.2413 13.23 12 13.23C13.7587 13.23 15.1875 14.6587 15.1875 16.4175C15.1875 18.1763 13.755 19.605 12 19.605ZM12 14.97C11.2013 14.97 10.5525 15.6187 10.5525 16.4175C10.5525 17.2162 11.2013 17.865 12 17.865C12.7987 17.865 13.4475 17.2162 13.4475 16.4175C13.4475 15.6187 12.7987 14.97 12 14.97ZM19.0575 24C18.5775 24 18.1875 23.61 18.1875 23.13V9.56625C18.1875 9.08625 18.5775 8.69625 19.0575 8.69625C19.5375 8.69625 19.9275 9.08625 19.9275 9.56625V23.13C19.9267 23.3605 19.8348 23.5813 19.6718 23.7443C19.5088 23.9073 19.288 23.9992 19.0575 24ZM19.0575 5.7975C18.5775 5.7975 18.1875 5.4075 18.1875 4.9275V0.87C18.1875 0.39 18.5737 0 19.0575 0C19.5413 0 19.9275 0.39 19.9275 0.87V4.9275C19.9267 5.158 19.8348 5.37882 19.6718 5.54181C19.5088 5.70479 19.288 5.79671 19.0575 5.7975Z" fill="#BABABA"/>
<path d="M19.0576 10.4316C17.3026 10.4316 15.8701 9.00289 15.8701 7.24414C15.8701 5.48539 17.2989 4.05664 19.0576 4.05664C20.8164 4.05664 22.2451 5.48539 22.2451 7.24414C22.2451 9.00289 20.8126 10.4316 19.0576 10.4316ZM19.0576 5.80039C18.2589 5.80039 17.6101 6.44914 17.6101 7.24789C17.6101 8.04664 18.2589 8.69539 19.0576 8.69539C19.8564 8.69539 20.5051 8.04664 20.5051 7.24789C20.5051 6.44914 19.8564 5.80039 19.0576 5.80039Z" fill="#BABABA"/>
</svg>
