<svg width="24" height="24" viewBox="0 0 24 24" fill="none" xmlns="http://www.w3.org/2000/svg">
<path d="M9.015 1.50301C6.534 1.50301 4.515 3.52351 4.515 6.00301V9.00301C4.515 10.428 5.1915 11.688 6.228 12.513C3.015 13.641 0.6405 16.626 0.531 20.229C0.526122 20.4339 0.602063 20.6324 0.742407 20.7818C0.882751 20.9311 1.07622 21.0192 1.281 21.027H15.0615C14.3176 20.6543 13.65 20.1456 13.0935 19.527H2.2185C2.7135 16.047 5.652 13.4175 9.249 13.527C10.014 13.5495 10.734 13.6965 11.406 13.947C11.484 13.4625 11.5905 12.9855 11.766 12.5385C12.3079 12.1216 12.7472 11.5863 13.0503 10.9735C13.3535 10.3607 13.5124 9.68668 13.515 9.00301V6.00301C13.515 3.52351 11.4945 1.50301 9.015 1.50301ZM9.015 3.00301C10.689 3.00301 12.015 4.32751 12.015 6.00301V9.00301C12.015 10.6785 10.689 12.003 9.015 12.003C7.3395 12.003 6.015 10.6785 6.015 9.00301V6.00301C6.015 4.32751 7.3395 3.00301 9.015 3.00301Z" fill="#BABABA"/>
<g clip-path="url(#clip0_672_2283)">
<path d="M21.1615 13.495C21.0506 13.3581 20.9893 13.1822 20.9893 13C20.9893 12.8178 21.0506 12.6418 21.1615 12.505L22.0477 11.425C22.1454 11.307 22.206 11.1585 22.2209 11.0009C22.2358 10.8432 22.2043 10.6845 22.1308 10.5475L20.7462 7.95248C20.6734 7.81562 20.5626 7.70714 20.4296 7.6425C20.2966 7.57785 20.1481 7.56035 20.0054 7.59248L18.7039 7.87748C18.5382 7.91455 18.3658 7.88467 18.2192 7.79348C18.0725 7.70229 17.9617 7.55609 17.9077 7.38248L17.4854 6.00998C17.439 5.86102 17.3505 5.73163 17.2324 5.64011C17.1144 5.5486 16.9728 5.49958 16.8277 5.49998H14.0585C13.9075 5.49145 13.7581 5.53668 13.6331 5.62877C13.5081 5.72086 13.4143 5.85475 13.3662 6.00998L12.9785 7.38248C12.9245 7.55609 12.8137 7.70229 12.667 7.79348C12.5203 7.88467 12.3479 7.91455 12.1823 7.87748L10.8462 7.59248C10.7109 7.57177 10.5729 7.5949 10.4497 7.65896C10.3265 7.72303 10.2236 7.82515 10.1539 7.95248L8.76924 10.5475C8.69389 10.683 8.66001 10.8408 8.67245 10.9984C8.68488 11.156 8.74299 11.3053 8.83847 11.425L9.7177 12.505C9.82869 12.6418 9.8899 12.8178 9.8899 13C9.8899 13.1822 9.82869 13.3581 9.7177 13.495L8.83847 14.575C8.74299 14.6947 8.68488 14.844 8.67245 15.0016C8.66001 15.1592 8.69389 15.317 8.76924 15.4525L10.1539 18.0475C10.2266 18.1843 10.3374 18.2928 10.4704 18.3575C10.6034 18.4221 10.7519 18.4396 10.8946 18.4075L12.1962 18.1225C12.3618 18.0854 12.5342 18.1153 12.6809 18.2065C12.8275 18.2977 12.9383 18.4439 12.9923 18.6175L13.4146 19.99C13.4628 20.1452 13.5565 20.2791 13.6816 20.3712C13.8066 20.4633 13.956 20.5085 14.1069 20.5H16.8762C17.0213 20.5004 17.1629 20.4514 17.2809 20.3599C17.3989 20.2683 17.4874 20.1389 17.5339 19.99L17.9562 18.6175C18.0102 18.4439 18.121 18.2977 18.2676 18.2065C18.4143 18.1153 18.5867 18.0854 18.7523 18.1225L20.0539 18.4075C20.1966 18.4396 20.3451 18.4221 20.4781 18.3575C20.6111 18.2928 20.7219 18.1843 20.7946 18.0475L22.1792 15.4525C22.2527 15.3155 22.2843 15.1567 22.2694 14.9991C22.2544 14.8415 22.1938 14.693 22.0962 14.575L21.1615 13.495ZM20.13 14.5L20.6839 15.175L19.7977 16.84L18.9808 16.66C18.4822 16.5496 17.9635 16.6413 17.5232 16.9178C17.0829 17.1943 16.7516 17.6364 16.5923 18.16L16.3292 19H14.5569L14.3077 18.145C14.1484 17.6214 13.8171 17.1793 13.3768 16.9028C12.9365 16.6263 12.4179 16.5346 11.9192 16.645L11.1023 16.825L10.2023 15.1675L10.7562 14.4925C11.0967 14.08 11.285 13.5459 11.285 12.9925C11.285 12.439 11.0967 11.905 10.7562 11.4925L10.2023 10.8175L11.0885 9.16748L11.9054 9.34748C12.404 9.4579 12.9227 9.36614 13.363 9.08963C13.8033 8.81312 14.1345 8.3711 14.2939 7.84748L14.5569 6.99998H16.3292L16.5923 7.85498C16.7516 8.3786 17.0829 8.82062 17.5232 9.09713C17.9635 9.37364 18.4822 9.4654 18.9808 9.35498L19.7977 9.17498L20.6839 10.84L20.13 11.515C19.7932 11.9266 19.6073 12.4575 19.6073 13.0075C19.6073 13.5575 19.7932 14.0884 20.13 14.5ZM15.4431 9.99998C14.8954 9.99998 14.36 10.1759 13.9046 10.5056C13.4492 10.8352 13.0942 11.3038 12.8847 11.8519C12.6751 12.4001 12.6202 13.0033 12.7271 13.5853C12.8339 14.1672 13.0977 14.7017 13.4849 15.1213C13.8722 15.5409 14.3657 15.8266 14.9028 15.9423C15.44 16.0581 15.9968 15.9987 16.5028 15.7716C17.0088 15.5446 17.4413 15.16 17.7456 14.6667C18.0499 14.1733 18.2123 13.5933 18.2123 13C18.2123 12.2043 17.9206 11.4413 17.4012 10.8787C16.8819 10.3161 16.1775 9.99998 15.4431 9.99998ZM15.4431 14.5C15.1692 14.5 14.9015 14.412 14.6738 14.2472C14.4461 14.0824 14.2687 13.8481 14.1639 13.574C14.0591 13.2999 14.0317 12.9983 14.0851 12.7073C14.1385 12.4164 14.2704 12.1491 14.464 11.9393C14.6577 11.7295 14.9044 11.5867 15.173 11.5288C15.4416 11.4709 15.72 11.5006 15.973 11.6142C16.226 11.7277 16.4422 11.92 16.5944 12.1666C16.7465 12.4133 16.8277 12.7033 16.8277 13C16.8277 13.3978 16.6818 13.7793 16.4222 14.0606C16.1625 14.3419 15.8103 14.5 15.4431 14.5Z" fill="#BABABA"/>
</g>
<defs>
<clipPath id="clip0_672_2283">
<rect width="9" height="18" fill="white" transform="translate(15 4)"/>
</clipPath>
</defs>
</svg>
