<svg width="24" height="24" viewBox="0 0 24 24" fill="none" xmlns="http://www.w3.org/2000/svg">
<path fill-rule="evenodd" clip-rule="evenodd" d="M3.06977 0.833313C1.37526 0.833313 0 2.22326 0 3.93588C0 5.64849 1.37526 7.03844 3.06977 7.03844C4.76428 7.03844 6.13953 5.64849 6.13953 3.93588C6.13953 2.22326 4.76428 0.833313 3.06977 0.833313ZM3.06977 2.52562C3.84 2.52562 4.46512 3.15742 4.46512 3.93588C4.46512 4.71434 3.84 5.34613 3.06977 5.34613C2.29954 5.34613 1.67442 4.71434 1.67442 3.93588C1.67442 3.15742 2.29954 2.52562 3.06977 2.52562Z" fill="#BABABA"/>
<path fill-rule="evenodd" clip-rule="evenodd" d="M3.06977 16.6282C1.37526 16.6282 0 18.0181 0 19.7307C0 21.4434 1.37526 22.8333 3.06977 22.8333C4.76428 22.8333 6.13953 21.4434 6.13953 19.7307C6.13953 18.0181 4.76428 16.6282 3.06977 16.6282ZM3.06977 18.3205C3.84 18.3205 4.46512 18.9523 4.46512 19.7307C4.46512 20.5092 3.84 21.141 3.06977 21.141C2.29954 21.141 1.67442 20.5092 1.67442 19.7307C1.67442 18.9523 2.29954 18.3205 3.06977 18.3205Z" fill="#BABABA"/>
<path fill-rule="evenodd" clip-rule="evenodd" d="M12 0.833313C10.3055 0.833313 8.93024 2.22326 8.93024 3.93588C8.93024 5.64849 10.3055 7.03844 12 7.03844C13.6945 7.03844 15.0698 5.64849 15.0698 3.93588C15.0698 2.22326 13.6945 0.833313 12 0.833313ZM12 2.52562C12.7702 2.52562 13.3954 3.15742 13.3954 3.93588C13.3954 4.71434 12.7702 5.34613 12 5.34613C11.2298 5.34613 10.6047 4.71434 10.6047 3.93588C10.6047 3.15742 11.2298 2.52562 12 2.52562Z" fill="#BABABA"/>
<path fill-rule="evenodd" clip-rule="evenodd" d="M12 16.6282C10.3055 16.6282 8.93024 18.0181 8.93024 19.7307C8.93024 21.4434 10.3055 22.8333 12 22.8333C13.6945 22.8333 15.0698 21.4434 15.0698 19.7307C15.0698 18.0181 13.6945 16.6282 12 16.6282ZM12 18.3205C12.7702 18.3205 13.3954 18.9523 13.3954 19.7307C13.3954 20.5092 12.7702 21.141 12 21.141C11.2298 21.141 10.6047 20.5092 10.6047 19.7307C10.6047 18.9523 11.2298 18.3205 12 18.3205Z" fill="#BABABA"/>
<path fill-rule="evenodd" clip-rule="evenodd" d="M20.9302 0.833313C19.2357 0.833313 17.8605 2.22326 17.8605 3.93588C17.8605 5.64849 19.2357 7.03844 20.9302 7.03844C22.6248 7.03844 24 5.64849 24 3.93588C24 2.22326 22.6248 0.833313 20.9302 0.833313ZM20.9302 2.52562C21.7005 2.52562 22.3256 3.15742 22.3256 3.93588C22.3256 4.71434 21.7005 5.34613 20.9302 5.34613C20.16 5.34613 19.5349 4.71434 19.5349 3.93588C19.5349 3.15742 20.16 2.52562 20.9302 2.52562Z" fill="#BABABA"/>
<path fill-rule="evenodd" clip-rule="evenodd" d="M20.9302 16.6282C19.2357 16.6282 17.8605 18.0181 17.8605 19.7307C17.8605 21.4434 19.2357 22.8333 20.9302 22.8333C22.6248 22.8333 24 21.4434 24 19.7307C24 18.0181 22.6248 16.6282 20.9302 16.6282ZM20.9302 18.3205C21.7005 18.3205 22.3256 18.9523 22.3256 19.7307C22.3256 20.5092 21.7005 21.141 20.9302 21.141C20.16 21.141 19.5349 20.5092 19.5349 19.7307C19.5349 18.9523 20.16 18.3205 20.9302 18.3205Z" fill="#BABABA"/>
<path fill-rule="evenodd" clip-rule="evenodd" d="M2.23256 6.19228V17.4743C2.23256 17.9414 2.60763 18.3205 3.06977 18.3205C3.53191 18.3205 3.90698 17.9414 3.90698 17.4743V6.19228C3.90698 5.72521 3.53191 5.34613 3.06977 5.34613C2.60763 5.34613 2.23256 5.72521 2.23256 6.19228Z" fill="#BABABA"/>
<path fill-rule="evenodd" clip-rule="evenodd" d="M11.1628 6.19228V17.4743C11.1628 17.9414 11.5379 18.3205 12 18.3205C12.4621 18.3205 12.8372 17.9414 12.8372 17.4743V6.19228C12.8372 5.72521 12.4621 5.34613 12 5.34613C11.5379 5.34613 11.1628 5.72521 11.1628 6.19228Z" fill="#BABABA"/>
<path fill-rule="evenodd" clip-rule="evenodd" d="M20.093 6.19228V10.7051C20.093 10.8608 19.968 10.9872 19.814 10.9872H3.06977C2.60763 10.9872 2.23256 11.3662 2.23256 11.8333C2.23256 12.3004 2.60763 12.6795 3.06977 12.6795H19.814C20.8934 12.6795 21.7674 11.795 21.7674 10.7051C21.7674 9.05905 21.7674 6.19228 21.7674 6.19228C21.7674 5.72521 21.3924 5.34613 20.9302 5.34613C20.4681 5.34613 20.093 5.72521 20.093 6.19228Z" fill="#BABABA"/>
</svg>
