<svg width="24" height="24" viewBox="0 0 24 24" fill="none" xmlns="http://www.w3.org/2000/svg">
<path d="M17.8662 21H6.13967C5.30698 21 4.50839 20.6692 3.91959 20.0804C3.33079 19.4916 3 18.693 3 17.8603V6.13377C3.00156 5.3021 3.33304 4.50503 3.92167 3.9175C4.51031 3.32997 5.308 3 6.13967 3H17.8662C18.2778 3 18.6853 3.08106 19.0655 3.23854C19.4457 3.39603 19.7911 3.62686 20.0821 3.91786C20.3731 4.20886 20.604 4.55432 20.7615 4.93453C20.9189 5.31473 21 5.72224 21 6.13377V17.8603C21 18.692 20.67 19.4897 20.0825 20.0783C19.495 20.667 18.6979 20.9984 17.8662 21ZM6.13967 4.47541C5.9214 4.47463 5.70512 4.51695 5.50323 4.59995C5.30135 4.68294 5.11784 4.80497 4.96322 4.95904C4.8086 5.11311 4.68592 5.29619 4.60221 5.49778C4.5185 5.69936 4.47541 5.91549 4.47541 6.13377V17.8603C4.47541 18.3017 4.65075 18.725 4.96286 19.0371C5.27497 19.3492 5.69828 19.5246 6.13967 19.5246H17.8662C18.0845 19.5246 18.3006 19.4815 18.5022 19.3978C18.7038 19.3141 18.8869 19.1914 19.041 19.0368C19.195 18.8822 19.3171 18.6987 19.4001 18.4968C19.483 18.2949 19.5254 18.0786 19.5246 17.8603V6.13377C19.5246 5.69395 19.3499 5.27214 19.0389 4.96113C18.7279 4.65013 18.3061 4.47541 17.8662 4.47541H6.13967Z" fill="#BABABA"/>
<path d="M10.8243 13.1768C10.6199 13.1761 10.418 13.1298 10.2322 13.0411C9.97234 12.9181 9.75231 12.7192 9.59886 12.4685C9.4454 12.2178 9.36512 11.926 9.36775 11.6287V3.77097C9.36775 3.5665 9.44573 3.3704 9.58453 3.22581C9.72333 3.08123 9.91159 3 10.1079 3C10.3042 3 10.4924 3.08123 10.6312 3.22581C10.77 3.3704 10.848 3.5665 10.848 3.77097V11.6287L12.2394 10.3458C12.5009 10.1026 12.8392 9.96821 13.1898 9.96821C13.5403 9.96821 13.8786 10.1026 14.1401 10.3458L15.5671 11.6349L15.5197 3.77097C15.5197 3.5665 15.5977 3.3704 15.7365 3.22581C15.8753 3.08123 16.0635 3 16.2598 3C16.4561 3 16.6444 3.08123 16.7832 3.22581C16.922 3.3704 16.9999 3.5665 16.9999 3.77097V11.6287C17.0026 11.926 16.9223 12.2178 16.7688 12.4685C16.6154 12.7192 16.3954 12.9181 16.1355 13.0411C15.8833 13.1619 15.6028 13.2035 15.3284 13.1608C15.0539 13.118 14.7973 12.9929 14.5901 12.8006L13.1809 11.53L11.7717 12.8067C11.5099 13.0465 11.1729 13.1781 10.8243 13.1768ZM14.069 18H8.74013C8.54383 18 8.35558 17.9188 8.21678 17.7742C8.07798 17.6296 8 17.4335 8 17.229C8 17.0246 8.07798 16.8285 8.21678 16.6839C8.35558 16.5393 8.54383 16.4581 8.74013 16.4581H14.069C14.2653 16.4581 14.4536 16.5393 14.5924 16.6839C14.7312 16.8285 14.8092 17.0246 14.8092 17.229C14.8092 17.4335 14.7312 17.6296 14.5924 17.7742C14.4536 17.9188 14.2653 18 14.069 18Z" fill="#BABABA"/>
</svg>
