<svg width="25" height="26" viewBox="0 0 25 26" fill="none" xmlns="http://www.w3.org/2000/svg">
<path d="M5 3.75H20C20.6904 3.75 21.25 4.30964 21.25 5V20C21.25 20.6904 20.6904 21.25 20 21.25H5C4.30964 21.25 3.75 20.6904 3.75 20V5C3.75 4.30964 4.30964 3.75 5 3.75Z" stroke="#BABABA" stroke-width="1.5" stroke-linejoin="round"/>
<path d="M9.5625 8.6875H15.5625C16.2529 8.6875 16.8125 9.24714 16.8125 9.9375V14.9375C16.8125 15.6279 16.2529 16.1875 15.5625 16.1875H9.5625C8.87214 16.1875 8.3125 15.6279 8.3125 14.9375V9.9375C8.3125 9.24714 8.87214 8.6875 9.5625 8.6875Z" stroke="#BABABA" stroke-width="1.5" stroke-linejoin="round"/>
<path d="M24 9.75C24.4142 9.75 24.75 9.41421 24.75 9C24.75 8.58579 24.4142 8.25 24 8.25V9.75ZM21 9.75H24V8.25H21V9.75Z" fill="#BABABA"/>
<path d="M24 16.75C24.4142 16.75 24.75 16.4142 24.75 16C24.75 15.5858 24.4142 15.25 24 15.25V16.75ZM21.5 16.75H24V15.25H21.5V16.75Z" fill="#BABABA"/>
<path d="M1 8.25C0.585786 8.25 0.25 8.58579 0.25 9C0.25 9.41421 0.585786 9.75 1 9.75V8.25ZM3 8.25H1V9.75H3V8.25Z" fill="#BABABA"/>
<path d="M1 15.25C0.585786 15.25 0.25 15.5858 0.25 16C0.25 16.4142 0.585786 16.75 1 16.75V15.25ZM3.5 15.25H1V16.75H3.5V15.25Z" fill="#BABABA"/>
<path d="M15.25 1C15.25 0.585786 15.5858 0.25 16 0.25C16.4142 0.25 16.75 0.585786 16.75 1H15.25ZM15.25 3V1H16.75V3H15.25Z" fill="#BABABA"/>
<path d="M9.75 1C9.75 0.585786 9.41421 0.25 9 0.25C8.58579 0.25 8.25 0.585786 8.25 1H9.75ZM9.75 3V1H8.25V3H9.75Z" fill="#BABABA"/>
<path d="M15.25 24C15.25 24.4142 15.5858 24.75 16 24.75C16.4142 24.75 16.75 24.4142 16.75 24H15.25ZM15.25 22V24H16.75V22H15.25Z" fill="#BABABA"/>
<path d="M8.25 24C8.25 24.4142 8.58579 24.75 9 24.75C9.41421 24.75 9.75 24.4142 9.75 24H8.25ZM8.25 22V24H9.75V22H8.25Z" fill="#BABABA"/>
</svg>
