<svg width="24" height="24" viewBox="0 0 24 24" fill="none" xmlns="http://www.w3.org/2000/svg">
<g clip-path="url(#clip0_672_2351)">
<path d="M21.6544 8.8H21.552C21.4019 8.79867 21.2557 8.75217 21.1324 8.66656C21.0091 8.58094 20.9145 8.46018 20.8608 8.32C20.8043 8.18464 20.7893 8.03553 20.8178 7.89165C20.8463 7.74776 20.917 7.61561 21.0208 7.512L21.0936 7.4392C21.5324 6.99868 21.7788 6.40221 21.7788 5.7804C21.7788 5.15859 21.5324 4.56212 21.0936 4.1216L19.8848 2.9136C19.4446 2.47442 18.8482 2.22777 18.2264 2.22777C17.6046 2.22777 17.0082 2.47442 16.568 2.9136L16.4952 2.9864C16.3879 3.08969 16.2529 3.15942 16.1065 3.18704C15.9602 3.21467 15.809 3.19897 15.6715 3.14189C15.534 3.0848 15.4161 2.98881 15.3323 2.86569C15.2486 2.74257 15.2026 2.59768 15.2 2.4488V2.3456C15.1994 1.7237 14.952 1.12746 14.5123 0.687712C14.0725 0.247964 13.4763 0.000635345 12.8544 0H11.1456C10.5237 0.000635345 9.92746 0.247964 9.48771 0.687712C9.04796 1.12746 8.80064 1.7237 8.8 2.3456V2.4488C8.7961 2.59662 8.74944 2.74013 8.66566 2.86197C8.58187 2.98381 8.46457 3.07875 8.32794 3.1353C8.19131 3.19185 8.04122 3.20758 7.89584 3.18058C7.75046 3.15359 7.61602 3.08503 7.5088 2.9832L7.44 2.9104C6.99982 2.47122 6.4034 2.22457 5.7816 2.22457C5.1598 2.22457 4.56338 2.47122 4.1232 2.9104L2.9104 4.1184C2.47156 4.55892 2.22516 5.15539 2.22516 5.7772C2.22516 6.39901 2.47156 6.99548 2.9104 7.436L2.9832 7.5088C3.08804 7.61607 3.15822 7.75237 3.18461 7.90003C3.211 8.04768 3.19239 8.19986 3.1312 8.3368C3.0763 8.4732 2.98197 8.59013 2.86027 8.67264C2.73857 8.75515 2.59503 8.79949 2.448 8.8H2.3456C1.7237 8.80064 1.12746 9.04796 0.687712 9.48771C0.247964 9.92746 0.000635345 10.5237 0 11.1456V12.8544C0.000635345 13.4763 0.247964 14.0725 0.687712 14.5123C1.12746 14.952 1.7237 15.1994 2.3456 15.2H2.448C2.59809 15.2013 2.74431 15.2478 2.8676 15.3334C2.99089 15.4191 3.08553 15.5398 3.1392 15.68C3.1957 15.8154 3.21066 15.9645 3.18217 16.1084C3.15368 16.2522 3.08303 16.3844 2.9792 16.488L2.9064 16.5608C2.46756 17.0013 2.22116 17.5978 2.22116 18.2196C2.22116 18.8414 2.46756 19.4379 2.9064 19.8784L4.1144 21.0856C4.55451 21.5252 5.15114 21.7722 5.7732 21.7722C6.39527 21.7722 6.99189 21.5252 7.432 21.0856L7.5048 21.0128C7.61212 20.9081 7.74843 20.8379 7.89606 20.8116C8.04368 20.7852 8.19584 20.8037 8.3328 20.8648C8.4692 20.9195 8.58616 21.0136 8.66869 21.1352C8.75122 21.2568 8.79555 21.4003 8.796 21.5472V21.6504C8.79579 21.959 8.85642 22.2646 8.97442 22.5498C9.09243 22.835 9.26549 23.0941 9.48371 23.3123C9.70194 23.5305 9.96104 23.7036 10.2462 23.8216C10.5314 23.9396 10.837 24.0002 11.1456 24H12.8544C13.4763 23.9994 14.0725 23.752 14.5123 23.3123C14.952 22.8725 15.1994 22.2763 15.2 21.6544V21.5512C15.2039 21.4034 15.2506 21.2599 15.3343 21.138C15.4181 21.0162 15.5354 20.9212 15.6721 20.8647C15.8087 20.8082 15.9588 20.7924 16.1042 20.8194C16.2495 20.8464 16.384 20.915 16.4912 21.0168L16.564 21.0896C17.0042 21.5288 17.6006 21.7754 18.2224 21.7754C18.8442 21.7754 19.4406 21.5288 19.8808 21.0896L21.0896 19.8824C21.5284 19.4419 21.7748 18.8454 21.7748 18.2236C21.7748 17.6018 21.5284 17.0053 21.0896 16.5648L21.0168 16.492C20.912 16.3847 20.8418 16.2484 20.8154 16.1008C20.789 15.9531 20.8076 15.8009 20.8688 15.664C20.9236 15.5275 21.0178 15.4104 21.1396 15.3277C21.2613 15.245 21.4049 15.2006 21.552 15.2H21.6544C22.2763 15.1994 22.8725 14.952 23.3123 14.5123C23.752 14.0725 23.9994 13.4763 24 12.8544V11.1456C23.9994 10.5237 23.752 9.92746 23.3123 9.48771C22.8725 9.04796 22.2763 8.80064 21.6544 8.8ZM22.4 12.8544C22.3998 13.0521 22.3212 13.2416 22.1814 13.3814C22.0416 13.5212 21.8521 13.5998 21.6544 13.6H21.552C21.0878 13.604 20.6349 13.7445 20.25 14.004C19.8651 14.2636 19.5651 14.6307 19.3874 15.0596C19.2097 15.4885 19.1622 15.9603 19.2508 16.416C19.3394 16.8717 19.5602 17.2913 19.8856 17.6224L19.9576 17.6952C20.0973 17.8353 20.1757 18.025 20.1757 18.2228C20.1757 18.4206 20.0973 18.6103 19.9576 18.7504L18.7488 19.9576C18.609 20.0974 18.4193 20.176 18.2216 20.176C18.0239 20.176 17.8342 20.0974 17.6944 19.9576L17.6224 19.8848C17.2912 19.5597 16.8716 19.3393 16.416 19.2509C15.9604 19.1625 15.4889 19.2101 15.0601 19.3877C14.6313 19.5654 14.2643 19.8652 14.0047 20.2499C13.7451 20.6346 13.6043 21.0871 13.6 21.5512V21.6544C13.5998 21.8521 13.5212 22.0416 13.3814 22.1814C13.2416 22.3212 13.0521 22.3998 12.8544 22.4H11.1456C10.9479 22.3998 10.7584 22.3212 10.6186 22.1814C10.4788 22.0416 10.4002 21.8521 10.4 21.6544V21.5512C10.3978 21.0862 10.2582 20.6322 9.99891 20.2462C9.7396 19.8602 9.37207 19.5593 8.94242 19.3814C8.51277 19.2035 8.04016 19.1565 7.58386 19.2461C7.12757 19.3358 6.70793 19.5583 6.3776 19.8856L6.3048 19.9584C6.16477 20.0978 5.97521 20.1761 5.7776 20.1761C5.57999 20.1761 5.39043 20.0978 5.2504 19.9584L4.0424 18.7512C3.90273 18.6111 3.8243 18.4214 3.8243 18.2236C3.8243 18.0258 3.90273 17.8361 4.0424 17.696L4.1152 17.6232C4.44096 17.2921 4.66199 16.8724 4.75071 16.4164C4.83943 15.9605 4.79192 15.4885 4.6141 15.0594C4.43628 14.6303 4.13603 14.2631 3.75081 14.0035C3.3656 13.744 2.91248 13.6036 2.448 13.6H2.3456C2.14792 13.5998 1.9584 13.5212 1.81862 13.3814C1.67883 13.2416 1.60021 13.0521 1.6 12.8544V11.1456C1.60021 10.9479 1.67883 10.7584 1.81862 10.6186C1.9584 10.4788 2.14792 10.4002 2.3456 10.4H2.448C2.91225 10.396 3.36506 10.2555 3.74999 9.99597C4.13492 9.73641 4.43493 9.36929 4.61262 8.94038C4.79031 8.51147 4.83782 8.03974 4.74922 7.58401C4.66062 7.12827 4.43984 6.7087 4.1144 6.3776L4.0424 6.3048C3.90278 6.16487 3.82437 5.97527 3.82437 5.7776C3.82437 5.57993 3.90278 5.39033 4.0424 5.2504L5.2504 4.0416C5.39023 3.90178 5.57986 3.82324 5.7776 3.82324C5.97534 3.82324 6.16497 3.90178 6.3048 4.0416L6.3768 4.1144C6.70796 4.43969 7.1275 4.66035 7.58317 4.74892C8.03883 4.83748 8.51049 4.79003 8.93938 4.61247C9.36827 4.43491 9.73544 4.13509 9.99517 3.75035C10.2549 3.36562 10.3957 2.91297 10.4 2.4488V2.3456C10.4002 2.14792 10.4788 1.9584 10.6186 1.81862C10.7584 1.67883 10.9479 1.60021 11.1456 1.6H12.8544C13.0521 1.60021 13.2416 1.67883 13.3814 1.81862C13.5212 1.9584 13.5998 2.14792 13.6 2.3456V2.4488C13.6041 2.91298 13.7447 3.36568 14.0044 3.75049C14.264 4.1353 14.6311 4.43518 15.06 4.61278C15.4889 4.79037 15.9605 4.83781 16.4162 4.74919C16.8718 4.66056 17.2913 4.4398 17.6224 4.1144L17.6952 4.0416C17.835 3.90178 18.0247 3.82324 18.2224 3.82324C18.4201 3.82324 18.6098 3.90178 18.7496 4.0416L19.9576 5.2504C20.0972 5.39033 20.1756 5.57993 20.1756 5.7776C20.1756 5.97527 20.0972 6.16487 19.9576 6.3048L19.8848 6.3776C19.5593 6.70875 19.3385 7.1284 19.2499 7.5842C19.1614 8.04 19.209 8.5118 19.3867 8.94074C19.5645 9.36969 19.8647 9.7368 20.2497 9.9963C20.6348 10.2558 21.0877 10.3962 21.552 10.4H21.6544C21.8521 10.4002 22.0416 10.4788 22.1814 10.6186C22.3212 10.7584 22.3998 10.9479 22.4 11.1456V12.8544Z" fill="#BABABA"/>
<path d="M12 18.25C15.4518 18.25 18.25 15.4518 18.25 12C18.25 8.54822 15.4518 5.75 12 5.75C8.54822 5.75 5.75 8.54822 5.75 12C5.75 15.4518 8.54822 18.25 12 18.25Z" stroke="#BABABA" stroke-width="1.5"/>
<path d="M15.1342 9.24811C14.9903 9.24811 14.8465 9.3026 14.7375 9.41154L10.9553 13.1938L9.26248 11.5009C9.0446 11.2831 8.68695 11.2831 8.46908 11.5009L8.35875 11.6113C8.14087 11.8291 8.14087 12.1868 8.35875 12.4047L10.5311 14.577C10.7642 14.8101 11.1464 14.8101 11.3795 14.577L15.6413 10.3153C15.8591 10.0974 15.8591 9.73974 15.6413 9.52187L15.5309 9.41154C15.422 9.3026 15.2781 9.24811 15.1342 9.24811Z" fill="#BABABA"/>
</g>
<defs>
<clipPath id="clip0_672_2351">
<rect width="24" height="24" fill="white"/>
</clipPath>
</defs>
</svg>
