<svg width="14" height="16" viewBox="0 0 14 16" fill="none" xmlns="http://www.w3.org/2000/svg">
<path d="M9.84348 0.500691C10.1275 0.518458 10.3467 0.761924 10.3391 1.05131V1.82748C12.5957 2.0464 13.75 3.29357 13.75 5.53584V11.7386C13.75 14.2329 12.3283 15.5 9.53043 15.5H4.46957C1.67174 15.5 0.25 14.2329 0.25 11.7386V5.53584C0.25 4.04321 0.758696 2.97515 1.80217 2.35156L1.87537 2.30984C2.02663 2.23924 2.20405 2.24571 2.35151 2.33132C2.52355 2.4312 2.62515 2.62157 2.61377 2.82274C2.60239 3.0239 2.48 3.20116 2.29783 3.28031C1.60652 3.69161 1.28043 4.40807 1.28043 5.53584V5.73486H10.7957C11.0802 5.73486 11.3109 5.9695 11.3109 6.25894C11.3109 6.54838 11.0802 6.78302 10.7957 6.78302H1.28043V11.7386C1.28043 13.6425 2.20652 14.4319 4.46957 14.4452H9.53043C11.7609 14.4452 12.713 13.6359 12.713 11.7319V5.52921C12.713 3.87073 11.9891 3.06802 10.3391 2.87564V3.37982C10.3011 3.64855 10.0698 3.84473 9.80305 3.83449C9.53632 3.82425 9.32021 3.6109 9.30217 3.34001V1.00487L9.31171 0.921917C9.33295 0.813214 9.38771 0.713372 9.46911 0.63756C9.57085 0.542794 9.70571 0.493491 9.84348 0.500691ZM10.1403 11.1477L10.2233 11.1531C10.3657 11.171 10.4992 11.2363 10.6023 11.3401C10.7261 11.4647 10.7957 11.6344 10.7957 11.8115C10.7957 12.1779 10.5037 12.4749 10.1435 12.4749C9.78329 12.4749 9.4913 12.1779 9.4913 11.8115C9.4913 11.4452 9.78329 11.1481 10.1435 11.1481L10.1403 11.1477ZM7.01304 11.1481L7.09485 11.1533C7.41642 11.1942 7.66522 11.4733 7.66522 11.8115C7.66522 12.1779 7.37323 12.4749 7.01304 12.4749C6.65286 12.4749 6.36087 12.1779 6.36087 11.8115C6.36087 11.4452 6.65286 11.1481 7.01304 11.1481ZM3.886 11.1477L3.96894 11.1531C4.11134 11.171 4.24489 11.2363 4.34799 11.3401C4.47171 11.4647 4.5413 11.6344 4.5413 11.8115C4.5413 12.1779 4.24932 12.4749 3.88913 12.4749C3.52894 12.4749 3.23696 12.1779 3.23696 11.8115C3.23696 11.4452 3.52894 11.1481 3.88913 11.1481L3.886 11.1477ZM10.1403 8.46125L10.2233 8.46635C10.3657 8.48421 10.4992 8.54951 10.6023 8.65335C10.7261 8.77795 10.7957 8.9477 10.7957 9.1248C10.7957 9.49118 10.5037 9.78819 10.1435 9.78819C9.78329 9.78819 9.4913 9.49118 9.4913 9.1248C9.4913 8.75841 9.78329 8.4614 10.1435 8.4614L10.1403 8.46125ZM7.01304 8.4614L7.09485 8.46657C7.41642 8.50751 7.66522 8.7866 7.66522 9.1248C7.66522 9.49118 7.37323 9.78819 7.01304 9.78819C6.65286 9.78819 6.36087 9.49118 6.36087 9.1248C6.36087 8.75841 6.65286 8.4614 7.01304 8.4614ZM3.886 8.46125L3.96894 8.46635C4.11134 8.48421 4.24489 8.54951 4.34799 8.65335C4.47171 8.77795 4.5413 8.9477 4.5413 9.1248C4.5413 9.49118 4.24932 9.78819 3.88913 9.78819C3.52894 9.78819 3.23696 9.49118 3.23696 9.1248C3.23696 8.75841 3.52894 8.4614 3.88913 8.4614L3.886 8.46125ZM4.17935 0.579836C4.44496 0.579836 4.66818 0.782815 4.69783 1.05131V1.7744H7.64565C7.9302 1.7744 8.16087 2.00904 8.16087 2.29849C8.16087 2.58793 7.9302 2.82257 7.64565 2.82257H4.68478V3.34665C4.68479 3.4868 4.62962 3.62111 4.53158 3.71959C4.43354 3.81807 4.30081 3.8725 4.16304 3.87073L4.08771 3.8632C3.84223 3.82006 3.65754 3.60084 3.66083 3.34001V1.05131L3.67539 0.972862C3.73559 0.744249 3.9403 0.579836 4.17935 0.579836Z" fill="#200E32"/>
</svg>
