<svg width="11" height="12" viewBox="0 0 11 12" fill="none" xmlns="http://www.w3.org/2000/svg">
<g clip-path="url(#clip0_1_761)">
<path d="M6.875 0C7.04076 0 7.19973 0.0702379 7.31694 0.195262C7.43415 0.320286 7.5 0.489856 7.5 0.666667H8.75C8.91576 0.666667 9.07473 0.736905 9.19194 0.861929C9.30915 0.986953 9.375 1.15652 9.375 1.33333C9.375 1.51014 9.30915 1.67971 9.19194 1.80474C9.07473 1.92976 8.91576 2 8.75 2H1.25C1.08424 2 0.925269 1.92976 0.808058 1.80474C0.690848 1.67971 0.625 1.51014 0.625 1.33333C0.625 1.15652 0.690848 0.986953 0.808058 0.861929C0.925269 0.736905 1.08424 0.666667 1.25 0.666667H2.5C2.5 0.489856 2.56585 0.320286 2.68306 0.195262C2.80027 0.0702379 2.95924 0 3.125 0H6.875Z" fill="white"/>
<path fill-rule="evenodd" clip-rule="evenodd" d="M1.25 2.66667H5H8.75V10.6667C8.75 11.0203 8.6183 11.3594 8.38388 11.6095C8.14946 11.8595 7.83152 12 7.5 12H2.5C2.16848 12 1.85054 11.8595 1.61612 11.6095C1.3817 11.3594 1.25 11.0203 1.25 10.6667V2.66667ZM3.4375 4.00001C3.35462 4.00001 3.27513 4.03512 3.21653 4.09764C3.15792 4.16015 3.125 4.24493 3.125 4.33334V10.3333C3.125 10.4217 3.15792 10.5065 3.21653 10.569C3.27513 10.6316 3.35462 10.6667 3.4375 10.6667C3.52038 10.6667 3.59987 10.6316 3.65847 10.569C3.71708 10.5065 3.75 10.4217 3.75 10.3333V4.33334C3.75 4.24493 3.71708 4.16015 3.65847 4.09764C3.59987 4.03512 3.52038 4.00001 3.4375 4.00001ZM6.5625 4.00001C6.47962 4.00001 6.40013 4.03512 6.34153 4.09764C6.28292 4.16015 6.25 4.24493 6.25 4.33334V10.3333C6.25 10.4217 6.28292 10.5065 6.34153 10.569C6.40013 10.6316 6.47962 10.6667 6.5625 10.6667C6.64538 10.6667 6.72487 10.6316 6.78347 10.569C6.84208 10.5065 6.875 10.4217 6.875 10.3333V4.33334C6.875 4.24493 6.84208 4.16015 6.78347 4.09764C6.72487 4.03512 6.64538 4.00001 6.5625 4.00001Z" fill="white"/>
</g>
<defs>
<clipPath id="clip0_1_761">
<rect width="11" height="12" fill="white"/>
</clipPath>
</defs>
</svg>
