<svg width="14" height="16" viewBox="0 0 14 16" fill="none" xmlns="http://www.w3.org/2000/svg">
<path d="M12.9985 4.48633C12.9852 4.48633 12.9652 4.48633 12.9452 4.48633C9.4185 4.13299 5.8985 3.99966 2.41181 4.35299L1.05181 4.48633C0.771812 4.51299 0.525146 4.31299 0.498479 4.03299C0.471812 3.75299 0.671812 3.51299 0.945146 3.48633L2.30515 3.35299C5.85183 2.99299 9.44517 3.13299 13.0452 3.48633C13.3185 3.51299 13.5185 3.75966 13.4918 4.03299C13.4718 4.29299 13.2518 4.48633 12.9985 4.48633Z" fill="white"/>
<path d="M4.66456 3.81203C4.63789 3.81203 4.61122 3.81203 4.57789 3.80536C4.31122 3.7587 4.12456 3.4987 4.17122 3.23203L4.31789 2.3587C4.42456 1.7187 4.57122 0.832031 6.12453 0.832031H7.8712C9.4312 0.832031 9.57786 1.75203 9.67786 2.36536L9.82453 3.23203C9.8712 3.50536 9.68453 3.76536 9.41786 3.80536C9.14453 3.85203 8.88453 3.66536 8.84453 3.3987L8.69786 2.53203C8.60453 1.95203 8.58453 1.8387 7.87786 1.8387H6.1312C5.42456 1.8387 5.41122 1.93203 5.31122 2.52536L5.15789 3.39203C5.11789 3.6387 4.90456 3.81203 4.66456 3.81203Z" fill="white"/>
<path d="M9.13766 15.1658H4.85765C2.53099 15.1658 2.43765 13.8791 2.36432 12.8391L1.93099 6.12573C1.91099 5.8524 2.12432 5.61241 2.39765 5.59241C2.67765 5.57907 2.91099 5.78574 2.93099 6.05907L3.36432 12.7724C3.43765 13.7858 3.46432 14.1658 4.85765 14.1658H9.13766C10.5377 14.1658 10.5643 13.7858 10.631 12.7724L11.0643 6.05907C11.0843 5.78574 11.3243 5.57907 11.5977 5.59241C11.871 5.61241 12.0843 5.84573 12.0643 6.12573L11.631 12.8391C11.5577 13.8791 11.4643 15.1658 9.13766 15.1658Z" fill="white"/>
<path d="M8.10673 11.5H5.88673C5.61339 11.5 5.38672 11.2733 5.38672 11C5.38672 10.7267 5.61339 10.5 5.88673 10.5H8.10673C8.38007 10.5 8.60673 10.7267 8.60673 11C8.60673 11.2733 8.38007 11.5 8.10673 11.5Z" fill="white"/>
<path d="M8.66536 8.83203H5.33203C5.0587 8.83203 4.83203 8.60536 4.83203 8.33203C4.83203 8.0587 5.0587 7.83203 5.33203 7.83203H8.66536C8.9387 7.83203 9.16536 8.0587 9.16536 8.33203C9.16536 8.60536 8.9387 8.83203 8.66536 8.83203Z" fill="white"/>
</svg>
