<svg width="28" height="28" viewBox="0 0 28 28" fill="none" xmlns="http://www.w3.org/2000/svg">
<rect width="28" height="28" rx="6" fill="#FFD8D8"/>
<path d="M18.4999 11.3647C18.4899 11.3647 18.4749 11.3647 18.4599 11.3647C15.8149 11.0997 13.1749 10.9997 10.5598 11.2647L9.53984 11.3647C9.32984 11.3847 9.14484 11.2347 9.12484 11.0247C9.10484 10.8147 9.25484 10.6347 9.45984 10.6147L10.4798 10.5147C13.1399 10.2447 15.8349 10.3497 18.5349 10.6147C18.7399 10.6347 18.8899 10.8197 18.8699 11.0247C18.8549 11.2197 18.6899 11.3647 18.4999 11.3647Z" fill="#F90000"/>
<path d="M12.2504 10.859C12.2304 10.859 12.2104 10.859 12.1854 10.854C11.9854 10.819 11.8454 10.624 11.8804 10.424L11.9904 9.76902C12.0704 9.28902 12.1804 8.62402 13.3454 8.62402H14.6554C15.8254 8.62402 15.9354 9.31402 16.0104 9.77402L16.1204 10.424C16.1554 10.629 16.0154 10.824 15.8154 10.854C15.6104 10.889 15.4154 10.749 15.3854 10.549L15.2754 9.89902C15.2054 9.46402 15.1904 9.37902 14.6604 9.37902H13.3504C12.8204 9.37902 12.8104 9.44902 12.7354 9.89402L12.6204 10.544C12.5904 10.729 12.4304 10.859 12.2504 10.859Z" fill="#F90000"/>
<path d="M15.6052 19.3743H12.3952C10.6502 19.3743 10.5802 18.4093 10.5252 17.6293L10.2002 12.5943C10.1852 12.3893 10.3452 12.2093 10.5502 12.1943C10.7602 12.1843 10.9352 12.3393 10.9502 12.5443L11.2752 17.5793C11.3302 18.3393 11.3502 18.6243 12.3952 18.6243H15.6052C16.6552 18.6243 16.6752 18.3393 16.7252 17.5793L17.0502 12.5443C17.0652 12.3393 17.2452 12.1843 17.4502 12.1943C17.6552 12.2093 17.8152 12.3843 17.8002 12.5943L17.4752 17.6293C17.4202 18.4093 17.3502 19.3743 15.6052 19.3743Z" fill="#F90000"/>
<path d="M14.831 16.625H13.166C12.961 16.625 12.791 16.455 12.791 16.25C12.791 16.045 12.961 15.875 13.166 15.875H14.831C15.036 15.875 15.206 16.045 15.206 16.25C15.206 16.455 15.036 16.625 14.831 16.625Z" fill="#F90000"/>
<path d="M15.25 14.624H12.75C12.545 14.624 12.375 14.454 12.375 14.249C12.375 14.044 12.545 13.874 12.75 13.874H15.25C15.455 13.874 15.625 14.044 15.625 14.249C15.625 14.454 15.455 14.624 15.25 14.624Z" fill="#F90000"/>
</svg>
