<svg width="100" height="100" viewBox="0 0 100 100" fill="none" xmlns="http://www.w3.org/2000/svg">
<path d="M58.1916 9.375H18.75V90.625H81.25V32.4334L58.1916 9.375Z" fill="#231F20"/>
<path d="M76.5625 85.9375H23.4375V14.0625H56.25L76.5625 34.375V85.9375Z" fill="white"/>
<path d="M56.25 34.375V14.0625L76.5625 34.375H56.25Z" fill="#6D6E71"/>
<path d="M56.25 34.375L76.5625 54.6875V34.375H56.25Z" fill="#E6E7E8"/>
<path d="M9.375 34.375H23.4375V81.25H9.375V34.375Z" fill="#231F20"/>
<path d="M23.4375 34.375H51.5625V81.25H23.4375V34.375Z" fill="url(#paint0_linear_1290_20534)"/>
<path d="M14.0625 39.0625H51.5625V76.5625H14.0625V39.0625Z" fill="#3164BC"/>
<path d="M42.1875 46.875L38.616 59.375L35.9375 46.875H29.6875L27.009 59.375L23.4375 46.875H18.75L25 68.75H29.6875L32.8125 54.6875L35.9375 68.75H40.625L46.875 46.875H42.1875Z" fill="white"/>
<path d="M51.5625 48.4375H62.5V51.5625H51.5625V48.4375ZM51.5625 56.25H62.5V59.375H51.5625V56.25ZM51.5625 64.0625H62.5V67.1875H51.5625V64.0625ZM51.5625 71.875H62.5V75H51.5625V71.875ZM51.5625 40.625H62.5V43.75H51.5625V40.625Z" fill="#E6E7E8"/>
<defs>
<linearGradient id="paint0_linear_1290_20534" x1="50.9602" y1="57.8125" x2="24.0912" y2="57.8125" gradientUnits="userSpaceOnUse">
<stop stop-color="white"/>
<stop offset="1" stop-color="#E6E7E8"/>
</linearGradient>
</defs>
</svg>
