<svg width="10" height="13" viewBox="0 0 10 13" fill="none" xmlns="http://www.w3.org/2000/svg">
<path d="M5 0.5C4.81056 0.5 4.62888 0.570238 4.49492 0.695262C4.36097 0.820287 4.28571 0.989856 4.28571 1.16667V7.51933L1.27286 4.704C1.20366 4.63933 1.12149 4.58803 1.03104 4.55303C0.940589 4.51803 0.843632 4.50002 0.745714 4.50002C0.647797 4.50002 0.550839 4.51803 0.460388 4.55303C0.369936 4.58803 0.287764 4.63933 0.218572 4.704C0.0787318 4.83474 0.000190735 5.01193 0.000190735 5.19667C0.000190735 5.3814 0.0787318 5.55859 0.218572 5.68933L4.43571 9.62933C4.59071 9.774 4.79714 9.842 5 9.83267C5.20286 9.842 5.40929 9.774 5.56429 9.62933L9.78143 5.68933C9.92127 5.55859 9.99981 5.3814 9.99981 5.19667C9.99981 5.01193 9.92127 4.83474 9.78143 4.704C9.71224 4.63933 9.63006 4.58803 9.53961 4.55303C9.44916 4.51803 9.3522 4.50002 9.25429 4.50002C9.15637 4.50002 9.05941 4.51803 8.96896 4.55303C8.87851 4.58803 8.79634 4.63933 8.72714 4.704L5.71429 7.51933V1.16667C5.71429 0.989856 5.63903 0.820287 5.50508 0.695262C5.37112 0.570238 5.18944 0.5 5 0.5ZM0 11.8333C0 11.6565 0.075255 11.487 0.20921 11.3619C0.343164 11.2369 0.524845 11.1667 0.714286 11.1667H9.28571C9.47515 11.1667 9.65684 11.2369 9.79079 11.3619C9.92475 11.487 10 11.6565 10 11.8333C10 12.0101 9.92475 12.1797 9.79079 12.3047C9.65684 12.4298 9.47515 12.5 9.28571 12.5H0.714286C0.524845 12.5 0.343164 12.4298 0.20921 12.3047C0.075255 12.1797 0 12.0101 0 11.8333Z" fill="white"/>
</svg>
