<svg width="13" height="12" viewBox="0 0 13 12" fill="none" xmlns="http://www.w3.org/2000/svg">
<mask id="path-1-inside-1_2331_2234" fill="white">
<path d="M0 1C0 0.447715 0.447715 0 1 0H12C12.5523 0 13 0.447715 13 1V11C13 11.5523 12.5523 12 12 12H1C0.447715 12 0 11.5523 0 11V1Z"/>
</mask>
<path d="M-1 0C-1 -1.10457 -0.104569 -2 1 -2H12C13.1046 -2 14 -1.10457 14 0L12 2H1L-1 0ZM14 11C14 12.1046 13.1046 13 12 13H1C-0.104569 13 -1 12.1046 -1 11H1H12H14ZM1 13C-0.104569 13 -1 12.1046 -1 11V0C-1 -1.10457 -0.104569 -2 1 -2V2V11V13ZM12 -2C13.1046 -2 14 -1.10457 14 0V11C14 12.1046 13.1046 13 12 13V11V2V-2Z" fill="#434854" mask="url(#path-1-inside-1_2331_2234)"/>
<line x1="6.5" y1="2" x2="6.5" y2="12" stroke="#434854"/>
</svg>
