<svg width="24" height="24" viewBox="0 0 24 24" fill="none" xmlns="http://www.w3.org/2000/svg">
<path d="M12 8.30627C11.2695 8.30627 10.5553 8.52291 9.94789 8.92878C9.34045 9.33466 8.86702 9.91154 8.58745 10.5865C8.30787 11.2614 8.23473 12.0041 8.37725 12.7206C8.51977 13.4372 8.87157 14.0953 9.38815 14.6119C9.90473 15.1285 10.5629 15.4803 11.2794 15.6228C11.9959 15.7653 12.7386 15.6922 13.4136 15.4126C14.0885 15.133 14.6654 14.6596 15.0713 14.0522C15.4771 13.4447 15.6938 12.7306 15.6938 12C15.6926 11.0207 15.303 10.0819 14.6106 9.38946C13.9181 8.69701 12.9793 8.30747 12 8.30627ZM12 14.1938C11.5661 14.1938 11.142 14.0651 10.7812 13.8241C10.4205 13.583 10.1393 13.2404 9.97327 12.8395C9.80723 12.4387 9.76378 11.9976 9.84843 11.572C9.93307 11.1465 10.142 10.7556 10.4488 10.4488C10.7556 10.142 11.1465 9.93307 11.572 9.84843C11.9976 9.76378 12.4387 9.80722 12.8395 9.97326C13.2404 10.1393 13.583 10.4205 13.8241 10.7812C14.0651 11.142 14.1938 11.5661 14.1938 12C14.1932 12.5817 13.9619 13.1393 13.5506 13.5506C13.1393 13.9619 12.5817 14.1932 12 14.1938Z" fill="#525252"/>
<path d="M21.9367 11.625C21.7785 11.3512 17.994 4.91998 12 4.91998C6.006 4.91998 2.2215 11.3512 2.06325 11.625L1.8465 12L2.06325 12.375C2.2215 12.6487 6.00675 19.08 12 19.08C17.9932 19.08 21.7785 12.6487 21.9367 12.375L22.1535 12L21.9367 11.625ZM12 17.58C7.64025 17.58 4.4685 13.305 3.6 11.9992C4.46625 10.6905 7.6275 6.41998 12 6.41998C16.3597 6.41998 19.5307 10.695 20.4 12C19.5307 13.308 16.3597 17.58 12 17.58Z" fill="#525252"/>
<path d="M18 4L6 20" stroke="#525252" stroke-width="1.8" stroke-linecap="round"/>
</svg>
