<svg xmlns="http://www.w3.org/2000/svg" viewBox="0 0 32 32" id="view">
  <path d="M16,11.075A4.925,4.925,0,1,0,20.925,16,4.931,4.931,0,0,0,16,11.075Zm0,7.85A2.925,2.925,0,1,1,18.925,16,2.928,2.928,0,0,1,16,18.925Z"></path>
  <path d="M29.249,15.5C29.038,15.135,23.992,6.56,16,6.56S2.962,15.135,2.751,15.5l-.289.5.289.5c.211.365,5.258,8.94,13.249,8.94s13.038-8.575,13.249-8.94l.289-.5ZM16,23.44c-5.813,0-10.042-5.7-11.2-7.441C5.955,14.254,10.17,8.56,16,8.56c5.813,0,10.041,5.7,11.2,7.44C26.041,17.744,21.813,23.44,16,23.44Z"></path>
</svg>
