<svg width="28" height="28" viewBox="0 0 28 28" fill="none" xmlns="http://www.w3.org/2000/svg">
<rect x="0.5" y="0.5" width="27" height="27" rx="5.5" fill="white"/>
<rect x="0.5" y="0.5" width="27" height="27" rx="5.5" stroke="#E3E3E3"/>
<path d="M19.4396 12.0007H8.55852C8.00541 12.0007 7.97728 12.2881 8.00853 12.6412L8.41478 18.3594C8.4429 18.7094 8.52415 19 9.07414 19H18.9552C19.5177 19 19.5834 18.7125 19.6146 18.3594L19.9927 12.5694C20.0208 12.2194 19.9927 12.0007 19.4396 12.0007ZM19.3177 10.4789C19.3021 10.0915 19.1771 10.0009 18.8459 10.0009H14.3709C13.6897 10.0009 13.6084 10.0102 13.0928 9.45715C12.6647 8.9947 12.8335 9.00095 11.9491 9.00095H9.59601C9.05227 9.00095 8.85852 8.95408 8.80852 9.51965C8.76165 10.0415 8.65227 11.307 8.63665 11.5007H19.3677L19.3177 10.4789Z" fill="black"/>
</svg>
