<svg width="12" height="13" viewBox="0 0 12 13" fill="none" xmlns="http://www.w3.org/2000/svg">
<path d="M11.4396 4.50066H0.558525C0.00540826 4.50066 -0.0227162 4.78814 0.00853328 5.14123L0.414777 10.8594C0.442901 11.2094 0.52415 11.5 1.07414 11.5H10.9552C11.5177 11.5 11.5834 11.2125 11.6146 10.8594L11.9927 5.06936C12.0208 4.71939 11.9927 4.50066 11.4396 4.50066ZM11.3177 2.97893C11.3021 2.59147 11.1771 2.50085 10.8459 2.50085H6.37093C5.68969 2.50085 5.60845 2.51023 5.09283 1.95715C4.66471 1.4947 4.83346 1.50095 3.9491 1.50095H1.59601C1.05227 1.50095 0.85852 1.45408 0.808521 2.01965C0.761646 2.54147 0.652273 3.80698 0.636648 4.00071H11.3677L11.3177 2.97893Z" fill="white"/>
</svg>
