<svg width="20" height="21" viewBox="0 0 20 21" fill="none" xmlns="http://www.w3.org/2000/svg">
<path fill-rule="evenodd" clip-rule="evenodd" d="M3.125 8.25742C3.47018 8.25742 3.75 8.53724 3.75 8.88242V18.1012H6.875V13.4137C6.875 12.9993 7.03962 12.6018 7.33265 12.3088C7.62567 12.0158 8.0231 11.8512 8.4375 11.8512H11.5625C11.9769 11.8512 12.3743 12.0158 12.6674 12.3088C12.9604 12.6018 13.125 12.9993 13.125 13.4137V18.1012H16.25V8.88242C16.25 8.53724 16.5298 8.25742 16.875 8.25742C17.2202 8.25742 17.5 8.53724 17.5 8.88242V18.1012C17.5 18.4327 17.3683 18.7506 17.1339 18.9851C16.8995 19.2195 16.5815 19.3512 16.25 19.3512H12.5C12.1548 19.3512 11.875 19.0713 11.875 18.7262V13.4137C11.875 13.3308 11.8421 13.2513 11.7835 13.1927C11.7249 13.1341 11.6454 13.1012 11.5625 13.1012H8.4375C8.35462 13.1012 8.27513 13.1341 8.21653 13.1927C8.15792 13.2513 8.125 13.3308 8.125 13.4137V18.7262C8.125 19.0713 7.84518 19.3512 7.5 19.3512H3.75C3.41848 19.3512 3.10054 19.2195 2.86612 18.9851C2.6317 18.7506 2.5 18.4327 2.5 18.1012V8.88242C2.5 8.53724 2.77982 8.25742 3.125 8.25742Z" fill="#CED3E0"/>
<path fill-rule="evenodd" clip-rule="evenodd" d="M10.8661 2.18937L19.1822 10.15C19.4315 10.3887 19.4402 10.7843 19.2015 11.0336C18.9628 11.283 18.5672 11.2916 18.3178 11.0529L10.0125 3.10269C10.0087 3.10235 10.0046 3.10215 10.0002 3.10214C9.99568 3.10213 9.9914 3.10233 9.98749 3.10268L1.68219 11.0529C1.43284 11.2916 1.0372 11.283 0.798515 11.0336C0.559825 10.7843 0.568466 10.3887 0.817815 10.15L9.13446 2.18885C9.3894 1.93038 9.73684 1.85167 10.0024 1.85214C10.2669 1.85262 10.6131 1.93197 10.8661 2.18937Z" fill="#CED3E0"/>
<path fill-rule="evenodd" clip-rule="evenodd" d="M13.125 3.10117C13.125 2.75599 13.4048 2.47617 13.75 2.47617H15.625C15.9702 2.47617 16.25 2.75599 16.25 3.10117V7.59335C16.25 7.93853 15.9702 8.21835 15.625 8.21835C15.2798 8.21835 15 7.93853 15 7.59335V3.72617H14.375V5.79648C14.375 6.14166 14.0952 6.42148 13.75 6.42148C13.4048 6.42148 13.125 6.14166 13.125 5.79648V3.10117Z" fill="#CED3E0"/>
</svg>
