<svg width="18" height="18" viewBox="0 0 18 18" fill="none" xmlns="http://www.w3.org/2000/svg">
<path d="M8.25 15H4.5C4.30109 15 4.11032 14.921 3.96967 14.7803C3.82902 14.6397 3.75 14.4489 3.75 14.25V3.75C3.75 3.55109 3.82902 3.36032 3.96967 3.21967C4.11032 3.07902 4.30109 3 4.5 3H8.25V5.25C8.25 5.84674 8.48705 6.41903 8.90901 6.84099C9.33097 7.26295 9.90326 7.5 10.5 7.5H12.75V9C12.75 9.19891 12.829 9.38968 12.9697 9.53033C13.1103 9.67098 13.3011 9.75 13.5 9.75C13.6989 9.75 13.8897 9.67098 14.0303 9.53033C14.171 9.38968 14.25 9.19891 14.25 9V6.705C14.2422 6.6361 14.2271 6.56822 14.205 6.5025V6.435C14.1673 6.35655 14.1194 6.28342 14.0625 6.2175L9.5625 1.7175C9.49658 1.66064 9.42345 1.61273 9.345 1.575C9.32261 1.57182 9.29989 1.57182 9.2775 1.575L9.045 1.5H4.5C3.90326 1.5 3.33097 1.73705 2.90901 2.15901C2.48705 2.58097 2.25 3.15326 2.25 3.75V14.25C2.25 14.8467 2.48705 15.419 2.90901 15.841C3.33097 16.2629 3.90326 16.5 4.5 16.5H8.25C8.44891 16.5 8.63968 16.421 8.78033 16.2803C8.92098 16.1397 9 15.9489 9 15.75C9 15.5511 8.92098 15.3603 8.78033 15.2197C8.63968 15.079 8.44891 15 8.25 15ZM9.75 4.0575L11.6925 6H10.5C10.3011 6 10.1103 5.92098 9.96967 5.78033C9.82902 5.63968 9.75 5.44891 9.75 5.25V4.0575ZM14.25 11.25H10.0575L11.0325 10.2825C11.1737 10.1413 11.2531 9.94973 11.2531 9.75C11.2531 9.55027 11.1737 9.35873 11.0325 9.2175C10.8913 9.07627 10.6997 8.99693 10.5 8.99693C10.3003 8.99693 10.1087 9.07627 9.9675 9.2175L7.7175 11.4675C7.65125 11.5404 7.59798 11.6241 7.56 11.715C7.48499 11.8976 7.48499 12.1024 7.56 12.285C7.59436 12.3777 7.64805 12.4621 7.7175 12.5325L9.9675 14.7825C10.0372 14.8528 10.1202 14.9086 10.2116 14.9467C10.303 14.9847 10.401 15.0043 10.5 15.0043C10.599 15.0043 10.697 14.9847 10.7884 14.9467C10.8798 14.9086 10.9628 14.8528 11.0325 14.7825C11.1028 14.7128 11.1586 14.6298 11.1967 14.5384C11.2347 14.447 11.2543 14.349 11.2543 14.25C11.2543 14.151 11.2347 14.053 11.1967 13.9616C11.1586 13.8702 11.1028 13.7872 11.0325 13.7175L10.0575 12.75H14.25C14.4489 12.75 14.6397 12.671 14.7803 12.5303C14.921 12.3897 15 12.1989 15 12C15 11.8011 14.921 11.6103 14.7803 11.4697C14.6397 11.329 14.4489 11.25 14.25 11.25Z" fill="white"/>
</svg>
