<svg width="24" height="24" viewBox="0 0 24 24" fill="none" xmlns="http://www.w3.org/2000/svg">
<g clip-path="url(#clip0_648_266)">
<path d="M11.7 2C11.6 2 11.6 2 11.5 2C11.5 2 11.5 2 11.4 2C11.2 2 11.1 2 10.9 2L11.1 4H12.4C16.4 4.3 19.7 7.5 19.9 11.6C20.1 16 16.7 19.8 12.3 20C12.3 20 12.2 20 12.1 20C11.8 20 11.4 20 11.1 20L11 22H12.3H12.7C18.1 21.6 22.2 17 22 11.6C21.8 6.5 17.7 2.5 12.7 2.1C12.5 2.1 12.4 2.1 12.2 2.1C12 2 11.9 2 11.7 2ZM8.19998 2.7C7.69998 3 7.19998 3.2 6.69998 3.5L7.79998 5.2C8.09998 5 8.49998 4.8 8.89998 4.6L8.19998 2.7ZM4.49998 5.4C4.09998 5.8 3.79998 6.3 3.49998 6.7L5.19998 7.7C5.39998 7.4 5.69998 7.1 5.99998 6.7L4.49998 5.4ZM15.4 8.4L10.8 13.6L8.09998 11.5L6.99998 13.2L11.2 16.4L17 9.8L15.4 8.4ZM2.39998 9C2.19998 9.5 2.09998 10.1 2.09998 10.6L4.09998 10.9C4.19998 10.5 4.19998 10 4.39998 9.6L2.39998 9ZM4.09998 13L2.09998 13.2V13.5C2.19998 13.9 2.29998 14.4 2.39998 14.8L4.29998 14.2C4.19998 13.9 4.09998 13.5 4.09998 13.1V13ZM5.19998 16.2L3.49998 17.3C3.79998 17.8 4.09998 18.2 4.49998 18.6L5.99998 17.3C5.69998 16.9 5.39998 16.6 5.19998 16.2ZM7.79998 18.8L6.69998 20.5C7.19998 20.8 7.69998 21 8.19998 21.3L8.99998 19.5C8.49998 19.2 8.09998 19 7.79998 18.8Z" fill="#E8A231"/>
</g>
<defs>
<clipPath id="clip0_648_266">
<rect width="24" height="24" fill="white"/>
</clipPath>
</defs>
</svg>
