<svg width="24" height="25" viewBox="0 0 24 25" fill="none" xmlns="http://www.w3.org/2000/svg">
<path d="M5 4V21H19V10.0444L12.3889 4H5Z" stroke="white" stroke-width="1.2" stroke-linejoin="round"/>
<path d="M17.852 14.56C17.8389 14.4644 17.762 14.3444 17.6795 14.2637C17.4433 14.0312 16.9239 13.9094 16.1326 13.8981C15.5964 13.8925 14.9514 13.9394 14.2726 14.035C13.9689 13.8606 13.6558 13.6694 13.4101 13.4387C12.7483 12.8219 12.197 11.965 11.852 11.0219C11.8745 10.9337 11.8933 10.8569 11.912 10.7781C11.912 10.7781 12.2833 8.66312 12.1858 7.94687C12.1726 7.84937 12.1633 7.82125 12.137 7.74438L12.1051 7.66187C12.0039 7.4275 11.8051 7.18 11.4939 7.19312L11.3101 7.1875H11.3064C10.9576 7.1875 10.6764 7.36563 10.6014 7.63C10.3764 8.4625 10.6089 9.70937 11.0308 11.3219L10.922 11.5844C10.6201 12.3231 10.2414 13.0656 9.90765 13.72L9.86452 13.8044C9.51202 14.4925 9.19327 15.0775 8.90265 15.5725L8.60452 15.73C8.58202 15.7412 8.07015 16.0131 7.95015 16.0844C6.93202 16.6937 6.25702 17.3837 6.14452 17.9312C6.1089 18.1075 6.13515 18.3306 6.31702 18.4338L6.60577 18.58C6.7314 18.6419 6.86452 18.6737 6.99952 18.6737C7.72515 18.6737 8.56702 17.77 9.72765 15.745C11.0664 15.31 12.5926 14.9462 13.9295 14.7475C14.9476 15.3194 16.2001 15.7187 16.9914 15.7187C17.132 15.7187 17.2539 15.7056 17.3514 15.6794C17.5033 15.6381 17.6308 15.5519 17.7095 15.4356C17.8633 15.205 17.8933 14.8862 17.852 14.56ZM6.84202 18.1244C6.97327 17.7625 7.49827 17.0462 8.27265 16.4125C8.3214 16.3731 8.4414 16.2606 8.55015 16.1556C7.74015 17.4475 7.19827 17.9612 6.84202 18.1244ZM11.4283 7.5625C11.6608 7.5625 11.7939 8.14937 11.8051 8.70062C11.8164 9.25187 11.687 9.63812 11.5276 9.925C11.3945 9.50125 11.3308 8.83375 11.3308 8.39688C11.3308 8.39688 11.3214 7.5625 11.4283 7.5625ZM10.0595 15.0887C10.2226 14.7981 10.3914 14.4906 10.5639 14.1662C10.9858 13.3694 11.252 12.7469 11.4489 12.235C11.8426 12.9512 12.3339 13.5606 12.9095 14.0481C12.9826 14.1081 13.0595 14.17 13.1383 14.2319C11.9664 14.4625 10.952 14.7456 10.0595 15.0887ZM17.4526 15.0231C17.3814 15.0662 17.177 15.0925 17.0458 15.0925C16.622 15.0925 16.0951 14.8994 15.3583 14.5825C15.6414 14.5619 15.902 14.5506 16.1345 14.5506C16.5601 14.5506 16.6858 14.5487 17.1039 14.6556C17.5201 14.7625 17.5258 14.9781 17.4526 15.0231Z" fill="white"/>
</svg>
