<svg width="122" height="172" viewBox="0 0 122 172" fill="none" xmlns="http://www.w3.org/2000/svg">
<rect y="16.3185" width="122" height="130.159" fill="#3EA44E"/>
<rect x="7.38184" y="16.3185" width="107.236" height="130.159" fill="#FDC53C"/>
<path d="M64.3025 7.1879L67.4108 0C25.6045 3.57452 16.3184 35.6805 16.9012 51.2866C16.9012 68.3822 31.1475 82.1104 38.2707 86.8376L73.8216 112.287C85.0114 119.902 87.2908 128.799 87.0318 132.296C87.3426 152.655 71.2314 162.278 63.1369 164.545L61.1942 171.927C100.048 163.534 110.02 128.67 110.15 112.287C110.15 96.5898 98.3641 84.2474 92.4713 80.0382L54.3949 53.2293C46 48 41.4628 43.7102 40.6019 40.7962C34.5407 20.2815 53.8768 9.84289 64.3025 7.1879Z" fill="#EA543B"/>
<circle cx="77.3185" cy="37.6879" r="16.3185" fill="#EA543B"/>
</svg>
