<svg width="176" height="44" viewBox="0 0 176 44" fill="none" xmlns="http://www.w3.org/2000/svg">
<g clip-path="url(#clip0_180_1464)">
<path d="M5.7861 22.0001C5.7861 4.38517 19.2996 5.22043 19.2996 5.22043C25.4331 5.22043 32.0048 9.87399 32.0048 9.87399V3.46789C32.0048 3.46789 27.4726 9.06126e-05 18.8992 9.06126e-05C18.8992 9.06126e-05 -0.385229 -0.529401 -0.385229 22.0001C-0.385229 22.0001 -0.521195 44.0001 19.1183 44.0001C19.1183 44.0001 28.719 43.6496 32.0048 39.7865V33.9099C32.0048 33.9099 27.027 38.8245 19.2996 38.8245C19.2996 38.8245 5.79366 39.2197 5.79366 22.0001H5.7861Z" fill="white"/>
<path d="M49.0308 11.209H45.0349L36.0536 37.1242H39.6793L41.9832 29.7859H51.9993L54.4467 37.1242H58.0649L49.0308 11.209ZM43.0105 26.8551L47.0593 14.8707L51.0551 26.8551H43.0105Z" fill="white"/>
<path d="M76.2163 11.9993V16.2278C76.2163 16.2278 73.3913 13.3939 68.5947 13.3939C68.5947 13.3939 63.4204 13.5803 63.4204 17.8535C63.4204 17.8535 62.4007 21.6868 69.5389 22.4027C69.5389 22.4027 77.6742 23.4244 77.6742 29.644C77.6742 29.644 78.3313 37.9593 68.4512 37.9593C68.4512 37.9593 62.091 37.9966 59.6587 35.5878V31.5457C59.6587 31.5457 63.3676 34.8569 68.1641 34.8569C68.1641 34.8569 74.056 35.3566 74.056 30.3898C74.056 30.3898 74.3355 26.579 69.1612 25.8854C69.1612 25.8854 59.6587 24.6996 59.6587 19.0095C59.6587 19.0095 58.435 10.56 68.6702 10.463C68.6702 10.463 73.6783 10.4183 76.2163 11.9918V11.9993Z" fill="white"/>
<path d="M80.8694 37.1242V11.209H84.6689V21.4931H96.5961V11.209H100.464V37.1242H96.8V24.5209H84.5329L84.4649 37.1242H80.8694Z" fill="white"/>
<path d="M34.8827 0.835449V4.91477H109.127V39.1304H114.596V4.91477H160.711V0.835449H34.8827Z" fill="white"/>
<path d="M122.059 11.209V37.1242H138.232V34.4395H125.345V24.6103H137.34V21.5378H125.436V14.1697H138.232V11.209H122.059Z" fill="white"/>
<path d="M161.429 11.209H156.98L151.028 20.6429L145.075 11.209H140.634L148.852 24.0958L140.634 37.1242H144.894L151.028 27.5114L157.161 37.1242H161.429L153.203 24.0958L161.429 11.209Z" fill="white"/>
<path d="M162.834 37.1388C162.834 33.0669 165.772 30.3076 169.315 30.3076C172.858 30.3076 175.781 33.0595 175.781 37.1388C175.781 41.2181 172.843 43.9178 169.315 43.9178C165.787 43.9178 162.834 41.2181 162.834 37.1388ZM174.671 37.1388C174.671 33.7903 172.299 31.3144 169.315 31.3144C166.331 31.3144 163.944 33.7903 163.944 37.1388C163.944 40.4873 166.331 42.8961 169.315 42.8961C172.299 42.8961 174.671 40.4873 174.671 37.1388ZM166.905 33.3876H169.345C170.735 33.3876 172.072 33.9097 172.072 35.6398C172.072 36.5347 171.46 37.3625 170.675 37.5937L172.412 40.629H171.09L169.715 37.9741H168.023V40.629H166.905V33.3876ZM169.051 37.0046C170.138 37.0046 170.864 36.6317 170.864 35.7069C170.864 34.9164 170.448 34.372 169.171 34.372H168.023V37.0046H169.051Z" fill="white"/>
<path d="M160.719 40.271H34.8827V44.3503H160.719V40.271Z" fill="white"/>
</g>
<defs>
<clipPath id="clip0_180_1464">
<rect width="176" height="44" fill="white"/>
</clipPath>
</defs>
</svg>
