<svg width="233" height="59" viewBox="0 0 233 59" fill="none" xmlns="http://www.w3.org/2000/svg">
<g clip-path="url(#clip0_179_1438)">
<path d="M7.66002 29.5C7.66002 5.87996 25.55 6.99997 25.55 6.99997C33.67 6.99997 42.37 13.24 42.37 13.24V4.64997C42.37 4.64997 36.37 -3.38588e-05 25.02 -3.38588e-05C25.02 -3.38588e-05 -0.509976 -0.710033 -0.509976 29.5C-0.509976 29.5 -0.689978 59 25.31 59C25.31 59 38.02 58.53 42.37 53.35V45.47C42.37 45.47 35.78 52.06 25.55 52.06C25.55 52.06 7.67002 52.59 7.67002 29.5H7.66002Z" fill="#7B9CAF"/>
<path d="M64.91 15.0298H59.62L47.73 49.7798H52.53L55.58 39.9398H68.84L72.08 49.7798H76.87L64.91 15.0298ZM56.94 36.0098L62.3 19.9398L67.59 36.0098H56.94Z" fill="#7B9BB0"/>
<path d="M100.9 16.09V21.76C100.9 21.76 97.16 17.96 90.81 17.96C90.81 17.96 83.96 18.21 83.96 23.94C83.96 23.94 82.61 29.08 92.06 30.04C92.06 30.04 102.83 31.41 102.83 39.75C102.83 39.75 103.7 50.9 90.62 50.9C90.62 50.9 82.2 50.95 78.98 47.72V42.3C78.98 42.3 83.89 46.74 90.24 46.74C90.24 46.74 98.04 47.41 98.04 40.75C98.04 40.75 98.41 35.64 91.56 34.71C91.56 34.71 78.98 33.12 78.98 25.49C78.98 25.49 77.36 14.16 90.91 14.03C90.91 14.03 97.54 13.97 100.9 16.08V16.09Z" fill="#7B9BB0"/>
<path d="M107.06 49.7798V15.0298H112.09V28.8198H127.88V15.0298H133V49.7798H128.15V32.8798H111.91L111.82 49.7798H107.06Z" fill="#7B9BB0"/>
<path d="M46.18 1.12012V6.59012H144.47V52.4701H151.71V6.59012H212.76V1.12012H46.18Z" fill="black"/>
<path d="M161.59 15.0298V49.7798H183V46.1798H165.94V32.9998H181.82V28.8798H166.06V18.9998H183V15.0298H161.59Z" fill="black"/>
<path d="M213.71 15.0298H207.82L199.94 27.6798L192.06 15.0298H186.18L197.06 32.3098L186.18 49.7798H191.82L199.94 36.8898L208.06 49.7798H213.71L202.82 32.3098L213.71 15.0298Z" fill="black"/>
<path d="M215.57 49.8001C215.57 44.3401 219.46 40.6401 224.15 40.6401C228.84 40.6401 232.71 44.3301 232.71 49.8001C232.71 55.2701 228.82 58.8901 224.15 58.8901C219.48 58.8901 215.57 55.2701 215.57 49.8001ZM231.24 49.8001C231.24 45.3101 228.1 41.9901 224.15 41.9901C220.2 41.9901 217.04 45.3101 217.04 49.8001C217.04 54.2901 220.2 57.5201 224.15 57.5201C228.1 57.5201 231.24 54.2901 231.24 49.8001ZM220.96 44.7701H224.19C226.03 44.7701 227.8 45.4701 227.8 47.7901C227.8 48.9901 226.99 50.1001 225.95 50.4101L228.25 54.4801H226.5L224.68 50.9201H222.44V54.4801H220.96V44.7701ZM223.8 49.6201C225.24 49.6201 226.2 49.1201 226.2 47.8801C226.2 46.8201 225.65 46.0901 223.96 46.0901H222.44V49.6201H223.8Z" fill="black"/>
<path d="M212.77 54H46.18V59.47H212.77V54Z" fill="black"/>
</g>
<defs>
<clipPath id="clip0_179_1438">
<rect width="233" height="59" fill="white"/>
</clipPath>
</defs>
</svg>
