<svg width="24" height="24" viewBox="0 0 24 24" fill="none" xmlns="http://www.w3.org/2000/svg">
<path d="M19.5901 5.24246H18.1875V3.91128C18.1962 3.37891 17.9935 2.86481 17.6238 2.48168C17.254 2.09855 16.7475 1.87767 16.2151 1.86745H15.1537C15.0619 1.34637 14.7894 0.874291 14.3841 0.534153C13.9788 0.194014 13.4666 0.00756836 12.9375 0.00756836C12.4084 0.00756836 11.8962 0.194014 11.4909 0.534153C11.0857 0.874291 10.8132 1.34637 10.7214 1.86745H4.40994C3.8776 1.87767 3.37103 2.09856 3.00129 2.48168C2.63155 2.86481 2.42881 3.37891 2.43753 3.91128V18.5736C2.42881 19.106 2.63155 19.6201 3.00129 20.0032C3.37103 20.3864 3.8776 20.6072 4.40994 20.6175H5.81253V21.9486C5.80381 22.481 6.00655 22.9951 6.37629 23.3782C6.74603 23.7614 7.2526 23.9822 7.78494 23.9925H19.5901C20.1225 23.9822 20.629 23.7614 20.9988 23.3782C21.3685 22.9951 21.5712 22.481 21.5625 21.9486V7.28628C21.5712 6.75391 21.3685 6.23981 20.9988 5.85669C20.629 5.47356 20.1225 5.25268 19.5901 5.24246ZM12.9375 1.49246C13.1346 1.49532 13.3225 1.5756 13.4609 1.71595C13.5992 1.85629 13.6767 2.04543 13.6767 2.24248C13.6767 2.43953 13.5992 2.62866 13.4608 2.769C13.3225 2.90934 13.1345 2.98961 12.9375 2.99246C12.7405 2.9896 12.5525 2.90932 12.4142 2.76898C12.2758 2.62864 12.1983 2.4395 12.1983 2.24245C12.1983 2.0454 12.2758 1.85626 12.4142 1.71592C12.5525 1.57558 12.7405 1.49531 12.9375 1.49246ZM4.40994 19.1175C4.27548 19.1072 4.15048 19.0444 4.06204 18.9426C3.97361 18.8408 3.92887 18.7082 3.93753 18.5736V3.91128C3.92887 3.7767 3.97361 3.64414 4.06204 3.54234C4.15048 3.44054 4.27548 3.3777 4.40994 3.36745H10.752L9.40725 4.71218C9.27 4.85351 9.19386 5.04318 9.19531 5.24019C9.19675 5.43719 9.27566 5.62572 9.41497 5.76503C9.55428 5.90434 9.74281 5.98323 9.93982 5.98467C10.1368 5.98611 10.3265 5.90997 10.4678 5.77271L11.9699 4.27067C12.4806 4.51092 13.0627 4.55146 13.6017 4.38432C14.1408 4.21718 14.5979 3.85445 14.8831 3.36742L16.2151 3.36745C16.3496 3.37769 16.4746 3.44053 16.563 3.54233C16.6514 3.64414 16.6962 3.7767 16.6875 3.91128V18.5736C16.6962 18.7082 16.6514 18.8408 16.563 18.9426C16.4746 19.0444 16.3496 19.1072 16.2151 19.1175H4.40994ZM20.0625 21.9486C20.0712 22.0832 20.0264 22.2158 19.938 22.3176C19.8496 22.4194 19.7246 22.4822 19.5901 22.4925H7.78494C7.65048 22.4822 7.52548 22.4194 7.43704 22.3176C7.34861 22.2158 7.30387 22.0832 7.31253 21.9486V20.6175H16.2151C16.7475 20.6072 17.254 20.3864 17.6238 20.0032C17.9935 19.6201 18.1962 19.106 18.1875 18.5736V6.74246H19.5901C19.7246 6.75271 19.8496 6.81555 19.938 6.91735C20.0264 7.01915 20.0712 7.15171 20.0625 7.28628V21.9486Z" fill="black"/>
<path d="M14.4376 8.61743H6.18756C5.99053 8.62029 5.80254 8.70057 5.66422 8.84091C5.5259 8.98126 5.44836 9.1704 5.44836 9.36745C5.44837 9.5645 5.52591 9.75363 5.66424 9.89397C5.80257 10.0343 5.99056 10.1146 6.18759 10.1174H14.4376C14.6346 10.1146 14.8226 10.0343 14.9609 9.89396C15.0992 9.75362 15.1768 9.56448 15.1768 9.36743C15.1768 9.17038 15.0992 8.98124 14.9609 8.8409C14.8226 8.70056 14.6346 8.62029 14.4376 8.61743ZM14.4376 12.3674H6.18756C5.99053 12.3703 5.80254 12.4506 5.66422 12.5909C5.5259 12.7313 5.44836 12.9204 5.44836 13.1174C5.44837 13.3145 5.52591 13.5036 5.66424 13.644C5.80257 13.7843 5.99056 13.8646 6.18759 13.8674H14.4376C14.6346 13.8646 14.8226 13.7843 14.9609 13.644C15.0992 13.5036 15.1768 13.3145 15.1768 13.1174C15.1768 12.9204 15.0992 12.7312 14.9609 12.5909C14.8226 12.4506 14.6346 12.3703 14.4376 12.3674ZM14.4376 15.7424C14.2404 15.7452 14.0523 15.8254 13.9139 15.9657C13.7754 16.1061 13.6978 16.2953 13.6978 16.4924C13.6978 16.6896 13.7755 16.8788 13.9139 17.0192C14.0523 17.1595 14.2405 17.2397 14.4376 17.2424C14.6347 17.2397 14.8228 17.1595 14.9613 17.0191C15.0997 16.8788 15.1773 16.6896 15.1773 16.4924C15.1773 16.2953 15.0997 16.1061 14.9612 15.9657C14.8228 15.8254 14.6347 15.7451 14.4376 15.7424ZM11.4376 15.7424C11.2405 15.7453 11.0525 15.8256 10.9142 15.9659C10.7759 16.1063 10.6984 16.2954 10.6984 16.4924C10.6984 16.6895 10.7759 16.8786 10.9142 17.019C11.0526 17.1593 11.2406 17.2396 11.4376 17.2424C11.6346 17.2396 11.8226 17.1593 11.9609 17.0189C12.0993 16.8786 12.1768 16.6895 12.1768 16.4924C12.1768 16.2954 12.0992 16.1062 11.9609 15.9659C11.8226 15.8256 11.6346 15.7453 11.4376 15.7424Z" fill="black"/>
</svg>
