<svg width="16" height="16" viewBox="0 0 16 16" fill="none" xmlns="http://www.w3.org/2000/svg">
<path d="M14.5016 13.7378L12.21 11.4974L12.1563 11.4157C12.0564 11.3163 11.9199 11.2603 11.7773 11.2603C11.6348 11.2603 11.4983 11.3163 11.3984 11.4157C9.45089 13.2024 6.45 13.2995 4.38591 11.6426C2.32181 9.98578 1.83502 7.08907 3.24836 4.87361C4.66171 2.65814 7.53662 1.81139 9.96647 2.89492C12.3963 3.97845 13.6271 6.65602 12.8426 9.15189C12.7861 9.3322 12.8323 9.52828 12.9637 9.66627C13.0952 9.80426 13.292 9.8632 13.4799 9.82089C13.6679 9.77857 13.8185 9.64143 13.875 9.46112C14.8128 6.49926 13.3964 3.31187 10.542 1.96087C7.68757 0.60987 4.2518 1.50071 2.45727 4.05711C0.662751 6.6135 1.04802 10.0683 3.36386 12.1865C5.67969 14.3047 9.23109 14.4508 11.7207 12.5301L13.7497 14.5138C13.9592 14.7178 14.298 14.7178 14.5076 14.5138C14.7169 14.307 14.7169 13.9739 14.5076 13.767L14.5016 13.7378Z" fill="black"/>
</svg>
