<svg width="8" height="11" viewBox="0 0 8 11" fill="none" xmlns="http://www.w3.org/2000/svg">
<path fill-rule="evenodd" clip-rule="evenodd" d="M0.175736 3.84719C0.410051 4.05094 0.78995 4.05094 1.02426 3.84719L4 1.25959L6.97574 3.84719C7.21005 4.05094 7.58995 4.05094 7.82426 3.84719C8.05858 3.64343 8.05858 3.31309 7.82426 3.10934L4.42426 0.152814C4.31174 0.0549687 4.15913 -6.34919e-08 4 -6.34919e-08C3.84087 -6.34919e-08 3.68826 0.0549687 3.57574 0.152814L0.175736 3.10934C-0.0585787 3.31309 -0.0585786 3.64343 0.175736 3.84719Z" fill="#0F172A"/>
<path fill-rule="evenodd" clip-rule="evenodd" d="M0.175736 7.15281C0.410051 6.94906 0.78995 6.94906 1.02426 7.15281L4 9.74041L6.97574 7.15281C7.21005 6.94906 7.58995 6.94906 7.82426 7.15281C8.05858 7.35657 8.05858 7.68691 7.82426 7.89066L4.42426 10.8472C4.31174 10.945 4.15913 11 4 11C3.84087 11 3.68826 10.945 3.57574 10.8472L0.175736 7.89066C-0.0585787 7.68691 -0.0585786 7.35657 0.175736 7.15281Z" fill="#C4C4C4"/>
</svg>
