<svg width="79" height="86" viewBox="0 0 79 86" fill="none" xmlns="http://www.w3.org/2000/svg">
<circle cx="39.5" cy="39.5" r="37.25" stroke="black" stroke-width="4.5"/>
<path d="M59.0992 48.9386L43.6874 40.0406L59.1343 31.1224C60.2558 30.4755 60.6388 29.0427 59.9919 27.9211C59.3449 26.7981 57.9106 26.4151 56.7906 27.0636L41.3075 36.0027V18.125C41.3075 16.831 40.2576 15.7812 38.9637 15.7812C37.6698 15.7812 36.62 16.8311 36.62 18.125V35.9603L21.2101 27.0636C20.0917 26.4151 18.6558 26.7981 18.0088 27.9211C17.3619 29.0427 17.7448 30.4755 18.8664 31.1224L34.3133 40.0406L18.9015 48.9386C17.7799 49.5856 17.3969 51.0184 18.0439 52.1399C18.4773 52.8922 19.2662 53.3118 20.0749 53.3118C20.4731 53.3118 20.8759 53.2111 21.2452 52.9974L36.6199 44.1209V61.875C36.6199 63.169 37.6698 64.2188 38.9637 64.2188C40.2576 64.2188 41.3074 63.1689 41.3074 61.875V44.0787L56.7554 52.9974C57.1247 53.2111 57.5275 53.3118 57.9258 53.3118C58.7345 53.3118 59.5234 52.8922 59.9567 52.1399C60.6037 51.0184 60.2207 49.5856 59.0992 48.9386Z" fill="black"/>
<rect x="47" y="56" width="30" height="30" rx="15" fill="#5DC07C"/>
<path d="M66.7365 66.2206C65.245 67.7718 63.7535 69.3229 62.262 70.889C60.8899 72.3357 59.5028 73.7675 58.1157 75.2143H59.7414C58.6228 74.215 57.5042 73.2157 56.3856 72.2313C55.9232 71.8137 55.2222 71.7689 54.7599 72.2313C54.3423 72.6489 54.2975 73.4394 54.7599 73.857C55.8785 74.8563 56.9971 75.8556 58.1157 76.84C58.5781 77.2576 59.294 77.3023 59.7414 76.84C61.2329 75.2888 62.7244 73.7377 64.2159 72.1716C65.588 70.7249 66.9751 69.2931 68.3622 67.8613C68.7947 67.4138 68.8096 66.683 68.3622 66.2356C67.9147 65.7881 67.169 65.7583 66.7365 66.2206Z" fill="white"/>
</svg>
