<svg width="25" height="24" viewBox="0 0 25 24" fill="none" xmlns="http://www.w3.org/2000/svg">
<path d="M15.9751 9.9375C15.9751 7.86643 14.2962 6.1875 12.2251 6.1875C10.154 6.1875 8.4751 7.86643 8.4751 9.9375C8.4751 12.0086 10.154 13.6875 12.2251 13.6875C14.2962 13.6875 15.9751 12.0086 15.9751 9.9375Z" stroke="white" stroke-width="1.5"/>
<path d="M5.1001 18.2772C5.1001 19.4701 6.06709 20.437 7.25995 20.437H17.1855C18.381 20.437 19.3501 19.4679 19.3501 18.2725C19.3501 16.9459 18.1677 15.9314 16.8565 16.133L14.0172 16.5697C12.7675 16.7619 11.4956 16.7594 10.2466 16.5621L7.59681 16.1438C6.28587 15.9368 5.1001 16.95 5.1001 18.2772Z" stroke="white" stroke-width="1.5" stroke-linejoin="round"/>
<path d="M18.0376 5.8125C17.7214 5.33344 17.258 4.89816 16.6738 4.5315C16.0896 4.16484 15.396 3.87399 14.6327 3.67556C13.8694 3.47713 13.0513 3.375 12.2251 3.375C11.3989 3.375 10.5808 3.47713 9.81749 3.67556C9.05417 3.87399 8.36061 4.16484 7.7764 4.5315C7.19219 4.89816 6.72878 5.33344 6.4126 5.8125" stroke="white" stroke-width="1.5" stroke-linecap="round"/>
<path d="M20.2876 8.8125C20.2876 8.19118 19.7839 7.6875 19.1626 7.6875C18.5413 7.6875 18.0376 8.19118 18.0376 8.8125V10.875C18.0376 11.4963 18.5413 12 19.1626 12C19.7839 12 20.2876 11.4963 20.2876 10.875V8.8125Z" stroke="white" stroke-width="1.5"/>
<path d="M6.4126 8.8125C6.4126 8.19118 5.90892 7.6875 5.2876 7.6875C4.66628 7.6875 4.1626 8.19118 4.1626 8.8125V10.875C4.1626 11.4963 4.66628 12 5.2876 12C5.90892 12 6.4126 11.4963 6.4126 10.875V8.8125Z" stroke="white" stroke-width="1.5"/>
<path d="M19.1626 12C19.1626 13.0355 18.3231 13.875 17.2876 13.875H17.0063" stroke="white" stroke-width="1.5" stroke-linecap="round" stroke-linejoin="round"/>
</svg>
