<svg width="24" height="24" viewBox="0 0 24 24" fill="none" xmlns="http://www.w3.org/2000/svg">
<path d="M7.4 16.6C8.1732 16.6 8.8 15.9732 8.8 15.2C8.8 15.079 8.7799 14.9637 8.751 14.8517L10.5722 11.664L13.7607 13.4861C13.9293 14.0702 14.4617 14.5 15.1 14.5C15.8732 14.5 16.5 13.8732 16.5 13.1C16.5 12.9729 16.4776 12.8521 16.4459 12.735L19.0019 8.13439C19.5778 7.96079 20 7.43249 20 6.79999C20 6.02679 19.3732 5.39999 18.6 5.39999C17.8268 5.39999 17.2 6.02679 17.2 6.79999C17.2 6.92659 17.2222 7.04699 17.2537 7.16359L14.7168 11.7295L11.5391 9.91329C11.3705 9.32949 10.8381 8.89999 10.2 8.89999C9.4268 8.89999 8.8 9.52679 8.8 10.3C8.8 10.4212 8.8203 10.5368 8.8492 10.6489L7.0142 13.8606C6.43 14.029 6 14.5616 6 15.2C6 15.9732 6.6268 16.6 7.4 16.6Z" fill="#5454BB"/>
<path d="M21 18H4V5C4 4.4473 3.5527 4 3 4C2.4473 4 2 4.4473 2 5V19C2 19.5527 2.4473 20 3 20H21C21.5527 20 22 19.5527 22 19C22 18.4473 21.5527 18 21 18Z" fill="#5454BB"/>
</svg>
