<svg width="16" height="16" viewBox="0 0 16 16" fill="none" xmlns="http://www.w3.org/2000/svg">
<path d="M14.0005 4.48633C13.9871 4.48633 13.9671 4.48633 13.9471 4.48633C10.4205 4.13299 6.90045 3.99966 3.41377 4.35299L2.05377 4.48633C1.77377 4.51299 1.5271 4.31299 1.50043 4.03299C1.47377 3.75299 1.67377 3.51299 1.9471 3.48633L3.3071 3.35299C6.85379 2.99299 10.4471 3.13299 14.0471 3.48633C14.3205 3.51299 14.5205 3.75966 14.4938 4.03299C14.4738 4.29299 14.2538 4.48633 14.0005 4.48633Z" fill="#F90000"/>
<path d="M5.66749 3.81301C5.64082 3.81301 5.61415 3.81301 5.58082 3.80634C5.31415 3.75967 5.12749 3.49967 5.17415 3.23301L5.32082 2.35967C5.42749 1.71967 5.57415 0.833008 7.12746 0.833008H8.87413C10.4341 0.833008 10.5808 1.75301 10.6808 2.36634L10.8275 3.23301C10.8741 3.50634 10.6875 3.76634 10.4208 3.80634C10.1475 3.85301 9.88746 3.66634 9.84746 3.39967L9.70079 2.53301C9.60746 1.95301 9.58746 1.83967 8.88079 1.83967H7.13413C6.42749 1.83967 6.41415 1.93301 6.31415 2.52634L6.16082 3.39301C6.12082 3.63967 5.90749 3.81301 5.66749 3.81301Z" fill="#F90000"/>
<path d="M10.1416 15.1667H5.86156C3.53489 15.1667 3.44156 13.8801 3.36823 12.8401L2.93489 6.12671C2.91489 5.85338 3.12823 5.61338 3.40156 5.59338C3.68156 5.58005 3.91489 5.78672 3.93489 6.06005L4.36823 12.7734C4.44156 13.7867 4.46823 14.1667 5.86156 14.1667H10.1416C11.5416 14.1667 11.5682 13.7867 11.6349 12.7734L12.0682 6.06005C12.0882 5.78672 12.3282 5.58005 12.6016 5.59338C12.8749 5.61338 13.0882 5.84671 13.0682 6.12671L12.6349 12.8401C12.5616 13.8801 12.4682 15.1667 10.1416 15.1667Z" fill="#F90000"/>
<path d="M9.10673 11.5H6.88673C6.61339 11.5 6.38672 11.2733 6.38672 11C6.38672 10.7267 6.61339 10.5 6.88673 10.5H9.10673C9.38007 10.5 9.60673 10.7267 9.60673 11C9.60673 11.2733 9.38007 11.5 9.10673 11.5Z" fill="#F90000"/>
<path d="M9.66732 8.83301H6.33398C6.06065 8.83301 5.83398 8.60634 5.83398 8.33301C5.83398 8.05967 6.06065 7.83301 6.33398 7.83301H9.66732C9.94065 7.83301 10.1673 8.05967 10.1673 8.33301C10.1673 8.60634 9.94065 8.83301 9.66732 8.83301Z" fill="#F90000"/>
</svg>
