<svg width="1132" height="163" viewBox="0 0 1132 163" fill="none" xmlns="http://www.w3.org/2000/svg">
<rect width="1132" height="163" rx="16" fill="#F3F3F3"/>
<rect x="0.5" y="0.5" width="1131" height="162" rx="15.5" stroke="#3D3D3D" stroke-opacity="0.3" stroke-dasharray="5 5"/>
<path d="M578.21 26.7012C578.697 26.7012 579.092 27.0963 579.092 27.583C579.092 28.0699 578.697 28.4648 578.21 28.4648C574.098 28.4649 570.407 31.2157 569.235 35.1523C569.107 35.5864 568.672 35.848 568.234 35.7686L568.23 35.7734L568.139 35.7461C567.672 35.607 567.406 35.1162 567.545 34.6494L567.682 34.2236C569.175 29.8599 573.314 26.7013 578.21 26.7012Z" fill="black" stroke="#F9FFF9" stroke-width="0.3"/>
<path d="M588.453 63.4384H584.063C583.659 63.4384 583.331 63.1107 583.331 62.7067C583.331 62.3027 583.659 61.9749 584.063 61.9749H588.453C594.505 61.9749 599.429 57.0509 599.429 50.999C599.429 44.9471 594.505 40.023 588.453 40.023H588.348C588.135 40.023 587.934 39.9311 587.795 39.7706C587.656 39.6101 587.593 39.3974 587.623 39.1873C587.688 38.7315 587.721 38.2737 587.721 37.8279C587.721 32.5829 583.454 28.3153 578.209 28.3153C576.168 28.3153 574.222 28.953 572.581 30.1598C572.221 30.4248 571.708 30.3072 571.5 29.9105C566.852 21.0597 554.712 19.8711 548.418 27.5705C545.766 30.8142 544.724 35.0336 545.559 39.146C545.651 39.6002 545.304 40.0236 544.842 40.0236H544.549C538.497 40.0236 533.573 44.9477 533.573 50.9996C533.573 57.0514 538.497 61.9755 544.549 61.9755H548.939C549.343 61.9755 549.671 62.3032 549.671 62.7072C549.671 63.1113 549.343 63.439 548.939 63.439H544.549C537.69 63.439 532.109 57.8585 532.109 50.9995C532.109 44.3329 537.381 38.8742 543.974 38.5731C543.355 34.3066 544.539 30.0029 547.284 26.6444C554.023 18.4004 566.937 19.3244 572.396 28.5171C574.138 27.4252 576.131 26.8524 578.209 26.8524C584.563 26.8524 589.599 32.261 589.158 38.58C595.691 38.9463 600.892 44.3763 600.892 50.999C600.892 57.8585 595.312 63.4384 588.453 63.4384L588.453 63.4384Z" fill="black"/>
<path d="M566.403 43.8496C576.573 43.8499 584.847 52.1242 584.847 62.2939C584.846 72.4634 576.573 80.7371 566.403 80.7373C556.234 80.7373 547.959 72.4637 547.959 62.2939C547.959 52.1241 556.233 43.8496 566.403 43.8496ZM566.403 45.6143C557.206 45.6143 549.724 53.097 549.724 62.2939C549.724 71.4908 557.207 78.9736 566.403 78.9736C575.6 78.9734 583.083 71.4905 583.083 62.2939C583.083 53.0971 575.6 45.6145 566.403 45.6143Z" fill="black" stroke="#F9FFF9" stroke-width="0.3"/>
<path d="M566.737 55.043C567.116 55.0432 567.423 55.351 567.423 55.7295V69.6572C567.423 70.0362 567.116 70.3435 566.737 70.3438C566.359 70.3438 566.051 70.0359 566.051 69.6572V55.7295C566.051 55.3509 566.359 55.043 566.737 55.043Z" fill="black" stroke="black" stroke-width="0.3"/>
<path d="M566.36 55.1577C566.626 54.9821 566.988 55.0114 567.223 55.2456L571.508 59.5317L571.596 59.6392C571.771 59.9054 571.742 60.2671 571.508 60.5015L571.507 60.5005C571.407 60.601 571.284 60.6649 571.154 60.6899L571.023 60.7017C570.892 60.7017 570.76 60.6647 570.646 60.5894L570.538 60.5015L566.737 56.6997L562.937 60.5015C562.702 60.7357 562.34 60.7651 562.074 60.5894L561.967 60.5015C561.699 60.2337 561.699 59.7996 561.967 59.5317L566.253 55.2456L566.36 55.1577Z" fill="black" stroke="black" stroke-width="0.3"/>
<path d="M466.558 110.887H462.433V99.2504H466.592C467.763 99.2504 468.77 99.4833 469.615 99.9492C470.46 100.411 471.109 101.076 471.564 101.944C472.022 102.811 472.251 103.849 472.251 105.057C472.251 106.269 472.022 107.311 471.564 108.182C471.109 109.053 470.456 109.722 469.604 110.188C468.755 110.654 467.74 110.887 466.558 110.887ZM464.893 108.779H466.456C467.183 108.779 467.795 108.65 468.291 108.392C468.791 108.131 469.166 107.728 469.416 107.182C469.67 106.633 469.797 105.925 469.797 105.057C469.797 104.197 469.67 103.495 469.416 102.949C469.166 102.404 468.793 102.002 468.297 101.745C467.801 101.487 467.189 101.358 466.462 101.358H464.893V108.779ZM474.028 110.887V102.159H476.375V103.682H476.466C476.625 103.141 476.892 102.731 477.267 102.455C477.642 102.175 478.074 102.034 478.562 102.034C478.684 102.034 478.814 102.042 478.955 102.057C479.095 102.072 479.218 102.093 479.324 102.12V104.267C479.21 104.233 479.053 104.203 478.852 104.176C478.652 104.15 478.468 104.137 478.301 104.137C477.945 104.137 477.627 104.214 477.347 104.37C477.07 104.521 476.85 104.733 476.688 105.006C476.528 105.279 476.449 105.593 476.449 105.949V110.887H474.028ZM482.814 111.051C482.257 111.051 481.761 110.955 481.325 110.762C480.89 110.565 480.545 110.275 480.291 109.892C480.041 109.506 479.916 109.025 479.916 108.449C479.916 107.964 480.005 107.557 480.183 107.228C480.361 106.898 480.604 106.633 480.911 106.432C481.217 106.231 481.566 106.08 481.956 105.978C482.35 105.875 482.763 105.803 483.195 105.762C483.702 105.709 484.111 105.659 484.422 105.614C484.732 105.565 484.958 105.493 485.098 105.398C485.238 105.303 485.308 105.163 485.308 104.978V104.944C485.308 104.584 485.195 104.305 484.967 104.108C484.744 103.911 484.426 103.813 484.013 103.813C483.577 103.813 483.231 103.909 482.973 104.103C482.715 104.292 482.545 104.531 482.462 104.819L480.223 104.637C480.337 104.106 480.56 103.648 480.893 103.262C481.227 102.872 481.657 102.572 482.183 102.364C482.714 102.152 483.327 102.046 484.024 102.046C484.509 102.046 484.973 102.103 485.416 102.216C485.863 102.33 486.259 102.506 486.604 102.745C486.952 102.983 487.227 103.29 487.428 103.665C487.628 104.036 487.729 104.481 487.729 105V110.887H485.433V109.676H485.365C485.225 109.949 485.037 110.19 484.803 110.398C484.568 110.603 484.286 110.764 483.956 110.881C483.626 110.995 483.246 111.051 482.814 111.051ZM483.507 109.381C483.863 109.381 484.178 109.311 484.45 109.171C484.723 109.027 484.937 108.834 485.092 108.591C485.248 108.349 485.325 108.074 485.325 107.767V106.841C485.25 106.891 485.145 106.936 485.013 106.978C484.884 107.016 484.738 107.051 484.575 107.086C484.412 107.116 484.25 107.144 484.087 107.171C483.924 107.194 483.776 107.214 483.643 107.233C483.359 107.275 483.111 107.341 482.899 107.432C482.687 107.523 482.522 107.646 482.405 107.801C482.287 107.953 482.229 108.142 482.229 108.37C482.229 108.699 482.348 108.951 482.587 109.125C482.829 109.296 483.136 109.381 483.507 109.381ZM493.538 114.341C492.754 114.341 492.082 114.233 491.521 114.017C490.964 113.805 490.521 113.516 490.192 113.148C489.862 112.781 489.648 112.368 489.55 111.909L491.788 111.608C491.857 111.783 491.964 111.945 492.112 112.097C492.26 112.248 492.455 112.37 492.697 112.461C492.944 112.555 493.243 112.603 493.595 112.603C494.122 112.603 494.555 112.474 494.896 112.216C495.241 111.962 495.413 111.536 495.413 110.938V109.341H495.311C495.205 109.584 495.046 109.813 494.834 110.029C494.622 110.245 494.349 110.421 494.016 110.557C493.682 110.694 493.285 110.762 492.822 110.762C492.167 110.762 491.571 110.61 491.033 110.307C490.499 110 490.072 109.533 489.754 108.904C489.44 108.271 489.283 107.472 489.283 106.506C489.283 105.517 489.444 104.692 489.766 104.029C490.088 103.366 490.516 102.87 491.05 102.54C491.588 102.211 492.177 102.046 492.817 102.046C493.305 102.046 493.714 102.129 494.044 102.296C494.374 102.459 494.639 102.663 494.839 102.909C495.044 103.152 495.201 103.391 495.311 103.625H495.402V102.159H497.805V110.972C497.805 111.714 497.624 112.336 497.26 112.836C496.896 113.336 496.393 113.711 495.749 113.961C495.108 114.214 494.372 114.341 493.538 114.341ZM493.589 108.944C493.98 108.944 494.309 108.847 494.578 108.654C494.851 108.457 495.059 108.176 495.203 107.813C495.351 107.445 495.425 107.006 495.425 106.495C495.425 105.983 495.353 105.54 495.209 105.165C495.065 104.786 494.857 104.493 494.584 104.284C494.311 104.076 493.98 103.972 493.589 103.972C493.192 103.972 492.857 104.08 492.584 104.296C492.311 104.508 492.105 104.803 491.964 105.182C491.824 105.561 491.754 105.998 491.754 106.495C491.754 106.998 491.824 107.434 491.964 107.801C492.108 108.165 492.315 108.447 492.584 108.648C492.857 108.845 493.192 108.944 493.589 108.944ZM507.003 111.057C506.2 111.057 505.507 110.913 504.923 110.625C504.34 110.337 503.891 109.947 503.577 109.455C503.266 108.959 503.111 108.406 503.111 107.796C503.111 107.341 503.202 106.938 503.384 106.586C503.565 106.233 503.819 105.909 504.145 105.614C504.471 105.315 504.849 105.017 505.281 104.722L507.537 103.239C507.829 103.053 508.043 102.858 508.179 102.654C508.315 102.445 508.384 102.22 508.384 101.978C508.384 101.747 508.291 101.533 508.105 101.336C507.92 101.139 507.656 101.042 507.315 101.046C507.088 101.046 506.891 101.097 506.724 101.199C506.558 101.298 506.427 101.428 506.332 101.591C506.241 101.75 506.196 101.928 506.196 102.125C506.196 102.368 506.264 102.614 506.401 102.864C506.537 103.114 506.719 103.379 506.946 103.659C507.173 103.936 507.421 104.235 507.69 104.557L513.207 110.887H510.685L506.082 105.762C505.779 105.417 505.476 105.057 505.173 104.682C504.874 104.303 504.624 103.902 504.423 103.478C504.223 103.05 504.122 102.586 504.122 102.086C504.122 101.521 504.253 101.014 504.514 100.563C504.779 100.112 505.151 99.756 505.628 99.4947C506.105 99.2295 506.662 99.0969 507.298 99.0969C507.92 99.0969 508.455 99.2238 508.906 99.4776C509.361 99.7276 509.709 100.061 509.952 100.478C510.198 100.891 510.321 101.345 510.321 101.841C510.321 102.391 510.185 102.889 509.912 103.336C509.643 103.779 509.264 104.176 508.776 104.529L506.401 106.239C506.079 106.474 505.84 106.714 505.685 106.961C505.533 107.203 505.457 107.436 505.457 107.659C505.457 107.936 505.526 108.184 505.662 108.404C505.798 108.623 505.991 108.798 506.241 108.926C506.491 109.051 506.785 109.114 507.122 109.114C507.531 109.114 507.935 109.021 508.332 108.836C508.734 108.646 509.098 108.379 509.423 108.034C509.753 107.686 510.016 107.273 510.213 106.796C510.41 106.319 510.509 105.79 510.509 105.211H512.514C512.514 105.923 512.437 106.565 512.281 107.137C512.126 107.705 511.91 108.201 511.634 108.625C511.357 109.046 511.041 109.391 510.685 109.659C510.571 109.731 510.461 109.8 510.355 109.864C510.249 109.928 510.139 109.997 510.026 110.069C509.594 110.417 509.111 110.669 508.577 110.824C508.046 110.98 507.522 111.057 507.003 111.057ZM521.135 111.029C520.472 111.029 519.872 110.858 519.334 110.517C518.8 110.173 518.375 109.667 518.061 109C517.75 108.33 517.595 107.508 517.595 106.534C517.595 105.534 517.756 104.703 518.078 104.04C518.4 103.373 518.828 102.875 519.362 102.546C519.9 102.212 520.489 102.046 521.129 102.046C521.618 102.046 522.025 102.129 522.351 102.296C522.68 102.459 522.946 102.663 523.146 102.909C523.351 103.152 523.506 103.391 523.612 103.625H523.686V99.2504H526.101V110.887H523.714V109.489H523.612C523.499 109.731 523.338 109.972 523.129 110.211C522.925 110.445 522.658 110.641 522.328 110.796C522.002 110.951 521.605 111.029 521.135 111.029ZM521.902 109.103C522.292 109.103 522.622 108.997 522.891 108.784C523.163 108.569 523.372 108.267 523.516 107.881C523.663 107.495 523.737 107.042 523.737 106.523C523.737 106.004 523.665 105.553 523.521 105.171C523.377 104.788 523.169 104.493 522.896 104.284C522.624 104.076 522.292 103.972 521.902 103.972C521.504 103.972 521.169 104.08 520.896 104.296C520.624 104.512 520.417 104.811 520.277 105.194C520.137 105.576 520.067 106.019 520.067 106.523C520.067 107.031 520.137 107.48 520.277 107.87C520.421 108.256 520.627 108.559 520.896 108.779C521.169 108.995 521.504 109.103 521.902 109.103ZM528.091 110.887V102.159H530.438V103.682H530.528C530.688 103.141 530.955 102.731 531.33 102.455C531.705 102.175 532.136 102.034 532.625 102.034C532.746 102.034 532.877 102.042 533.017 102.057C533.157 102.072 533.28 102.093 533.386 102.12V104.267C533.273 104.233 533.116 104.203 532.915 104.176C532.714 104.15 532.53 104.137 532.364 104.137C532.008 104.137 531.689 104.214 531.409 104.37C531.133 104.521 530.913 104.733 530.75 105.006C530.591 105.279 530.511 105.593 530.511 105.949V110.887H528.091ZM538.175 111.057C537.292 111.057 536.529 110.87 535.885 110.495C535.245 110.116 534.75 109.589 534.402 108.915C534.054 108.237 533.879 107.451 533.879 106.557C533.879 105.656 534.054 104.868 534.402 104.194C534.75 103.516 535.245 102.989 535.885 102.614C536.529 102.235 537.292 102.046 538.175 102.046C539.057 102.046 539.819 102.235 540.459 102.614C541.103 102.989 541.599 103.516 541.947 104.194C542.296 104.868 542.47 105.656 542.47 106.557C542.47 107.451 542.296 108.237 541.947 108.915C541.599 109.589 541.103 110.116 540.459 110.495C539.819 110.87 539.057 111.057 538.175 111.057ZM538.186 109.182C538.588 109.182 538.923 109.069 539.192 108.841C539.461 108.61 539.663 108.296 539.8 107.898C539.94 107.5 540.01 107.048 540.01 106.54C540.01 106.033 539.94 105.58 539.8 105.182C539.663 104.784 539.461 104.47 539.192 104.239C538.923 104.008 538.588 103.892 538.186 103.892C537.781 103.892 537.44 104.008 537.163 104.239C536.891 104.47 536.684 104.784 536.544 105.182C536.408 105.58 536.339 106.033 536.339 106.54C536.339 107.048 536.408 107.5 536.544 107.898C536.684 108.296 536.891 108.61 537.163 108.841C537.44 109.069 537.781 109.182 538.186 109.182ZM544.044 114.159V102.159H546.43V103.625H546.538C546.644 103.391 546.798 103.152 546.999 102.909C547.203 102.663 547.468 102.459 547.794 102.296C548.124 102.129 548.533 102.046 549.021 102.046C549.658 102.046 550.245 102.212 550.783 102.546C551.321 102.875 551.75 103.373 552.072 104.04C552.394 104.703 552.555 105.534 552.555 106.534C552.555 107.508 552.398 108.33 552.084 109C551.773 109.667 551.349 110.173 550.811 110.517C550.277 110.858 549.679 111.029 549.016 111.029C548.546 111.029 548.146 110.951 547.817 110.796C547.491 110.641 547.224 110.445 547.016 110.211C546.807 109.972 546.648 109.731 546.538 109.489H546.464V114.159H544.044ZM546.413 106.523C546.413 107.042 546.485 107.495 546.629 107.881C546.773 108.267 546.982 108.569 547.254 108.784C547.527 108.997 547.858 109.103 548.249 109.103C548.643 109.103 548.976 108.995 549.249 108.779C549.521 108.559 549.728 108.256 549.868 107.87C550.012 107.48 550.084 107.031 550.084 106.523C550.084 106.019 550.014 105.576 549.874 105.194C549.733 104.811 549.527 104.512 549.254 104.296C548.982 104.08 548.646 103.972 548.249 103.972C547.855 103.972 547.521 104.076 547.249 104.284C546.98 104.493 546.773 104.788 546.629 105.171C546.485 105.553 546.413 106.004 546.413 106.523ZM562.565 102.159V103.978H557.179V102.159H562.565ZM558.412 110.887V101.529C558.412 100.896 558.535 100.372 558.781 99.9549C559.031 99.5382 559.372 99.2257 559.804 99.0174C560.236 98.8091 560.726 98.7049 561.276 98.7049C561.647 98.7049 561.986 98.7333 562.293 98.7901C562.603 98.8469 562.834 98.8981 562.986 98.9435L562.554 100.762C562.459 100.731 562.342 100.703 562.202 100.676C562.065 100.65 561.925 100.637 561.781 100.637C561.425 100.637 561.177 100.72 561.037 100.887C560.897 101.05 560.827 101.279 560.827 101.574V110.887H558.412ZM564.044 110.887V102.159H566.464V110.887H564.044ZM565.26 101.034C564.9 101.034 564.591 100.915 564.334 100.676C564.08 100.434 563.953 100.144 563.953 99.8072C563.953 99.4738 564.08 99.1879 564.334 98.9492C564.591 98.7068 564.9 98.5856 565.26 98.5856C565.62 98.5856 565.927 98.7068 566.18 98.9492C566.438 99.1879 566.567 99.4738 566.567 99.8072C566.567 100.144 566.438 100.434 566.18 100.676C565.927 100.915 565.62 101.034 565.26 101.034ZM570.824 99.2504V110.887H568.403V99.2504H570.824ZM576.74 111.057C575.842 111.057 575.07 110.875 574.422 110.512C573.778 110.144 573.282 109.625 572.933 108.955C572.585 108.281 572.411 107.483 572.411 106.563C572.411 105.665 572.585 104.877 572.933 104.199C573.282 103.521 573.772 102.993 574.405 102.614C575.041 102.235 575.787 102.046 576.643 102.046C577.219 102.046 577.755 102.139 578.251 102.324C578.751 102.506 579.187 102.781 579.558 103.148C579.933 103.516 580.225 103.978 580.433 104.534C580.642 105.087 580.746 105.735 580.746 106.478V107.142H573.376V105.642H578.467C578.467 105.294 578.392 104.985 578.24 104.716C578.089 104.447 577.878 104.237 577.609 104.086C577.344 103.93 577.036 103.853 576.683 103.853C576.316 103.853 575.99 103.938 575.706 104.108C575.426 104.275 575.206 104.5 575.047 104.784C574.888 105.065 574.806 105.377 574.803 105.722V107.148C574.803 107.58 574.882 107.953 575.041 108.267C575.204 108.582 575.433 108.824 575.729 108.995C576.024 109.165 576.375 109.25 576.78 109.25C577.049 109.25 577.295 109.212 577.518 109.137C577.742 109.061 577.933 108.947 578.092 108.796C578.251 108.644 578.373 108.459 578.456 108.239L580.695 108.387C580.581 108.925 580.348 109.394 579.996 109.796C579.647 110.194 579.196 110.504 578.643 110.728C578.094 110.947 577.46 111.057 576.74 111.057ZM589.587 104.648L587.371 104.784C587.333 104.595 587.251 104.425 587.126 104.273C587.001 104.118 586.837 103.995 586.632 103.904C586.431 103.809 586.191 103.762 585.911 103.762C585.536 103.762 585.219 103.841 584.962 104C584.704 104.156 584.575 104.364 584.575 104.625C584.575 104.834 584.659 105.01 584.825 105.154C584.992 105.298 585.278 105.413 585.683 105.5L587.263 105.819C588.111 105.993 588.744 106.273 589.161 106.659C589.577 107.046 589.786 107.553 589.786 108.182C589.786 108.754 589.617 109.256 589.28 109.688C588.946 110.12 588.488 110.457 587.905 110.699C587.325 110.938 586.657 111.057 585.899 111.057C584.744 111.057 583.823 110.817 583.138 110.336C582.456 109.851 582.056 109.192 581.939 108.358L584.32 108.233C584.392 108.586 584.566 108.855 584.842 109.04C585.119 109.222 585.473 109.313 585.905 109.313C586.329 109.313 586.67 109.231 586.928 109.069C587.189 108.902 587.321 108.688 587.325 108.426C587.321 108.207 587.229 108.027 587.047 107.887C586.865 107.743 586.585 107.633 586.206 107.557L584.695 107.256C583.842 107.086 583.208 106.79 582.791 106.37C582.378 105.949 582.172 105.413 582.172 104.762C582.172 104.201 582.323 103.718 582.626 103.313C582.933 102.908 583.363 102.595 583.916 102.375C584.473 102.156 585.125 102.046 585.871 102.046C586.973 102.046 587.84 102.279 588.473 102.745C589.109 103.211 589.481 103.845 589.587 104.648ZM598.956 111.057C598.073 111.057 597.31 110.87 596.666 110.495C596.026 110.116 595.532 109.589 595.183 108.915C594.835 108.237 594.661 107.451 594.661 106.557C594.661 105.656 594.835 104.868 595.183 104.194C595.532 103.516 596.026 102.989 596.666 102.614C597.31 102.235 598.073 102.046 598.956 102.046C599.839 102.046 600.6 102.235 601.24 102.614C601.884 102.989 602.38 103.516 602.729 104.194C603.077 104.868 603.251 105.656 603.251 106.557C603.251 107.451 603.077 108.237 602.729 108.915C602.38 109.589 601.884 110.116 601.24 110.495C600.6 110.87 599.839 111.057 598.956 111.057ZM598.967 109.182C599.369 109.182 599.704 109.069 599.973 108.841C600.242 108.61 600.445 108.296 600.581 107.898C600.721 107.5 600.791 107.048 600.791 106.54C600.791 106.033 600.721 105.58 600.581 105.182C600.445 104.784 600.242 104.47 599.973 104.239C599.704 104.008 599.369 103.892 598.967 103.892C598.562 103.892 598.221 104.008 597.945 104.239C597.672 104.47 597.465 104.784 597.325 105.182C597.189 105.58 597.121 106.033 597.121 106.54C597.121 107.048 597.189 107.5 597.325 107.898C597.465 108.296 597.672 108.61 597.945 108.841C598.221 109.069 598.562 109.182 598.967 109.182ZM604.825 110.887V102.159H607.172V103.682H607.263C607.422 103.141 607.689 102.731 608.064 102.455C608.439 102.175 608.871 102.034 609.359 102.034C609.481 102.034 609.611 102.042 609.751 102.057C609.892 102.072 610.015 102.093 610.121 102.12V104.267C610.007 104.233 609.85 104.203 609.649 104.176C609.448 104.15 609.265 104.137 609.098 104.137C608.742 104.137 608.424 104.214 608.143 104.37C607.867 104.521 607.647 104.733 607.484 105.006C607.325 105.279 607.246 105.593 607.246 105.949V110.887H604.825Z" fill="#4E4E4E"/>
<path d="M615.121 110.887V99.2504H619.78C620.636 99.2504 621.35 99.3772 621.922 99.631C622.494 99.8848 622.924 100.237 623.212 100.688C623.5 101.135 623.643 101.65 623.643 102.233C623.643 102.688 623.553 103.087 623.371 103.432C623.189 103.773 622.939 104.053 622.621 104.273C622.306 104.489 621.946 104.642 621.541 104.733V104.847C621.984 104.866 622.399 104.991 622.786 105.222C623.176 105.453 623.492 105.777 623.734 106.194C623.977 106.606 624.098 107.099 624.098 107.671C624.098 108.288 623.945 108.839 623.638 109.324C623.335 109.805 622.886 110.186 622.291 110.466C621.696 110.747 620.964 110.887 620.092 110.887H615.121ZM617.581 108.875H619.587C620.272 108.875 620.772 108.745 621.087 108.483C621.401 108.218 621.558 107.866 621.558 107.426C621.558 107.105 621.481 106.82 621.325 106.574C621.17 106.328 620.948 106.135 620.661 105.995C620.376 105.855 620.037 105.784 619.643 105.784H617.581V108.875ZM617.581 104.12H619.405C619.742 104.12 620.041 104.061 620.303 103.944C620.568 103.822 620.776 103.652 620.928 103.432C621.083 103.212 621.161 102.949 621.161 102.642C621.161 102.222 621.011 101.883 620.712 101.625C620.416 101.368 619.996 101.239 619.45 101.239H617.581V104.12ZM625.653 110.887V102.159H628V103.682H628.091C628.25 103.141 628.517 102.731 628.892 102.455C629.267 102.175 629.699 102.034 630.188 102.034C630.309 102.034 630.439 102.042 630.58 102.057C630.72 102.072 630.843 102.093 630.949 102.12V104.267C630.835 104.233 630.678 104.203 630.477 104.176C630.277 104.15 630.093 104.137 629.926 104.137C629.57 104.137 629.252 104.214 628.972 104.37C628.695 104.521 628.475 104.733 628.312 105.006C628.153 105.279 628.074 105.593 628.074 105.949V110.887H625.653ZM635.737 111.057C634.855 111.057 634.091 110.87 633.447 110.495C632.807 110.116 632.313 109.589 631.964 108.915C631.616 108.237 631.442 107.451 631.442 106.557C631.442 105.656 631.616 104.868 631.964 104.194C632.313 103.516 632.807 102.989 633.447 102.614C634.091 102.235 634.855 102.046 635.737 102.046C636.62 102.046 637.381 102.235 638.021 102.614C638.665 102.989 639.161 103.516 639.51 104.194C639.858 104.868 640.033 105.656 640.033 106.557C640.033 107.451 639.858 108.237 639.51 108.915C639.161 109.589 638.665 110.116 638.021 110.495C637.381 110.87 636.62 111.057 635.737 111.057ZM635.749 109.182C636.15 109.182 636.485 109.069 636.754 108.841C637.023 108.61 637.226 108.296 637.362 107.898C637.502 107.5 637.572 107.048 637.572 106.54C637.572 106.033 637.502 105.58 637.362 105.182C637.226 104.784 637.023 104.47 636.754 104.239C636.485 104.008 636.15 103.892 635.749 103.892C635.343 103.892 635.002 104.008 634.726 104.239C634.453 104.47 634.247 104.784 634.107 105.182C633.97 105.58 633.902 106.033 633.902 106.54C633.902 107.048 633.97 107.5 634.107 107.898C634.247 108.296 634.453 108.61 634.726 108.841C635.002 109.069 635.343 109.182 635.749 109.182ZM643.109 110.887L640.734 102.159H643.183L644.536 108.023H644.615L646.024 102.159H648.428L649.859 107.989H649.933L651.263 102.159H653.706L651.337 110.887H648.774L647.274 105.398H647.166L645.666 110.887H643.109ZM662.259 104.648L660.043 104.784C660.005 104.595 659.923 104.425 659.798 104.273C659.673 104.118 659.509 103.995 659.304 103.904C659.103 103.809 658.863 103.762 658.582 103.762C658.207 103.762 657.891 103.841 657.634 104C657.376 104.156 657.247 104.364 657.247 104.625C657.247 104.834 657.33 105.01 657.497 105.154C657.664 105.298 657.95 105.413 658.355 105.5L659.935 105.819C660.783 105.993 661.416 106.273 661.832 106.659C662.249 107.046 662.457 107.553 662.457 108.182C662.457 108.754 662.289 109.256 661.952 109.688C661.618 110.12 661.16 110.457 660.577 110.699C659.997 110.938 659.329 111.057 658.571 111.057C657.416 111.057 656.495 110.817 655.81 110.336C655.128 109.851 654.728 109.192 654.611 108.358L656.991 108.233C657.063 108.586 657.238 108.855 657.514 109.04C657.791 109.222 658.145 109.313 658.577 109.313C659.001 109.313 659.342 109.231 659.599 109.069C659.861 108.902 659.993 108.688 659.997 108.426C659.993 108.207 659.901 108.027 659.719 107.887C659.537 107.743 659.257 107.633 658.878 107.557L657.366 107.256C656.514 107.086 655.88 106.79 655.463 106.37C655.05 105.949 654.844 105.413 654.844 104.762C654.844 104.201 654.995 103.718 655.298 103.313C655.605 102.908 656.035 102.595 656.588 102.375C657.145 102.156 657.796 102.046 658.543 102.046C659.645 102.046 660.512 102.279 661.145 102.745C661.781 103.211 662.152 103.845 662.259 104.648ZM667.959 111.057C667.061 111.057 666.288 110.875 665.641 110.512C664.997 110.144 664.5 109.625 664.152 108.955C663.804 108.281 663.629 107.483 663.629 106.563C663.629 105.665 663.804 104.877 664.152 104.199C664.5 103.521 664.991 102.993 665.624 102.614C666.26 102.235 667.006 102.046 667.862 102.046C668.438 102.046 668.974 102.139 669.47 102.324C669.97 102.506 670.406 102.781 670.777 103.148C671.152 103.516 671.444 103.978 671.652 104.534C671.86 105.087 671.964 105.735 671.964 106.478V107.142H664.595V105.642H669.686C669.686 105.294 669.61 104.985 669.459 104.716C669.307 104.447 669.097 104.237 668.828 104.086C668.563 103.93 668.254 103.853 667.902 103.853C667.535 103.853 667.209 103.938 666.925 104.108C666.644 104.275 666.425 104.5 666.266 104.784C666.107 105.065 666.025 105.377 666.021 105.722V107.148C666.021 107.58 666.101 107.953 666.26 108.267C666.423 108.582 666.652 108.824 666.947 108.995C667.243 109.165 667.593 109.25 667.999 109.25C668.268 109.25 668.514 109.212 668.737 109.137C668.961 109.061 669.152 108.947 669.311 108.796C669.47 108.644 669.591 108.459 669.675 108.239L671.913 108.387C671.8 108.925 671.567 109.394 671.214 109.796C670.866 110.194 670.415 110.504 669.862 110.728C669.313 110.947 668.679 111.057 667.959 111.057Z" fill="black"/>
<path d="M614.109 114.069H672.578V115.159H614.109V114.069Z" fill="black"/>
<path d="M461.693 130.096C461.638 129.628 461.413 129.265 461.019 129.007C460.625 128.748 460.142 128.619 459.57 128.619C459.151 128.619 458.785 128.687 458.471 128.822C458.16 128.957 457.917 129.144 457.742 129.381C457.569 129.618 457.483 129.887 457.483 130.188C457.483 130.441 457.543 130.658 457.663 130.839C457.786 131.018 457.943 131.167 458.134 131.287C458.325 131.404 458.525 131.501 458.734 131.578C458.943 131.652 459.136 131.712 459.311 131.758L460.271 132.017C460.518 132.081 460.792 132.17 461.093 132.284C461.398 132.398 461.689 132.554 461.966 132.751C462.246 132.944 462.477 133.194 462.658 133.498C462.84 133.803 462.93 134.177 462.93 134.62C462.93 135.131 462.797 135.593 462.529 136.005C462.264 136.418 461.876 136.745 461.366 136.989C460.858 137.232 460.241 137.353 459.514 137.353C458.837 137.353 458.251 137.244 457.755 137.025C457.263 136.807 456.875 136.502 456.592 136.111C456.312 135.721 456.153 135.267 456.117 134.75H457.298C457.329 135.107 457.449 135.402 457.658 135.636C457.871 135.867 458.139 136.039 458.462 136.153C458.788 136.264 459.139 136.319 459.514 136.319C459.951 136.319 460.344 136.248 460.691 136.107C461.039 135.962 461.315 135.762 461.518 135.507C461.721 135.248 461.823 134.946 461.823 134.602C461.823 134.288 461.735 134.032 461.559 133.835C461.384 133.638 461.153 133.478 460.867 133.355C460.581 133.232 460.271 133.125 459.939 133.032L458.776 132.7C458.037 132.487 457.452 132.184 457.021 131.79C456.591 131.396 456.375 130.881 456.375 130.244C456.375 129.714 456.518 129.253 456.804 128.859C457.094 128.462 457.482 128.154 457.968 127.936C458.457 127.714 459.003 127.603 459.607 127.603C460.216 127.603 460.758 127.712 461.232 127.931C461.706 128.146 462.081 128.442 462.358 128.817C462.638 129.193 462.786 129.619 462.801 130.096H461.693ZM469.134 134.288V130.096H470.223V137.187H469.134V135.987H469.06C468.894 136.347 468.635 136.653 468.284 136.905C467.934 137.155 467.49 137.279 466.955 137.279C466.512 137.279 466.118 137.182 465.773 136.989C465.428 136.792 465.158 136.496 464.961 136.102C464.764 135.705 464.665 135.205 464.665 134.602V130.096H465.755V134.528C465.755 135.045 465.899 135.457 466.189 135.765C466.481 136.073 466.853 136.227 467.306 136.227C467.577 136.227 467.852 136.158 468.132 136.019C468.415 135.881 468.652 135.668 468.843 135.382C469.037 135.096 469.134 134.731 469.134 134.288ZM472.219 139.846V130.096H473.271V131.223H473.401C473.481 131.099 473.591 130.942 473.733 130.752C473.878 130.558 474.084 130.385 474.352 130.235C474.622 130.081 474.989 130.004 475.45 130.004C476.047 130.004 476.574 130.153 477.029 130.452C477.485 130.75 477.84 131.173 478.096 131.721C478.351 132.269 478.479 132.915 478.479 133.66C478.479 134.411 478.351 135.062 478.096 135.613C477.84 136.161 477.486 136.585 477.034 136.887C476.581 137.185 476.06 137.335 475.469 137.335C475.013 137.335 474.649 137.259 474.375 137.109C474.101 136.955 473.89 136.781 473.742 136.587C473.595 136.39 473.481 136.227 473.401 136.098H473.308V139.846H472.219ZM473.29 133.642C473.29 134.177 473.368 134.649 473.525 135.059C473.682 135.465 473.912 135.784 474.213 136.014C474.515 136.242 474.884 136.356 475.321 136.356C475.777 136.356 476.157 136.236 476.461 135.996C476.769 135.753 477 135.427 477.154 135.017C477.311 134.605 477.389 134.146 477.389 133.642C477.389 133.143 477.312 132.694 477.158 132.294C477.008 131.89 476.778 131.572 476.471 131.338C476.166 131.101 475.783 130.982 475.321 130.982C474.878 130.982 474.506 131.095 474.204 131.319C473.902 131.541 473.675 131.852 473.521 132.252C473.367 132.649 473.29 133.112 473.29 133.642ZM480.141 139.846V130.096H481.193V131.223H481.323C481.403 131.099 481.513 130.942 481.655 130.752C481.8 130.558 482.006 130.385 482.274 130.235C482.544 130.081 482.911 130.004 483.372 130.004C483.969 130.004 484.496 130.153 484.951 130.452C485.407 130.75 485.762 131.173 486.017 131.721C486.273 132.269 486.401 132.915 486.401 133.66C486.401 134.411 486.273 135.062 486.017 135.613C485.762 136.161 485.408 136.585 484.956 136.887C484.503 137.185 483.982 137.335 483.391 137.335C482.935 137.335 482.571 137.259 482.297 137.109C482.023 136.955 481.812 136.781 481.664 136.587C481.516 136.39 481.403 136.227 481.323 136.098H481.23V139.846H480.141ZM481.212 133.642C481.212 134.177 481.29 134.649 481.447 135.059C481.604 135.465 481.833 135.784 482.135 136.014C482.437 136.242 482.806 136.356 483.243 136.356C483.698 136.356 484.079 136.236 484.383 135.996C484.691 135.753 484.922 135.427 485.076 135.017C485.233 134.605 485.311 134.146 485.311 133.642C485.311 133.143 485.234 132.694 485.08 132.294C484.93 131.89 484.7 131.572 484.392 131.338C484.088 131.101 483.705 130.982 483.243 130.982C482.8 130.982 482.427 131.095 482.126 131.319C481.824 131.541 481.596 131.852 481.443 132.252C481.289 132.649 481.212 133.112 481.212 133.642ZM490.943 137.335C490.303 137.335 489.741 137.182 489.258 136.878C488.778 136.573 488.403 136.147 488.132 135.599C487.864 135.051 487.73 134.411 487.73 133.678C487.73 132.94 487.864 132.295 488.132 131.744C488.403 131.193 488.778 130.765 489.258 130.461C489.741 130.156 490.303 130.004 490.943 130.004C491.583 130.004 492.144 130.156 492.624 130.461C493.107 130.765 493.482 131.193 493.75 131.744C494.021 132.295 494.156 132.94 494.156 133.678C494.156 134.411 494.021 135.051 493.75 135.599C493.482 136.147 493.107 136.573 492.624 136.878C492.144 137.182 491.583 137.335 490.943 137.335ZM490.943 136.356C491.43 136.356 491.83 136.231 492.144 135.982C492.457 135.733 492.69 135.405 492.841 134.999C492.991 134.593 493.067 134.152 493.067 133.678C493.067 133.205 492.991 132.763 492.841 132.354C492.69 131.944 492.457 131.613 492.144 131.361C491.83 131.109 491.43 130.982 490.943 130.982C490.457 130.982 490.057 131.109 489.743 131.361C489.429 131.613 489.197 131.944 489.046 132.354C488.895 132.763 488.82 133.205 488.82 133.678C488.82 134.152 488.895 134.593 489.046 134.999C489.197 135.405 489.429 135.733 489.743 135.982C490.057 136.231 490.457 136.356 490.943 136.356ZM495.819 137.187V130.096H496.872V131.167H496.946C497.075 130.816 497.309 130.532 497.648 130.313C497.986 130.095 498.368 129.985 498.792 129.985C498.872 129.985 498.972 129.987 499.093 129.99C499.213 129.993 499.303 129.998 499.365 130.004V131.112C499.328 131.102 499.243 131.089 499.111 131.07C498.982 131.049 498.845 131.038 498.7 131.038C498.355 131.038 498.048 131.11 497.777 131.255C497.509 131.396 497.297 131.593 497.14 131.846C496.986 132.095 496.909 132.38 496.909 132.7V137.187H495.819ZM504.184 130.096V131.019H500.51V130.096H504.184ZM501.581 128.397H502.67V135.156C502.67 135.464 502.715 135.694 502.804 135.848C502.896 135.999 503.013 136.101 503.155 136.153C503.3 136.202 503.452 136.227 503.612 136.227C503.732 136.227 503.831 136.221 503.907 136.208C503.984 136.193 504.046 136.181 504.092 136.171L504.314 137.15C504.24 137.178 504.137 137.205 504.004 137.233C503.872 137.264 503.704 137.279 503.501 137.279C503.193 137.279 502.892 137.213 502.596 137.081C502.304 136.948 502.061 136.747 501.867 136.476C501.676 136.205 501.581 135.864 501.581 135.451V128.397ZM508.72 137.335C508.037 137.335 507.448 137.184 506.952 136.882C506.46 136.578 506.08 136.153 505.812 135.608C505.547 135.06 505.415 134.423 505.415 133.697C505.415 132.971 505.547 132.33 505.812 131.777C506.08 131.219 506.452 130.785 506.929 130.475C507.409 130.161 507.969 130.004 508.609 130.004C508.979 130.004 509.343 130.065 509.703 130.188C510.064 130.312 510.391 130.512 510.687 130.789C510.982 131.062 511.218 131.426 511.393 131.878C511.569 132.33 511.656 132.888 511.656 133.549V134.011H506.19V133.069H510.548C510.548 132.669 510.468 132.312 510.308 131.998C510.151 131.684 509.927 131.436 509.634 131.255C509.345 131.073 509.003 130.982 508.609 130.982C508.175 130.982 507.8 131.09 507.483 131.306C507.169 131.518 506.927 131.795 506.758 132.137C506.589 132.478 506.504 132.844 506.504 133.235V133.863C506.504 134.399 506.597 134.853 506.781 135.225C506.969 135.594 507.229 135.876 507.561 136.07C507.894 136.261 508.28 136.356 508.72 136.356C509.006 136.356 509.265 136.316 509.496 136.236C509.73 136.153 509.931 136.03 510.1 135.867C510.27 135.701 510.401 135.494 510.493 135.248L511.545 135.544C511.435 135.901 511.248 136.214 510.987 136.485C510.725 136.753 510.402 136.962 510.017 137.113C509.633 137.261 509.2 137.335 508.72 137.335ZM515.991 137.335C515.4 137.335 514.879 137.185 514.426 136.887C513.974 136.585 513.62 136.161 513.364 135.613C513.109 135.062 512.981 134.411 512.981 133.66C512.981 132.915 513.109 132.269 513.364 131.721C513.62 131.173 513.975 130.75 514.431 130.452C514.886 130.153 515.413 130.004 516.01 130.004C516.471 130.004 516.836 130.081 517.104 130.235C517.375 130.385 517.581 130.558 517.722 130.752C517.867 130.942 517.979 131.099 518.059 131.223H518.152V127.732H519.241V137.187H518.189V136.098H518.059C517.979 136.227 517.865 136.39 517.718 136.587C517.57 136.781 517.359 136.955 517.085 137.109C516.811 137.259 516.447 137.335 515.991 137.335ZM516.139 136.356C516.576 136.356 516.945 136.242 517.247 136.014C517.548 135.784 517.778 135.465 517.935 135.059C518.092 134.649 518.17 134.177 518.17 133.642C518.17 133.112 518.093 132.649 517.939 132.252C517.785 131.852 517.558 131.541 517.256 131.319C516.954 131.095 516.582 130.982 516.139 130.982C515.677 130.982 515.292 131.101 514.985 131.338C514.68 131.572 514.451 131.89 514.297 132.294C514.146 132.694 514.071 133.143 514.071 133.642C514.071 134.146 514.148 134.605 514.301 135.017C514.458 135.427 514.689 135.753 514.994 135.996C515.302 136.236 515.683 136.356 516.139 136.356ZM528.202 130.096V131.019H524.379V130.096H528.202ZM525.524 137.187V129.117C525.524 128.711 525.62 128.373 525.81 128.102C526.001 127.831 526.249 127.628 526.554 127.492C526.858 127.357 527.18 127.289 527.518 127.289C527.786 127.289 528.005 127.311 528.174 127.354C528.343 127.397 528.469 127.437 528.553 127.474L528.239 128.416C528.183 128.397 528.106 128.374 528.008 128.346C527.912 128.319 527.786 128.305 527.629 128.305C527.269 128.305 527.009 128.396 526.849 128.577C526.692 128.759 526.614 129.025 526.614 129.376V137.187H525.524ZM532.317 137.335C531.677 137.335 531.115 137.182 530.632 136.878C530.152 136.573 529.777 136.147 529.506 135.599C529.238 135.051 529.104 134.411 529.104 133.678C529.104 132.94 529.238 132.295 529.506 131.744C529.777 131.193 530.152 130.765 530.632 130.461C531.115 130.156 531.677 130.004 532.317 130.004C532.957 130.004 533.518 130.156 533.998 130.461C534.481 130.765 534.856 131.193 535.124 131.744C535.395 132.295 535.53 132.94 535.53 133.678C535.53 134.411 535.395 135.051 535.124 135.599C534.856 136.147 534.481 136.573 533.998 136.878C533.518 137.182 532.957 137.335 532.317 137.335ZM532.317 136.356C532.804 136.356 533.204 136.231 533.518 135.982C533.831 135.733 534.064 135.405 534.215 134.999C534.365 134.593 534.441 134.152 534.441 133.678C534.441 133.205 534.365 132.763 534.215 132.354C534.064 131.944 533.831 131.613 533.518 131.361C533.204 131.109 532.804 130.982 532.317 130.982C531.831 130.982 531.431 131.109 531.117 131.361C530.803 131.613 530.571 131.944 530.42 132.354C530.269 132.763 530.194 133.205 530.194 133.678C530.194 134.152 530.269 134.593 530.42 134.999C530.571 135.405 530.803 135.733 531.117 135.982C531.431 136.231 531.831 136.356 532.317 136.356ZM537.193 137.187V130.096H538.246V131.167H538.32C538.449 130.816 538.683 130.532 539.022 130.313C539.36 130.095 539.742 129.985 540.166 129.985C540.246 129.985 540.347 129.987 540.467 129.99C540.587 129.993 540.677 129.998 540.739 130.004V131.112C540.702 131.102 540.617 131.089 540.485 131.07C540.356 131.049 540.219 131.038 540.074 131.038C539.729 131.038 539.422 131.11 539.151 131.255C538.883 131.396 538.671 131.593 538.514 131.846C538.36 132.095 538.283 132.38 538.283 132.7V137.187H537.193ZM542.03 137.187V130.096H543.083V131.204H543.175C543.323 130.826 543.561 130.532 543.891 130.322C544.22 130.11 544.616 130.004 545.077 130.004C545.545 130.004 545.934 130.11 546.245 130.322C546.559 130.532 546.804 130.826 546.979 131.204H547.053C547.235 130.838 547.507 130.547 547.87 130.332C548.233 130.113 548.669 130.004 549.177 130.004C549.811 130.004 550.329 130.202 550.732 130.599C551.136 130.993 551.337 131.607 551.337 132.441V137.187H550.248V132.441C550.248 131.918 550.105 131.544 549.818 131.319C549.532 131.095 549.195 130.982 548.807 130.982C548.309 130.982 547.923 131.133 547.649 131.435C547.375 131.733 547.238 132.112 547.238 132.571V137.187H546.13V132.33C546.13 131.927 545.999 131.603 545.737 131.356C545.476 131.107 545.139 130.982 544.726 130.982C544.443 130.982 544.179 131.058 543.932 131.209C543.689 131.359 543.492 131.569 543.341 131.837C543.194 132.101 543.12 132.407 543.12 132.755V137.187H542.03ZM555.416 137.353C554.967 137.353 554.559 137.269 554.192 137.099C553.826 136.927 553.535 136.679 553.32 136.356C553.105 136.03 552.997 135.636 552.997 135.174C552.997 134.768 553.077 134.439 553.237 134.186C553.397 133.931 553.611 133.731 553.879 133.586C554.146 133.442 554.442 133.334 554.765 133.263C555.091 133.189 555.419 133.131 555.748 133.088C556.179 133.032 556.528 132.991 556.796 132.963C557.067 132.932 557.264 132.881 557.387 132.811C557.513 132.74 557.576 132.617 557.576 132.441V132.404C557.576 131.949 557.452 131.595 557.202 131.343C556.956 131.09 556.582 130.964 556.081 130.964C555.56 130.964 555.153 131.078 554.857 131.306C554.562 131.533 554.354 131.777 554.234 132.035L553.2 131.666C553.385 131.235 553.631 130.899 553.939 130.659C554.249 130.416 554.588 130.247 554.954 130.152C555.324 130.053 555.687 130.004 556.044 130.004C556.271 130.004 556.533 130.031 556.828 130.087C557.127 130.139 557.415 130.248 557.692 130.415C557.972 130.581 558.204 130.832 558.389 131.167C558.574 131.503 558.666 131.952 558.666 132.515V137.187H557.576V136.227H557.521C557.447 136.381 557.324 136.545 557.152 136.721C556.979 136.896 556.75 137.045 556.464 137.169C556.178 137.292 555.828 137.353 555.416 137.353ZM555.582 136.375C556.013 136.375 556.376 136.29 556.672 136.121C556.97 135.951 557.195 135.733 557.346 135.465C557.499 135.197 557.576 134.916 557.576 134.62V133.623C557.53 133.678 557.429 133.729 557.272 133.775C557.118 133.819 556.939 133.857 556.736 133.891C556.536 133.922 556.341 133.949 556.15 133.974C555.962 133.995 555.81 134.014 555.693 134.029C555.41 134.066 555.145 134.126 554.899 134.209C554.656 134.289 554.459 134.411 554.308 134.574C554.16 134.734 554.086 134.953 554.086 135.23C554.086 135.608 554.226 135.894 554.506 136.088C554.79 136.279 555.148 136.375 555.582 136.375ZM563.738 130.096V131.019H560.063V130.096H563.738ZM561.134 128.397H562.224V135.156C562.224 135.464 562.269 135.694 562.358 135.848C562.45 135.999 562.567 136.101 562.709 136.153C562.853 136.202 563.006 136.227 563.166 136.227C563.286 136.227 563.384 136.221 563.461 136.208C563.538 136.193 563.6 136.181 563.646 136.171L563.867 137.15C563.794 137.178 563.69 137.205 563.558 137.233C563.426 137.264 563.258 137.279 563.055 137.279C562.747 137.279 562.446 137.213 562.15 137.081C561.858 136.948 561.615 136.747 561.421 136.476C561.23 136.205 561.134 135.864 561.134 135.451V128.397ZM568.274 137.335C567.591 137.335 567.001 137.184 566.506 136.882C566.013 136.578 565.633 136.153 565.366 135.608C565.101 135.06 564.968 134.423 564.968 133.697C564.968 132.971 565.101 132.33 565.366 131.777C565.633 131.219 566.006 130.785 566.483 130.475C566.963 130.161 567.523 130.004 568.163 130.004C568.532 130.004 568.897 130.065 569.257 130.188C569.617 130.312 569.945 130.512 570.241 130.789C570.536 131.062 570.771 131.426 570.947 131.878C571.122 132.33 571.21 132.888 571.21 133.549V134.011H565.744V133.069H570.102C570.102 132.669 570.022 132.312 569.862 131.998C569.705 131.684 569.48 131.436 569.188 131.255C568.899 131.073 568.557 130.982 568.163 130.982C567.729 130.982 567.354 131.09 567.037 131.306C566.723 131.518 566.481 131.795 566.312 132.137C566.143 132.478 566.058 132.844 566.058 133.235V133.863C566.058 134.399 566.15 134.853 566.335 135.225C566.523 135.594 566.783 135.876 567.115 136.07C567.448 136.261 567.834 136.356 568.274 136.356C568.56 136.356 568.819 136.316 569.049 136.236C569.283 136.153 569.485 136.03 569.654 135.867C569.823 135.701 569.954 135.494 570.047 135.248L571.099 135.544C570.988 135.901 570.802 136.214 570.541 136.485C570.279 136.753 569.956 136.962 569.571 137.113C569.186 137.261 568.754 137.335 568.274 137.335ZM577.89 131.684L576.911 131.961C576.85 131.798 576.759 131.64 576.639 131.486C576.522 131.329 576.362 131.199 576.159 131.098C575.956 130.996 575.696 130.946 575.379 130.946C574.945 130.946 574.583 131.046 574.294 131.246C574.008 131.443 573.864 131.693 573.864 131.998C573.864 132.269 573.963 132.483 574.16 132.64C574.357 132.797 574.665 132.928 575.083 133.032L576.136 133.291C576.77 133.445 577.242 133.68 577.553 133.997C577.864 134.311 578.019 134.716 578.019 135.211C578.019 135.617 577.902 135.981 577.668 136.301C577.438 136.621 577.114 136.873 576.699 137.058C576.283 137.242 575.8 137.335 575.249 137.335C574.526 137.335 573.928 137.178 573.454 136.864C572.98 136.55 572.68 136.091 572.553 135.488L573.587 135.23C573.686 135.611 573.872 135.897 574.146 136.088C574.423 136.279 574.785 136.375 575.231 136.375C575.739 136.375 576.142 136.267 576.44 136.051C576.742 135.833 576.893 135.571 576.893 135.267C576.893 135.02 576.807 134.814 576.634 134.648C576.462 134.479 576.197 134.352 575.84 134.269L574.658 133.992C574.009 133.839 573.532 133.6 573.227 133.277C572.926 132.951 572.775 132.543 572.775 132.053C572.775 131.653 572.887 131.299 573.112 130.992C573.34 130.684 573.649 130.442 574.04 130.267C574.434 130.091 574.88 130.004 575.379 130.004C576.08 130.004 576.631 130.158 577.031 130.465C577.435 130.773 577.721 131.179 577.89 131.684ZM580.453 137.261C580.226 137.261 580.03 137.179 579.867 137.016C579.704 136.853 579.622 136.658 579.622 136.43C579.622 136.202 579.704 136.007 579.867 135.844C580.03 135.681 580.226 135.599 580.453 135.599C580.681 135.599 580.876 135.681 581.04 135.844C581.203 136.007 581.284 136.202 581.284 136.43C581.284 136.581 581.246 136.719 581.169 136.845C581.095 136.972 580.995 137.073 580.869 137.15C580.746 137.224 580.607 137.261 580.453 137.261ZM580.453 131.998C580.226 131.998 580.03 131.917 579.867 131.753C579.704 131.59 579.622 131.395 579.622 131.167C579.622 130.939 579.704 130.744 579.867 130.581C580.03 130.418 580.226 130.336 580.453 130.336C580.681 130.336 580.876 130.418 581.04 130.581C581.203 130.744 581.284 130.939 581.284 131.167C581.284 131.318 581.246 131.456 581.169 131.583C581.095 131.709 580.995 131.81 580.869 131.887C580.746 131.961 580.607 131.998 580.453 131.998ZM587.283 133.198C587.283 132.035 587.434 130.966 587.736 129.99C588.04 129.011 588.474 128.111 589.038 127.289H589.998C589.776 127.594 589.569 127.969 589.375 128.416C589.184 128.859 589.016 129.347 588.871 129.879C588.727 130.408 588.613 130.956 588.53 131.523C588.45 132.089 588.41 132.647 588.41 133.198C588.41 133.931 588.481 134.674 588.622 135.428C588.764 136.182 588.955 136.882 589.195 137.529C589.435 138.175 589.702 138.701 589.998 139.107H589.038C588.474 138.286 588.04 137.387 587.736 136.411C587.434 135.433 587.283 134.362 587.283 133.198ZM592.4 137.261C592.172 137.261 591.976 137.179 591.813 137.016C591.65 136.853 591.569 136.658 591.569 136.43C591.569 136.202 591.65 136.007 591.813 135.844C591.976 135.681 592.172 135.599 592.4 135.599C592.627 135.599 592.823 135.681 592.986 135.844C593.149 136.007 593.231 136.202 593.231 136.43C593.231 136.581 593.192 136.719 593.115 136.845C593.041 136.972 592.941 137.073 592.815 137.15C592.692 137.224 592.553 137.261 592.4 137.261ZM595.333 137.187V127.732H596.423V131.223H596.515C596.595 131.099 596.706 130.942 596.848 130.752C596.992 130.558 597.198 130.385 597.466 130.235C597.737 130.081 598.103 130.004 598.565 130.004C599.162 130.004 599.688 130.153 600.144 130.452C600.599 130.75 600.955 131.173 601.21 131.721C601.466 132.269 601.593 132.915 601.593 133.66C601.593 134.411 601.466 135.062 601.21 135.613C600.955 136.161 600.601 136.585 600.148 136.887C599.696 137.185 599.174 137.335 598.583 137.335C598.128 137.335 597.763 137.259 597.489 137.109C597.215 136.955 597.005 136.781 596.857 136.587C596.709 136.39 596.595 136.227 596.515 136.098H596.386V137.187H595.333ZM596.404 133.642C596.404 134.177 596.483 134.649 596.64 135.059C596.797 135.465 597.026 135.784 597.328 136.014C597.629 136.242 597.999 136.356 598.436 136.356C598.891 136.356 599.271 136.236 599.576 135.996C599.884 135.753 600.114 135.427 600.268 135.017C600.425 134.605 600.504 134.146 600.504 133.642C600.504 133.143 600.427 132.694 600.273 132.294C600.122 131.89 599.893 131.572 599.585 131.338C599.28 131.101 598.897 130.982 598.436 130.982C597.992 130.982 597.62 131.095 597.318 131.319C597.017 131.541 596.789 131.852 596.635 132.252C596.481 132.649 596.404 133.112 596.404 133.642ZM603.26 137.187V130.096H604.349V137.187H603.26ZM603.814 128.914C603.601 128.914 603.418 128.842 603.264 128.697C603.114 128.553 603.038 128.379 603.038 128.176C603.038 127.973 603.114 127.799 603.264 127.654C603.418 127.509 603.601 127.437 603.814 127.437C604.026 127.437 604.208 127.509 604.359 127.654C604.512 127.799 604.589 127.973 604.589 128.176C604.589 128.379 604.512 128.553 604.359 128.697C604.208 128.842 604.026 128.914 603.814 128.914ZM607.434 132.921V137.187H606.345V130.096H607.397V131.204H607.49C607.656 130.844 607.908 130.555 608.247 130.336C608.585 130.115 609.022 130.004 609.558 130.004C610.038 130.004 610.458 130.102 610.818 130.299C611.178 130.493 611.458 130.789 611.658 131.186C611.858 131.58 611.958 132.078 611.958 132.681V137.187H610.869V132.755C610.869 132.198 610.724 131.764 610.435 131.453C610.146 131.139 609.749 130.982 609.244 130.982C608.896 130.982 608.585 131.058 608.311 131.209C608.041 131.359 607.827 131.58 607.67 131.869C607.513 132.158 607.434 132.509 607.434 132.921ZM615.574 135.894L615.5 136.393C615.448 136.744 615.368 137.119 615.26 137.519C615.156 137.919 615.046 138.297 614.933 138.65C614.819 139.004 614.725 139.286 614.651 139.495H613.82C613.86 139.298 613.912 139.038 613.977 138.715C614.042 138.392 614.106 138.03 614.171 137.63C614.239 137.233 614.294 136.827 614.337 136.411L614.392 135.894H615.574ZM622.043 137.261C621.815 137.261 621.62 137.179 621.457 137.016C621.294 136.853 621.212 136.658 621.212 136.43C621.212 136.202 621.294 136.007 621.457 135.844C621.62 135.681 621.815 135.599 622.043 135.599C622.271 135.599 622.466 135.681 622.629 135.844C622.793 136.007 622.874 136.202 622.874 136.43C622.874 136.581 622.836 136.719 622.759 136.845C622.685 136.972 622.585 137.073 622.459 137.15C622.336 137.224 622.197 137.261 622.043 137.261ZM625.919 132.921V137.187H624.829V127.732H625.919V131.204H626.011C626.177 130.838 626.426 130.547 626.759 130.332C627.094 130.113 627.541 130.004 628.098 130.004C628.581 130.004 629.004 130.101 629.367 130.295C629.73 130.485 630.012 130.779 630.212 131.176C630.415 131.57 630.517 132.072 630.517 132.681V137.187H629.427V132.755C629.427 132.192 629.281 131.756 628.989 131.449C628.699 131.138 628.298 130.982 627.784 130.982C627.427 130.982 627.107 131.058 626.824 131.209C626.543 131.359 626.322 131.58 626.159 131.869C625.999 132.158 625.919 132.509 625.919 132.921ZM635.483 137.335C634.8 137.335 634.21 137.184 633.715 136.882C633.222 136.578 632.842 136.153 632.574 135.608C632.31 135.06 632.177 134.423 632.177 133.697C632.177 132.971 632.31 132.33 632.574 131.777C632.842 131.219 633.215 130.785 633.692 130.475C634.172 130.161 634.732 130.004 635.372 130.004C635.741 130.004 636.106 130.065 636.466 130.188C636.826 130.312 637.154 130.512 637.449 130.789C637.745 131.062 637.98 131.426 638.156 131.878C638.331 132.33 638.419 132.888 638.419 133.549V134.011H632.953V133.069H637.311C637.311 132.669 637.231 132.312 637.071 131.998C636.914 131.684 636.689 131.436 636.397 131.255C636.108 131.073 635.766 130.982 635.372 130.982C634.938 130.982 634.563 131.09 634.246 131.306C633.932 131.518 633.69 131.795 633.521 132.137C633.352 132.478 633.267 132.844 633.267 133.235V133.863C633.267 134.399 633.359 134.853 633.544 135.225C633.732 135.594 633.992 135.876 634.324 136.07C634.657 136.261 635.043 136.356 635.483 136.356C635.769 136.356 636.028 136.316 636.258 136.236C636.492 136.153 636.694 136.03 636.863 135.867C637.032 135.701 637.163 135.494 637.256 135.248L638.308 135.544C638.197 135.901 638.011 136.214 637.75 136.485C637.488 136.753 637.165 136.962 636.78 137.113C636.395 137.261 635.963 137.335 635.483 137.335ZM640.698 130.096L642.397 132.995L644.096 130.096H645.352L643.062 133.642L645.352 137.187H644.096L642.397 134.436L640.698 137.187H639.443L641.695 133.642L639.443 130.096H640.698ZM648.531 135.894L648.457 136.393C648.405 136.744 648.325 137.119 648.217 137.519C648.113 137.919 648.004 138.297 647.89 138.65C647.776 139.004 647.682 139.286 647.608 139.495H646.777C646.817 139.298 646.869 139.038 646.934 138.715C646.999 138.392 647.063 138.03 647.128 137.63C647.196 137.233 647.251 136.827 647.294 136.411L647.35 135.894H648.531ZM655 137.261C654.772 137.261 654.577 137.179 654.414 137.016C654.251 136.853 654.169 136.658 654.169 136.43C654.169 136.202 654.251 136.007 654.414 135.844C654.577 135.681 654.772 135.599 655 135.599C655.228 135.599 655.423 135.681 655.586 135.844C655.75 136.007 655.831 136.202 655.831 136.43C655.831 136.581 655.793 136.719 655.716 136.845C655.642 136.972 655.542 137.073 655.416 137.15C655.293 137.224 655.154 137.261 655 137.261ZM660.667 137.335C660.027 137.335 659.465 137.182 658.982 136.878C658.502 136.573 658.126 136.147 657.855 135.599C657.588 135.051 657.454 134.411 657.454 133.678C657.454 132.94 657.588 132.295 657.855 131.744C658.126 131.193 658.502 130.765 658.982 130.461C659.465 130.156 660.027 130.004 660.667 130.004C661.307 130.004 661.867 130.156 662.347 130.461C662.83 130.765 663.206 131.193 663.474 131.744C663.745 132.295 663.88 132.94 663.88 133.678C663.88 134.411 663.745 135.051 663.474 135.599C663.206 136.147 662.83 136.573 662.347 136.878C661.867 137.182 661.307 137.335 660.667 137.335ZM660.667 136.356C661.153 136.356 661.553 136.231 661.867 135.982C662.181 135.733 662.413 135.405 662.564 134.999C662.715 134.593 662.79 134.152 662.79 133.678C662.79 133.205 662.715 132.763 662.564 132.354C662.413 131.944 662.181 131.613 661.867 131.361C661.553 131.109 661.153 130.982 660.667 130.982C660.181 130.982 659.781 131.109 659.467 131.361C659.153 131.613 658.92 131.944 658.77 132.354C658.619 132.763 658.543 133.205 658.543 133.678C658.543 134.152 658.619 134.593 658.77 134.999C658.92 135.405 659.153 135.733 659.467 135.982C659.781 136.231 660.181 136.356 660.667 136.356ZM665.543 137.187V130.096H666.596V131.167H666.669C666.799 130.816 667.033 130.532 667.371 130.313C667.71 130.095 668.091 129.985 668.516 129.985C668.596 129.985 668.696 129.987 668.816 129.99C668.936 129.993 669.027 129.998 669.089 130.004V131.112C669.052 131.102 668.967 131.089 668.835 131.07C668.705 131.049 668.568 131.038 668.424 131.038C668.079 131.038 667.771 131.11 667.5 131.255C667.233 131.396 667.02 131.593 666.863 131.846C666.709 132.095 666.633 132.38 666.633 132.7V137.187H665.543ZM670.38 137.187V130.096H671.469V137.187H670.38ZM670.934 128.914C670.722 128.914 670.538 128.842 670.385 128.697C670.234 128.553 670.158 128.379 670.158 128.176C670.158 127.973 670.234 127.799 670.385 127.654C670.538 127.509 670.722 127.437 670.934 127.437C671.146 127.437 671.328 127.509 671.479 127.654C671.633 127.799 671.71 127.973 671.71 128.176C671.71 128.379 671.633 128.553 671.479 128.697C671.328 128.842 671.146 128.914 670.934 128.914ZM676.236 133.198C676.236 134.362 676.084 135.433 675.779 136.411C675.477 137.387 675.045 138.286 674.482 139.107H673.521C673.743 138.803 673.949 138.427 674.14 137.981C674.334 137.538 674.503 137.052 674.648 136.522C674.793 135.99 674.905 135.44 674.985 134.874C675.068 134.305 675.11 133.746 675.11 133.198C675.11 132.466 675.039 131.723 674.897 130.969C674.756 130.215 674.565 129.514 674.325 128.868C674.085 128.222 673.817 127.696 673.521 127.289H674.482C675.045 128.111 675.477 129.011 675.779 129.99C676.084 130.966 676.236 132.035 676.236 133.198Z" fill="#494949"/>
</svg>
