<svg width="16" height="16" viewBox="0 0 16 16" fill="none" xmlns="http://www.w3.org/2000/svg">
<path d="M8 10C7.60444 10 7.21776 9.8827 6.88886 9.66294C6.55996 9.44318 6.30362 9.13082 6.15224 8.76537C6.00087 8.39991 5.96126 7.99778 6.03843 7.60982C6.1156 7.22186 6.30608 6.86549 6.58579 6.58579C6.86549 6.30608 7.22186 6.1156 7.60982 6.03843C7.99778 5.96126 8.39992 6.00087 8.76537 6.15224C9.13082 6.30362 9.44318 6.55996 9.66294 6.88886C9.8827 7.21776 10 7.60444 10 8C9.99936 8.53024 9.78843 9.03857 9.4135 9.4135C9.03857 9.78843 8.53024 9.99936 8 10ZM8 6.81218C7.76507 6.81218 7.53542 6.88185 7.34008 7.01237C7.14475 7.14289 6.9925 7.3284 6.9026 7.54544C6.8127 7.76249 6.78917 8.00132 6.83501 8.23173C6.88084 8.46215 6.99397 8.67379 7.16009 8.83991C7.32621 9.00603 7.53785 9.11916 7.76827 9.16499C7.99868 9.21083 8.23751 9.1873 8.45456 9.0974C8.6716 9.0075 8.85712 8.85525 8.98763 8.65992C9.11815 8.46458 9.18782 8.23493 9.18782 8C9.18749 7.68507 9.06225 7.38313 8.83956 7.16044C8.61687 6.93775 8.31493 6.81251 8 6.81218Z" fill="white"/>
<path d="M14.8506 8.26483C14.7415 8.45816 12.1324 13 8 13C3.86763 13 1.25853 8.45816 1.14943 8.26483L1 8L1.14943 7.73517C1.25853 7.54184 3.86815 3 8 3C12.1319 3 14.7415 7.54184 14.8506 7.73517L15 8L14.8506 8.26483ZM8 4.05932C4.99431 4.05932 2.80765 7.07839 2.20889 8.00053C2.8061 8.92479 4.98552 11.9407 8 11.9407C11.0057 11.9407 13.1918 8.92161 13.7911 8C13.1918 7.07627 11.0057 4.05932 8 4.05932Z" fill="white"/>
</svg>
