<svg width="14" height="14" viewBox="0 0 14 14" fill="none" xmlns="http://www.w3.org/2000/svg">
<g clip-path="url(#clip0_1000_13947)">
<path d="M13.4163 14H0.583008V12.8333H1.98301C1.04967 9.91667 2.91634 8.75 4.14134 7.93333C4.66634 7.58333 5.19134 7.29167 5.19134 7C5.19134 6.70833 4.66634 6.35833 4.14134 6.06667C2.91634 5.25 1.04967 4.14167 1.98301 1.16667H0.583008V0H13.4163V1.16667H12.0163C12.9497 4.08333 11.083 5.25 9.85801 6.06667C9.27467 6.35833 8.74967 6.70833 8.74967 7C8.74967 7.29167 9.27467 7.64167 9.79967 7.93333C11.0247 8.75 12.8913 9.91667 11.958 12.8333H13.4163V14ZM3.26634 12.8333H10.733C11.6663 10.5 10.4413 9.74167 9.21634 8.925C8.39968 8.45833 7.58301 7.93333 7.58301 7C7.58301 6.06667 8.39968 5.54167 9.21634 5.075C10.4413 4.25833 11.6663 3.5 10.733 1.16667H3.26634C2.33301 3.5 3.55801 4.25833 4.78301 5.075C5.59967 5.54167 6.41634 6.06667 6.41634 7C6.41634 7.93333 5.59967 8.45833 4.78301 8.925C3.55801 9.74167 2.33301 10.5 3.26634 12.8333Z" fill="#C17E12"/>
<path d="M9.80028 13.4171H4.08362C3.90862 12.5421 4.20028 12.0171 5.42528 10.9087C5.89195 10.5004 6.47528 10.0337 7.00028 9.27539C7.58362 9.97539 8.16695 10.5004 8.57528 10.9087C9.80028 12.0754 10.092 12.2504 9.80028 13.4171Z" fill="#C17E12"/>
<path d="M5.48306 3.5C5.07473 4.25833 5.07473 4.25833 6.00806 4.725C6.29973 4.84167 6.64973 5.01667 6.9414 5.25C7.23306 5.01667 7.6414 4.84167 7.87473 4.725C8.8664 4.25833 8.8664 4.25833 8.45806 3.5" fill="#C17E12"/>
</g>
<defs>
<clipPath id="clip0_1000_13947">
<rect width="14" height="14" fill="white"/>
</clipPath>
</defs>
</svg>
