<svg width="31" height="31" viewBox="0 0 31 31" fill="none" xmlns="http://www.w3.org/2000/svg">
<g clip-path="url(#clip0_648_1222)">
<rect x="0.800415" y="0.5" width="30" height="30" rx="15" fill="black"/>
<g clip-path="url(#clip1_648_1222)">
<path d="M-8.19958 -1.71053H53.8004V30.9211H-8.19958" fill="#B31942"/>
<path d="M-8.19958 2.05452H53.8004H-8.19958ZM53.8004 7.07476H-8.19958H53.8004ZM-8.19958 12.095H53.8004H-8.19958ZM53.8004 17.1152H-8.19958H53.8004ZM-8.19958 22.1355H53.8004H-8.19958ZM53.8004 27.1557H-8.19958H53.8004Z" fill="black"/>
<path d="M-8.19958 2.05452H53.8004M53.8004 7.07476H-8.19958M-8.19958 12.095H53.8004M53.8004 17.1152H-8.19958M-8.19958 22.1355H53.8004M53.8004 27.1557H-8.19958" stroke="white" stroke-width="2.51012"/>
<path d="M-8.19958 -1.71053H16.6004V15.8603H-8.19958" fill="#0A3161"/>
<path d="M0.0670895 0.798859L0.657255 2.6152L-0.887817 1.49264H1.022L-0.523075 2.6152L0.0670895 0.798859Z" fill="white"/>
<path d="M0.0670895 4.31287L0.657255 6.12921L-0.887817 5.00665H1.022L-0.523075 6.12921L0.0670895 4.31287Z" fill="white"/>
<path d="M0.0670895 7.82739L0.657255 9.64373L-0.887817 8.52117H1.022L-0.523075 9.64373L0.0670895 7.82739Z" fill="white"/>
<path d="M0.0670895 11.3414L0.657255 13.1577L-0.887817 12.0351H1.022L-0.523075 13.1577L0.0670895 11.3414Z" fill="white"/>
<path d="M2.13386 -0.957787L2.72403 0.858554L1.17896 -0.264006H3.08877L1.5437 0.858554L2.13386 -0.957787Z" fill="white"/>
<path d="M2.13386 2.55664L2.72403 4.37298L1.17896 3.25042H3.08877L1.5437 4.37298L2.13386 2.55664Z" fill="white"/>
<path d="M2.13386 6.0706L2.72403 7.88694L1.17896 6.76438H3.08877L1.5437 7.88694L2.13386 6.0706Z" fill="white"/>
<path d="M2.13386 9.58456L2.72403 11.4009L1.17896 10.2783H3.08877L1.5437 11.4009L2.13386 9.58456Z" fill="white"/>
<path d="M2.13386 13.0991L2.72403 14.9154L1.17896 13.7929H3.08877L1.5437 14.9154L2.13386 13.0991Z" fill="white"/>
<path d="M4.20051 0.799099L4.79068 2.61544L3.24561 1.49288H5.15542L3.61035 2.61544L4.20051 0.799099Z" fill="white"/>
<path d="M4.20051 4.31311L4.79068 6.12945L3.24561 5.00689H5.15542L3.61035 6.12945L4.20051 4.31311Z" fill="white"/>
<path d="M4.20051 7.82763L4.79068 9.64397L3.24561 8.52141H5.15542L3.61035 9.64397L4.20051 7.82763Z" fill="white"/>
<path d="M4.20051 11.3416L4.79068 13.1579L3.24561 12.0354H5.15542L3.61035 13.1579L4.20051 11.3416Z" fill="white"/>
<path d="M6.26716 -0.957882L6.85733 0.858459L5.31226 -0.264101H7.22207L5.677 0.858459L6.26716 -0.957882Z" fill="white"/>
<path d="M6.26716 2.55655L6.85733 4.37289L5.31226 3.25033H7.22207L5.677 4.37289L6.26716 2.55655Z" fill="white"/>
<path d="M6.26716 6.07051L6.85733 7.88685L5.31226 6.76429H7.22207L5.677 7.88685L6.26716 6.07051Z" fill="white"/>
<path d="M6.26716 9.58447L6.85733 11.4008L5.31226 10.2782H7.22207L5.677 11.4008L6.26716 9.58447Z" fill="white"/>
<path d="M6.26716 13.099L6.85733 14.9153L5.31226 13.7928H7.22207L5.677 14.9153L6.26716 13.099Z" fill="white"/>
<path d="M8.33381 0.799004L8.92398 2.61534L7.37891 1.49278H9.28872L7.74365 2.61534L8.33381 0.799004Z" fill="white"/>
<path d="M8.33381 4.31301L8.92398 6.12936L7.37891 5.0068H9.28872L7.74365 6.12936L8.33381 4.31301Z" fill="white"/>
<path d="M8.33381 7.82754L8.92398 9.64388L7.37891 8.52132H9.28872L7.74365 9.64388L8.33381 7.82754Z" fill="white"/>
<path d="M8.33381 11.3415L8.92398 13.1578L7.37891 12.0353H9.28872L7.74365 13.1578L8.33381 11.3415Z" fill="white"/>
<path d="M10.4005 -0.957787L10.9906 0.858554L9.44556 -0.264006H11.3554L9.8103 0.858554L10.4005 -0.957787Z" fill="white"/>
<path d="M10.4005 2.55664L10.9906 4.37298L9.44556 3.25042H11.3554L9.8103 4.37298L10.4005 2.55664Z" fill="white"/>
<path d="M10.4005 6.0706L10.9906 7.88694L9.44556 6.76438H11.3554L9.8103 7.88694L10.4005 6.0706Z" fill="white"/>
<path d="M10.4005 9.58456L10.9906 11.4009L9.44556 10.2783H11.3554L9.8103 11.4009L10.4005 9.58456Z" fill="white"/>
<path d="M10.4005 13.0991L10.9906 14.9154L9.44556 13.7929H11.3554L9.8103 14.9154L10.4005 13.0991Z" fill="white"/>
<path d="M12.4671 0.799099L13.0573 2.61544L11.5122 1.49288H13.422L11.8769 2.61544L12.4671 0.799099Z" fill="white"/>
<path d="M12.4671 4.31311L13.0573 6.12945L11.5122 5.00689H13.422L11.8769 6.12945L12.4671 4.31311Z" fill="white"/>
<path d="M12.4671 7.82763L13.0573 9.64397L11.5122 8.52141H13.422L11.8769 9.64397L12.4671 7.82763Z" fill="white"/>
<path d="M12.4671 11.3416L13.0573 13.1579L11.5122 12.0354H13.422L11.8769 13.1579L12.4671 11.3416Z" fill="white"/>
<path d="M14.5338 -0.957787L15.1239 0.858554L13.5789 -0.264006H15.4887L13.9436 0.858554L14.5338 -0.957787Z" fill="white"/>
<path d="M14.5338 2.55664L15.1239 4.37298L13.5789 3.25042H15.4887L13.9436 4.37298L14.5338 2.55664Z" fill="white"/>
<path d="M14.5338 6.0706L15.1239 7.88694L13.5789 6.76438H15.4887L13.9436 7.88694L14.5338 6.0706Z" fill="white"/>
<path d="M14.5338 9.58456L15.1239 11.4009L13.5789 10.2783H15.4887L13.9436 11.4009L14.5338 9.58456Z" fill="white"/>
<path d="M14.5338 13.0991L15.1239 14.9154L13.5789 13.7929H15.4887L13.9436 14.9154L14.5338 13.0991Z" fill="white"/>
</g>
</g>
<defs>
<clipPath id="clip0_648_1222">
<rect x="0.800415" y="0.5" width="30" height="30" rx="15" fill="white"/>
</clipPath>
<clipPath id="clip1_648_1222">
<rect width="62" height="32.6316" fill="white" transform="translate(-8.19958 -1.71053)"/>
</clipPath>
</defs>
</svg>
