<svg width="24" height="26" viewBox="0 0 24 26" fill="none" xmlns="http://www.w3.org/2000/svg">
<path d="M22.1615 16.9675C22.0506 16.8382 21.9893 16.672 21.9893 16.5C21.9893 16.3279 22.0506 16.1617 22.1615 16.0325L23.0477 15.0125C23.1453 14.901 23.206 14.7608 23.2209 14.6119C23.2358 14.463 23.2043 14.3131 23.1308 14.1837L21.7462 11.7329C21.6734 11.6036 21.5626 11.5012 21.4296 11.4401C21.2966 11.3791 21.1481 11.3625 21.0054 11.3929L19.7038 11.6621C19.5382 11.6971 19.3658 11.6689 19.2192 11.5827C19.0725 11.4966 18.9617 11.3585 18.9077 11.1946L18.4854 9.89831C18.4389 9.75762 18.3505 9.63542 18.2324 9.54899C18.1144 9.46256 17.9728 9.41626 17.8277 9.41664H15.0585C14.9075 9.40858 14.7581 9.4513 14.6331 9.53827C14.5081 9.62525 14.4143 9.7517 14.3662 9.89831L13.9785 11.1946C13.9245 11.3585 13.8137 11.4966 13.667 11.5827C13.5203 11.6689 13.3479 11.6971 13.1823 11.6621L11.8462 11.3929C11.7108 11.3733 11.5729 11.3952 11.4497 11.4557C11.3265 11.5162 11.2236 11.6126 11.1538 11.7329L9.76923 14.1837C9.69388 14.3117 9.66 14.4607 9.67244 14.6096C9.68487 14.7584 9.74298 14.8995 9.83846 15.0125L10.7177 16.0325C10.8287 16.1617 10.8899 16.3279 10.8899 16.5C10.8899 16.672 10.8287 16.8382 10.7177 16.9675L9.83846 17.9875C9.74298 18.1005 9.68487 18.2415 9.67244 18.3904C9.66 18.5392 9.69388 18.6883 9.76923 18.8162L11.1538 21.2671C11.2266 21.3963 11.3374 21.4988 11.4704 21.5598C11.6034 21.6209 11.7519 21.6374 11.8946 21.6071L13.1962 21.3379C13.3618 21.3029 13.5342 21.3311 13.6809 21.4172C13.8275 21.5034 13.9383 21.6414 13.9923 21.8054L14.4146 23.1016C14.4628 23.2483 14.5565 23.3747 14.6815 23.4617C14.8066 23.5487 14.956 23.5914 15.1069 23.5833H17.8762C18.0213 23.5837 18.1629 23.5374 18.2809 23.451C18.3989 23.3645 18.4874 23.2423 18.5338 23.1016L18.9562 21.8054C19.0102 21.6414 19.1209 21.5034 19.2676 21.4172C19.4143 21.3311 19.5867 21.3029 19.7523 21.3379L21.0539 21.6071C21.1966 21.6374 21.345 21.6209 21.4781 21.5598C21.6111 21.4988 21.7219 21.3963 21.7946 21.2671L23.1792 18.8162C23.2527 18.6868 23.2843 18.5369 23.2694 18.388C23.2544 18.2391 23.1938 18.0989 23.0962 17.9875L22.1615 16.9675ZM21.13 17.9166L21.6838 18.5541L20.7977 20.1266L19.9808 19.9566C19.4822 19.8524 18.9635 19.939 18.5232 20.2002C18.0829 20.4613 17.7516 20.8788 17.5923 21.3733L17.3292 22.1666H15.5569L15.3077 21.3591C15.1484 20.8646 14.8171 20.4472 14.3768 20.186C13.9365 19.9249 13.4178 19.8382 12.9192 19.9425L12.1023 20.1125L11.2023 18.5471L11.7562 17.9096C12.0967 17.52 12.285 17.0156 12.285 16.4929C12.285 15.9702 12.0967 15.4658 11.7562 15.0762L11.2023 14.4387L12.0885 12.8804L12.9054 13.0504C13.404 13.1547 13.9227 13.068 14.363 12.8069C14.8033 12.5457 15.1345 12.1283 15.2938 11.6337L15.5569 10.8333H17.3292L17.5923 11.6408C17.7516 12.1353 18.0829 12.5528 18.5232 12.814C18.9635 13.0751 19.4822 13.1618 19.9808 13.0575L20.7977 12.8875L21.6838 14.46L21.13 15.0975C20.7932 15.4862 20.6073 15.9876 20.6073 16.5071C20.6073 17.0265 20.7932 17.5279 21.13 17.9166ZM16.4431 13.6666C15.8954 13.6666 15.36 13.8328 14.9046 14.1441C14.4492 14.4555 14.0942 14.898 13.8846 15.4157C13.675 15.9334 13.6202 16.5031 13.7271 17.0527C13.8339 17.6023 14.0977 18.1072 14.4849 18.5034C14.8722 18.8997 15.3657 19.1695 15.9028 19.2789C16.44 19.3882 16.9968 19.3321 17.5028 19.1176C18.0088 18.9032 18.4413 18.54 18.7456 18.0741C19.0499 17.6082 19.2123 17.0604 19.2123 16.5C19.2123 15.7485 18.9206 15.0279 18.4012 14.4965C17.8819 13.9652 17.1775 13.6666 16.4431 13.6666ZM16.4431 17.9166C16.1692 17.9166 15.9015 17.8336 15.6738 17.6779C15.4461 17.5222 15.2687 17.301 15.1639 17.0421C15.0591 16.7832 15.0316 16.4984 15.0851 16.2236C15.1385 15.9488 15.2704 15.6964 15.464 15.4982C15.6577 15.3001 15.9044 15.1652 16.173 15.1105C16.4415 15.0559 16.7199 15.0839 16.9729 15.1911C17.226 15.2984 17.4422 15.4799 17.5943 15.7129C17.7465 15.9459 17.8277 16.2198 17.8277 16.5C17.8277 16.8757 17.6818 17.236 17.4222 17.5017C17.1625 17.7674 16.8103 17.9166 16.4431 17.9166Z" fill="#BABABA"/>
<path d="M13 24.5H2.5C2.16667 24.5 1.5 24.2 1.5 23V3C1.5 2.5 1.8 1.5 3 1.5H15L19.5 6" stroke="#BABABA" stroke-width="1.5" stroke-linecap="round" stroke-linejoin="round"/>
<path d="M15 1.5V4.5C15 5 15.3 6 16.5 6H19.5" stroke="#BABABA" stroke-width="1.5" stroke-linecap="round" stroke-linejoin="round"/>
<path d="M4 8.5H11.5" stroke="#BABABA" stroke-width="1.5" stroke-linecap="round" stroke-linejoin="round"/>
<path d="M4 14H8" stroke="#BABABA" stroke-width="1.5" stroke-linecap="round" stroke-linejoin="round"/>
</svg>
