<svg width="214" height="55" viewBox="0 0 214 55" fill="none" xmlns="http://www.w3.org/2000/svg">
<rect y="5.19238" width="38.8225" height="41.4189" fill="#3EA44E"/>
<rect x="2.34961" y="5.19238" width="34.1243" height="41.4189" fill="#FDC53C"/>
<path d="M20.4621 2.28731L21.4512 0C8.14767 1.13748 5.1927 11.3541 5.37815 16.3203C5.37815 21.7604 9.91157 26.129 12.1783 27.6332L23.4912 35.7316C27.052 38.1549 27.7773 40.9862 27.6949 42.0989C27.7938 48.5776 22.667 51.6397 20.0911 52.361L19.473 54.7101C31.8368 52.0395 35.0102 40.945 35.0514 35.7316C35.0514 30.7366 31.3011 26.809 29.4259 25.4696L17.3093 16.9385C14.6379 15.2744 13.1941 13.9093 12.9201 12.9821C10.9914 6.45394 17.1444 3.13218 20.4621 2.28731Z" fill="#EA543B"/>
<circle cx="24.604" cy="11.9926" r="5.19282" fill="#EA543B"/>
<path d="M57.5577 19.9652C57.5577 19.768 57.5274 19.591 57.4667 19.4342C57.4111 19.2724 57.3049 19.1258 57.1481 18.9943C56.9914 18.8578 56.7714 18.7238 56.4882 18.5923C56.2051 18.4608 55.8384 18.3243 55.3884 18.1827C54.8878 18.0209 54.4125 17.8389 53.9624 17.6366C53.5175 17.4343 53.123 17.1992 52.7792 16.9312C52.4404 16.6581 52.1724 16.3421 51.9752 15.9831C51.783 15.6241 51.687 15.2069 51.687 14.7316C51.687 14.2714 51.7881 13.8542 51.9903 13.48C52.1926 13.1008 52.4758 12.7772 52.8399 12.5092C53.2039 12.2361 53.6338 12.0263 54.1293 11.8796C54.6299 11.733 55.1786 11.6597 55.7752 11.6597C56.5894 11.6597 57.2998 11.8063 57.9066 12.0996C58.5134 12.3929 58.9837 12.7949 59.3174 13.3056C59.6562 13.8163 59.8256 14.4003 59.8256 15.0577H57.5653C57.5653 14.7341 57.497 14.4509 57.3605 14.2082C57.229 13.9604 57.0268 13.7657 56.7537 13.6242C56.4857 13.4826 56.1469 13.4118 55.7373 13.4118C55.3429 13.4118 55.0142 13.4725 54.7513 13.5938C54.4883 13.7101 54.2911 13.8694 54.1596 14.0717C54.0282 14.2689 53.9624 14.4914 53.9624 14.7391C53.9624 14.9262 54.0079 15.0956 54.099 15.2473C54.195 15.399 54.3366 15.5406 54.5237 15.6721C54.7108 15.8036 54.9409 15.9275 55.214 16.0438C55.487 16.1601 55.8031 16.2738 56.1621 16.3851C56.7638 16.5671 57.2922 16.7719 57.7473 16.9995C58.2075 17.227 58.5918 17.4824 58.9002 17.7655C59.2087 18.0487 59.4413 18.3698 59.5981 18.7288C59.7548 19.0878 59.8332 19.4949 59.8332 19.95C59.8332 20.4304 59.7396 20.8602 59.5525 21.2394C59.3654 21.6187 59.0949 21.9398 58.741 22.2027C58.387 22.4657 57.9648 22.6654 57.4743 22.8019C56.9838 22.9385 56.4351 23.0067 55.8283 23.0067C55.2822 23.0067 54.7437 22.9359 54.2127 22.7944C53.6818 22.6477 53.1989 22.4278 52.764 22.1345C52.3342 21.8412 51.9903 21.467 51.7325 21.0119C51.4746 20.5568 51.3456 20.0183 51.3456 19.3963H53.6287C53.6287 19.7402 53.6818 20.0309 53.788 20.2686C53.8942 20.5062 54.0433 20.6984 54.2355 20.845C54.4327 20.9917 54.6653 21.0979 54.9333 21.1636C55.2064 21.2293 55.5047 21.2622 55.8283 21.2622C56.2228 21.2622 56.5464 21.2066 56.7992 21.0953C57.0571 20.9841 57.2467 20.8299 57.3681 20.6327C57.4945 20.4354 57.5577 20.2129 57.5577 19.9652ZM60.8951 18.835V18.6757C60.8951 18.074 60.981 17.5203 61.153 17.0146C61.3249 16.5039 61.5752 16.0615 61.9039 15.6873C62.2326 15.3131 62.6371 15.0223 63.1175 14.815C63.5979 14.6026 64.149 14.4964 64.771 14.4964C65.393 14.4964 65.9467 14.6026 66.4321 14.815C66.9175 15.0223 67.3246 15.3131 67.6533 15.6873C67.987 16.0615 68.2398 16.5039 68.4118 17.0146C68.5837 17.5203 68.6697 18.074 68.6697 18.6757V18.835C68.6697 19.4317 68.5837 19.9854 68.4118 20.4961C68.2398 21.0018 67.987 21.4442 67.6533 21.8235C67.3246 22.1977 66.9201 22.4884 66.4397 22.6958C65.9593 22.9031 65.4081 23.0067 64.7862 23.0067C64.1642 23.0067 63.6105 22.9031 63.1251 22.6958C62.6447 22.4884 62.2376 22.1977 61.9039 21.8235C61.5752 21.4442 61.3249 21.0018 61.153 20.4961C60.981 19.9854 60.8951 19.4317 60.8951 18.835ZM63.0795 18.6757V18.835C63.0795 19.1789 63.1099 19.5 63.1706 19.7983C63.2312 20.0966 63.3273 20.3596 63.4588 20.5871C63.5953 20.8096 63.7723 20.9841 63.9897 21.1105C64.2072 21.2369 64.4727 21.3001 64.7862 21.3001C65.0896 21.3001 65.35 21.2369 65.5674 21.1105C65.7848 20.9841 65.9593 20.8096 66.0908 20.5871C66.2222 20.3596 66.3183 20.0966 66.379 19.7983C66.4447 19.5 66.4776 19.1789 66.4776 18.835V18.6757C66.4776 18.342 66.4447 18.0285 66.379 17.7352C66.3183 17.4369 66.2197 17.1739 66.0832 16.9464C65.9517 16.7138 65.7773 16.5317 65.5598 16.4002C65.3424 16.2688 65.0794 16.203 64.771 16.203C64.4625 16.203 64.1996 16.2688 63.9822 16.4002C63.7698 16.5317 63.5953 16.7138 63.4588 16.9464C63.3273 17.1739 63.2312 17.4369 63.1706 17.7352C63.1099 18.0285 63.0795 18.342 63.0795 18.6757ZM72.1512 16.4002V22.855H69.9667V14.6481H72.0146L72.1512 16.4002ZM71.8326 18.4634H71.241C71.241 17.8566 71.3193 17.3104 71.4761 16.825C71.6328 16.3345 71.8528 15.9173 72.136 15.5735C72.4192 15.2246 72.7554 14.9591 73.1448 14.7771C73.5392 14.59 73.9791 14.4964 74.4646 14.4964C74.8489 14.4964 75.2003 14.552 75.5189 14.6633C75.8374 14.7745 76.1105 14.9515 76.338 15.1942C76.5706 15.437 76.7476 15.7581 76.869 16.1575C76.9954 16.557 77.0586 17.045 77.0586 17.6214V22.855H74.859V17.6138C74.859 17.2498 74.8084 16.9666 74.7073 16.7643C74.6061 16.5621 74.457 16.4205 74.2598 16.3396C74.0676 16.2536 73.83 16.2106 73.5468 16.2106C73.2535 16.2106 72.9981 16.2688 72.7807 16.3851C72.5683 16.5014 72.3913 16.6632 72.2498 16.8705C72.1132 17.0728 72.0096 17.3104 71.9388 17.5835C71.868 17.8566 71.8326 18.1498 71.8326 18.4634ZM80.8587 16.4002V22.855H78.6742V14.6481H80.7221L80.8587 16.4002ZM80.5401 18.4634H79.9485C79.9485 17.8566 80.0269 17.3104 80.1836 16.825C80.3404 16.3345 80.5603 15.9173 80.8435 15.5735C81.1267 15.2246 81.4629 14.9591 81.8523 14.7771C82.2467 14.59 82.6866 14.4964 83.1721 14.4964C83.5564 14.4964 83.9078 14.552 84.2264 14.6633C84.545 14.7745 84.818 14.9515 85.0456 15.1942C85.2782 15.437 85.4552 15.7581 85.5765 16.1575C85.7029 16.557 85.7661 17.045 85.7661 17.6214V22.855H83.5665V17.6138C83.5665 17.2498 83.5159 16.9666 83.4148 16.7643C83.3137 16.5621 83.1645 16.4205 82.9673 16.3396C82.7751 16.2536 82.5375 16.2106 82.2543 16.2106C81.961 16.2106 81.7057 16.2688 81.4882 16.3851C81.2758 16.5014 81.0989 16.6632 80.9573 16.8705C80.8208 17.0728 80.7171 17.3104 80.6463 17.5835C80.5755 17.8566 80.5401 18.1498 80.5401 18.4634ZM91.2045 23.0067C90.5674 23.0067 89.996 22.9056 89.4903 22.7033C88.9847 22.496 88.5549 22.2103 88.2009 21.8462C87.852 21.4822 87.584 21.0599 87.3969 20.5796C87.2098 20.0941 87.1163 19.5783 87.1163 19.0322V18.7288C87.1163 18.1069 87.2048 17.538 87.3817 17.0222C87.5587 16.5064 87.8115 16.0589 88.1402 15.6797C88.474 15.3004 88.8785 15.0097 89.3538 14.8074C89.8291 14.6001 90.3651 14.4964 90.9618 14.4964C91.5433 14.4964 92.0591 14.5925 92.5092 14.7847C92.9592 14.9768 93.3359 15.2499 93.6393 15.6038C93.9478 15.9578 94.1804 16.3825 94.3371 16.8781C94.4939 17.3686 94.5723 17.9147 94.5723 18.5164V19.4266H88.0492V17.9703H92.4257V17.8035C92.4257 17.5001 92.3701 17.2295 92.2589 16.9919C92.1527 16.7492 91.9909 16.557 91.7734 16.4154C91.556 16.2738 91.2779 16.203 90.9391 16.203C90.6508 16.203 90.4031 16.2662 90.1958 16.3927C89.9884 16.5191 89.819 16.6961 89.6876 16.9236C89.5611 17.1512 89.4651 17.4192 89.3993 17.7276C89.3387 18.031 89.3083 18.3648 89.3083 18.7288V19.0322C89.3083 19.3609 89.3538 19.6643 89.4448 19.9424C89.5409 20.2205 89.6749 20.4607 89.8468 20.663C90.0238 20.8653 90.2362 21.022 90.484 21.1333C90.7368 21.2445 91.0225 21.3001 91.3411 21.3001C91.7355 21.3001 92.1021 21.2243 92.4409 21.0726C92.7847 20.9158 93.0806 20.6807 93.3283 20.3672L94.3902 21.5201C94.2183 21.7679 93.9832 22.0055 93.6848 22.2331C93.3915 22.4606 93.0376 22.6477 92.6229 22.7944C92.2083 22.9359 91.7355 23.0067 91.2045 23.0067ZM97.9552 16.4002V22.855H95.7707V14.6481H97.8186L97.9552 16.4002ZM97.6366 18.4634H97.045C97.045 17.8566 97.1233 17.3104 97.2801 16.825C97.4369 16.3345 97.6568 15.9173 97.94 15.5735C98.2232 15.2246 98.5594 14.9591 98.9488 14.7771C99.3432 14.59 99.7831 14.4964 100.269 14.4964C100.653 14.4964 101.004 14.552 101.323 14.6633C101.641 14.7745 101.915 14.9515 102.142 15.1942C102.375 15.437 102.552 15.7581 102.673 16.1575C102.799 16.557 102.863 17.045 102.863 17.6214V22.855H100.663V17.6138C100.663 17.2498 100.612 16.9666 100.511 16.7643C100.41 16.5621 100.261 16.4205 100.064 16.3396C99.8716 16.2536 99.634 16.2106 99.3508 16.2106C99.0575 16.2106 98.8021 16.2688 98.5847 16.3851C98.3723 16.5014 98.1953 16.6632 98.0538 16.8705C97.9172 17.0728 97.8136 17.3104 97.7428 17.5835C97.672 17.8566 97.6366 18.1498 97.6366 18.4634ZM106.655 11.2046V22.855H104.471V11.2046H106.655ZM106.344 18.4634H105.745C105.75 17.892 105.826 17.3661 105.972 16.8857C106.119 16.4002 106.329 15.9805 106.602 15.6266C106.875 15.2676 107.201 14.9894 107.58 14.7922C107.965 14.595 108.39 14.4964 108.855 14.4964C109.259 14.4964 109.626 14.5546 109.955 14.6709C110.288 14.7821 110.574 14.9642 110.812 15.217C111.054 15.4648 111.241 15.7909 111.373 16.1955C111.504 16.6 111.57 17.0905 111.57 17.6669V22.855H109.371V17.6518C109.371 17.2877 109.317 17.002 109.211 16.7947C109.11 16.5823 108.961 16.4331 108.764 16.3472C108.572 16.2561 108.334 16.2106 108.051 16.2106C107.737 16.2106 107.469 16.2688 107.247 16.3851C107.029 16.5014 106.855 16.6632 106.723 16.8705C106.592 17.0728 106.496 17.3104 106.435 17.5835C106.374 17.8566 106.344 18.1498 106.344 18.4634ZM112.882 18.835V18.6757C112.882 18.074 112.968 17.5203 113.14 17.0146C113.312 16.5039 113.562 16.0615 113.891 15.6873C114.22 15.3131 114.624 15.0223 115.105 14.815C115.585 14.6026 116.136 14.4964 116.758 14.4964C117.38 14.4964 117.934 14.6026 118.419 14.815C118.905 15.0223 119.312 15.3131 119.641 15.6873C119.974 16.0615 120.227 16.5039 120.399 17.0146C120.571 17.5203 120.657 18.074 120.657 18.6757V18.835C120.657 19.4317 120.571 19.9854 120.399 20.4961C120.227 21.0018 119.974 21.4442 119.641 21.8235C119.312 22.1977 118.907 22.4884 118.427 22.6958C117.947 22.9031 117.395 23.0067 116.773 23.0067C116.151 23.0067 115.598 22.9031 115.112 22.6958C114.632 22.4884 114.225 22.1977 113.891 21.8235C113.562 21.4442 113.312 21.0018 113.14 20.4961C112.968 19.9854 112.882 19.4317 112.882 18.835ZM115.067 18.6757V18.835C115.067 19.1789 115.097 19.5 115.158 19.7983C115.219 20.0966 115.315 20.3596 115.446 20.5871C115.583 20.8096 115.76 20.9841 115.977 21.1105C116.194 21.2369 116.46 21.3001 116.773 21.3001C117.077 21.3001 117.337 21.2369 117.555 21.1105C117.772 20.9841 117.947 20.8096 118.078 20.5871C118.21 20.3596 118.306 20.0966 118.366 19.7983C118.432 19.5 118.465 19.1789 118.465 18.835V18.6757C118.465 18.342 118.432 18.0285 118.366 17.7352C118.306 17.4369 118.207 17.1739 118.07 16.9464C117.939 16.7138 117.765 16.5317 117.547 16.4002C117.33 16.2688 117.067 16.203 116.758 16.203C116.45 16.203 116.187 16.2688 115.969 16.4002C115.757 16.5317 115.583 16.7138 115.446 16.9464C115.315 17.1739 115.219 17.4369 115.158 17.7352C115.097 18.0285 115.067 18.342 115.067 18.6757ZM124.783 22.855H122.583V13.92C122.583 13.298 122.705 12.7746 122.948 12.3499C123.195 11.9201 123.542 11.5964 123.987 11.379C124.437 11.1565 124.97 11.0453 125.587 11.0453C125.789 11.0453 125.984 11.0604 126.171 11.0908C126.358 11.1161 126.54 11.1489 126.717 11.1894L126.695 12.8353C126.598 12.81 126.497 12.7923 126.391 12.7822C126.285 12.7721 126.161 12.7671 126.019 12.7671C125.757 12.7671 125.532 12.8126 125.344 12.9036C125.162 12.9895 125.023 13.1185 124.927 13.2904C124.831 13.4623 124.783 13.6722 124.783 13.92V22.855ZM126.421 14.6481V16.1955H121.362V14.6481H126.421ZM135.865 21.0043V17.3484C135.865 17.0854 135.822 16.8604 135.736 16.6733C135.65 16.4812 135.516 16.332 135.334 16.2258C135.157 16.1196 134.927 16.0665 134.644 16.0665C134.401 16.0665 134.191 16.1095 134.014 16.1955C133.837 16.2764 133.701 16.3952 133.604 16.5519C133.508 16.7036 133.46 16.8832 133.46 17.0905H131.276C131.276 16.7416 131.357 16.4104 131.519 16.0968C131.68 15.7833 131.916 15.5078 132.224 15.2701C132.532 15.0274 132.899 14.8377 133.324 14.7012C133.754 14.5647 134.234 14.4964 134.765 14.4964C135.402 14.4964 135.968 14.6026 136.464 14.815C136.96 15.0274 137.349 15.3459 137.632 15.7707C137.92 16.1955 138.064 16.7264 138.064 17.3635V20.8754C138.064 21.3254 138.092 21.6945 138.148 21.9828C138.203 22.2659 138.284 22.5137 138.391 22.7261V22.855H136.183C136.077 22.6325 135.996 22.3544 135.941 22.0207C135.89 21.6819 135.865 21.3431 135.865 21.0043ZM136.153 17.8566L136.168 19.0929H134.947C134.659 19.0929 134.408 19.1258 134.196 19.1915C133.984 19.2572 133.809 19.3508 133.673 19.4722C133.536 19.5885 133.435 19.725 133.369 19.8817C133.309 20.0385 133.278 20.2104 133.278 20.3975C133.278 20.5846 133.321 20.754 133.407 20.9057C133.493 21.0524 133.617 21.1687 133.779 21.2546C133.941 21.3355 134.13 21.376 134.348 21.376C134.676 21.376 134.962 21.3102 135.205 21.1788C135.448 21.0473 135.635 20.8855 135.766 20.6933C135.903 20.5012 135.973 20.3191 135.979 20.1472L136.555 21.0726C136.474 21.2799 136.363 21.4948 136.221 21.7173C136.085 21.9398 135.91 22.1496 135.698 22.3468C135.485 22.539 135.23 22.6983 134.932 22.8247C134.633 22.9461 134.279 23.0067 133.87 23.0067C133.349 23.0067 132.876 22.9031 132.452 22.6958C132.032 22.4834 131.698 22.1926 131.45 21.8235C131.208 21.4493 131.086 21.0245 131.086 20.5492C131.086 20.1194 131.167 19.7376 131.329 19.4039C131.491 19.0702 131.728 18.7895 132.042 18.562C132.36 18.3294 132.757 18.1549 133.233 18.0386C133.708 17.9172 134.259 17.8566 134.886 17.8566H136.153ZM141.933 16.3472V22.855H139.741V14.6481H141.796L141.933 16.3472ZM141.629 18.4634H141.023C141.023 17.892 141.091 17.3661 141.227 16.8857C141.369 16.4002 141.574 15.9805 141.842 15.6266C142.115 15.2676 142.451 14.9894 142.85 14.7922C143.25 14.595 143.713 14.4964 144.239 14.4964C144.603 14.4964 144.936 14.552 145.24 14.6633C145.543 14.7695 145.804 14.9389 146.021 15.1715C146.243 15.399 146.415 15.6974 146.537 16.0665C146.658 16.4306 146.719 16.868 146.719 17.3787V22.855H144.534V17.6214C144.534 17.2472 144.484 16.959 144.383 16.7567C144.282 16.5545 144.137 16.4129 143.95 16.332C143.768 16.2511 143.548 16.2106 143.29 16.2106C143.007 16.2106 142.759 16.2688 142.547 16.3851C142.34 16.5014 142.168 16.6632 142.031 16.8705C141.895 17.0728 141.794 17.3104 141.728 17.5835C141.662 17.8566 141.629 18.1498 141.629 18.4634ZM146.514 18.2131L145.733 18.3117C145.733 17.7757 145.799 17.2776 145.93 16.8174C146.067 16.3573 146.266 15.9527 146.529 15.6038C146.797 15.2549 147.128 14.9844 147.523 14.7922C147.917 14.595 148.372 14.4964 148.888 14.4964C149.283 14.4964 149.642 14.5546 149.965 14.6709C150.289 14.7821 150.564 14.9616 150.792 15.2094C151.025 15.4521 151.202 15.7707 151.323 16.1651C151.449 16.5595 151.513 17.0424 151.513 17.6138V22.855H149.32V17.6138C149.32 17.2346 149.27 16.9464 149.169 16.7492C149.073 16.5469 148.931 16.4078 148.744 16.332C148.562 16.2511 148.345 16.2106 148.092 16.2106C147.829 16.2106 147.599 16.2637 147.401 16.3699C147.204 16.471 147.04 16.6126 146.908 16.7947C146.777 16.9767 146.678 17.1891 146.613 17.4318C146.547 17.6695 146.514 17.9299 146.514 18.2131ZM161.509 18.9185H158.695V17.1436H161.509C161.944 17.1436 162.298 17.0728 162.571 16.9312C162.844 16.7846 163.044 16.5823 163.171 16.3244C163.297 16.0665 163.36 15.7758 163.36 15.4521C163.36 15.1234 163.297 14.8175 163.171 14.5343C163.044 14.2512 162.844 14.0236 162.571 13.8517C162.298 13.6798 161.944 13.5938 161.509 13.5938H159.484V22.855H157.209V11.8114H161.509C162.374 11.8114 163.115 11.9681 163.732 12.2816C164.354 12.5901 164.829 13.0174 165.158 13.5635C165.487 14.1096 165.651 14.7341 165.651 15.437C165.651 16.1499 165.487 16.7669 165.158 17.2877C164.829 17.8085 164.354 18.2105 163.732 18.4937C163.115 18.7769 162.374 18.9185 161.509 18.9185ZM171.423 21.0043V17.3484C171.423 17.0854 171.38 16.8604 171.294 16.6733C171.208 16.4812 171.074 16.332 170.892 16.2258C170.715 16.1196 170.485 16.0665 170.202 16.0665C169.959 16.0665 169.749 16.1095 169.572 16.1955C169.395 16.2764 169.259 16.3952 169.163 16.5519C169.067 16.7036 169.019 16.8832 169.019 17.0905H166.834C166.834 16.7416 166.915 16.4104 167.077 16.0968C167.239 15.7833 167.474 15.5078 167.782 15.2701C168.091 15.0274 168.457 14.8377 168.882 14.7012C169.312 14.5647 169.792 14.4964 170.323 14.4964C170.96 14.4964 171.527 14.6026 172.022 14.815C172.518 15.0274 172.907 15.3459 173.19 15.7707C173.479 16.1955 173.623 16.7264 173.623 17.3635V20.8754C173.623 21.3254 173.65 21.6945 173.706 21.9828C173.762 22.2659 173.843 22.5137 173.949 22.7261V22.855H171.742C171.635 22.6325 171.554 22.3544 171.499 22.0207C171.448 21.6819 171.423 21.3431 171.423 21.0043ZM171.711 17.8566L171.726 19.0929H170.505C170.217 19.0929 169.967 19.1258 169.754 19.1915C169.542 19.2572 169.367 19.3508 169.231 19.4722C169.094 19.5885 168.993 19.725 168.928 19.8817C168.867 20.0385 168.837 20.2104 168.837 20.3975C168.837 20.5846 168.88 20.754 168.965 20.9057C169.051 21.0524 169.175 21.1687 169.337 21.2546C169.499 21.3355 169.689 21.376 169.906 21.376C170.235 21.376 170.52 21.3102 170.763 21.1788C171.006 21.0473 171.193 20.8855 171.324 20.6933C171.461 20.5012 171.532 20.3191 171.537 20.1472L172.113 21.0726C172.032 21.2799 171.921 21.4948 171.779 21.7173C171.643 21.9398 171.469 22.1496 171.256 22.3468C171.044 22.539 170.788 22.6983 170.49 22.8247C170.192 22.9461 169.838 23.0067 169.428 23.0067C168.907 23.0067 168.435 22.9031 168.01 22.6958C167.59 22.4834 167.256 22.1926 167.009 21.8235C166.766 21.4493 166.644 21.0245 166.644 20.5492C166.644 20.1194 166.725 19.7376 166.887 19.4039C167.049 19.0702 167.287 18.7895 167.6 18.562C167.919 18.3294 168.316 18.1549 168.791 18.0386C169.266 17.9172 169.818 17.8566 170.445 17.8566H171.711ZM177.491 16.4382V22.855H175.306V14.6481H177.362L177.491 16.4382ZM179.964 14.595L179.926 16.6202C179.82 16.605 179.691 16.5924 179.539 16.5823C179.392 16.5671 179.258 16.5595 179.137 16.5595C178.828 16.5595 178.56 16.6 178.333 16.6809C178.11 16.7567 177.923 16.8705 177.772 17.0222C177.625 17.1739 177.514 17.3585 177.438 17.5759C177.367 17.7934 177.327 18.0411 177.317 18.3192L176.877 18.1827C176.877 17.6518 176.93 17.1638 177.036 16.7188C177.142 16.2688 177.296 15.8769 177.499 15.5431C177.706 15.2094 177.959 14.9515 178.257 14.7695C178.555 14.5874 178.897 14.4964 179.281 14.4964C179.402 14.4964 179.526 14.5065 179.653 14.5268C179.779 14.5419 179.883 14.5647 179.964 14.595ZM183.18 11.197V22.855H180.995V11.197H183.18ZM188.353 14.6481L184.788 18.7137L182.876 20.6478L182.08 19.0702L183.597 17.1436L185.728 14.6481H188.353ZM186.085 22.855L183.658 19.0626L185.167 17.7428L188.603 22.855H186.085Z" fill="#F8463A"/>
<path d="M54.9433 42.972C54.2239 42.972 53.5653 42.881 52.9673 42.699C52.3693 42.5084 51.8623 42.244 51.4463 41.906L51.8753 40.84C52.3086 41.1694 52.7723 41.4164 53.2663 41.581C53.7603 41.7457 54.3193 41.828 54.9433 41.828C55.6799 41.828 56.2216 41.698 56.5683 41.438C56.9236 41.1694 57.1013 40.8227 57.1013 40.398C57.1013 40.0514 56.9756 39.7784 56.7243 39.579C56.4729 39.371 56.0526 39.2064 55.4633 39.085L54.0723 38.799C53.2489 38.6257 52.6336 38.3397 52.2263 37.941C51.8276 37.5424 51.6283 37.005 51.6283 36.329C51.6283 35.783 51.7713 35.302 52.0573 34.886C52.3519 34.47 52.7593 34.1494 53.2793 33.924C53.7993 33.69 54.3973 33.573 55.0733 33.573C55.6973 33.573 56.2736 33.6684 56.8023 33.859C57.3396 34.041 57.7946 34.3097 58.1673 34.665L57.7253 35.692C56.9886 35.042 56.1003 34.717 55.0603 34.717C54.4189 34.717 53.9076 34.86 53.5263 35.146C53.1536 35.432 52.9673 35.8134 52.9673 36.29C52.9673 36.654 53.0843 36.9444 53.3183 37.161C53.5523 37.3777 53.9423 37.5424 54.4883 37.655L55.8663 37.941C56.7329 38.123 57.3786 38.4047 57.8033 38.786C58.2279 39.1587 58.4403 39.6657 58.4403 40.307C58.4403 40.8444 58.2973 41.3124 58.0113 41.711C57.7253 42.1097 57.3223 42.4217 56.8023 42.647C56.2823 42.8637 55.6626 42.972 54.9433 42.972ZM62.5882 42.972C61.9468 42.972 61.3922 42.8377 60.9242 42.569C60.4562 42.3004 60.0922 41.9234 59.8322 41.438C59.5808 40.944 59.4552 40.359 59.4552 39.683C59.4552 39.007 59.5808 38.4264 59.8322 37.941C60.0922 37.447 60.4562 37.0657 60.9242 36.797C61.3922 36.5284 61.9468 36.394 62.5882 36.394C63.2122 36.394 63.7582 36.5284 64.2262 36.797C64.6942 37.0657 65.0582 37.447 65.3182 37.941C65.5782 38.4264 65.7082 39.007 65.7082 39.683C65.7082 40.359 65.5782 40.944 65.3182 41.438C65.0582 41.9234 64.6942 42.3004 64.2262 42.569C63.7582 42.8377 63.2122 42.972 62.5882 42.972ZM62.5882 41.958C63.1255 41.958 63.5588 41.763 63.8882 41.373C64.2175 40.983 64.3822 40.4197 64.3822 39.683C64.3822 38.9464 64.2175 38.3874 63.8882 38.006C63.5588 37.616 63.1255 37.421 62.5882 37.421C62.0422 37.421 61.6045 37.616 61.2752 38.006C60.9458 38.3874 60.7812 38.9464 60.7812 39.683C60.7812 40.4197 60.9458 40.983 61.2752 41.373C61.6045 41.763 62.0422 41.958 62.5882 41.958ZM67.1828 42.855V36.511H68.4568V37.564C68.6734 37.1827 68.9681 36.8924 69.3408 36.693C69.7221 36.4937 70.1468 36.394 70.6148 36.394C72.1141 36.394 72.8638 37.2434 72.8638 38.942V42.855H71.5508V39.02C71.5508 38.474 71.4424 38.0754 71.2258 37.824C71.0178 37.5727 70.6884 37.447 70.2378 37.447C69.7091 37.447 69.2844 37.616 68.9638 37.954C68.6518 38.2834 68.4958 38.721 68.4958 39.267V42.855H67.1828ZM74.673 42.855V36.511H75.947V37.564C76.1637 37.1827 76.4583 36.8924 76.831 36.693C77.2123 36.4937 77.637 36.394 78.105 36.394C79.6043 36.394 80.354 37.2434 80.354 38.942V42.855H79.041V39.02C79.041 38.474 78.9327 38.0754 78.716 37.824C78.508 37.5727 78.1787 37.447 77.728 37.447C77.1993 37.447 76.7747 37.616 76.454 37.954C76.142 38.2834 75.986 38.721 75.986 39.267V42.855H74.673ZM85.1402 42.972C84.1002 42.972 83.2812 42.6817 82.6832 42.101C82.0852 41.5117 81.7862 40.71 81.7862 39.696C81.7862 39.046 81.9162 38.474 82.1762 37.98C82.4449 37.4774 82.8132 37.0874 83.2812 36.81C83.7492 36.5327 84.2866 36.394 84.8932 36.394C85.7686 36.394 86.4576 36.6757 86.9602 37.239C87.4629 37.7937 87.7142 38.5607 87.7142 39.54V39.982H83.0602C83.1556 41.2994 83.8532 41.958 85.1532 41.958C85.5172 41.958 85.8726 41.9017 86.2192 41.789C86.5746 41.6764 86.9082 41.49 87.2202 41.23L87.6102 42.14C87.3242 42.4 86.9559 42.6037 86.5052 42.751C86.0546 42.8984 85.5996 42.972 85.1402 42.972ZM84.9452 37.317C84.3992 37.317 83.9659 37.486 83.6452 37.824C83.3246 38.162 83.1296 38.6127 83.0602 39.176H86.6092C86.5832 38.5867 86.4272 38.1317 86.1412 37.811C85.8552 37.4817 85.4566 37.317 84.9452 37.317ZM89.1457 42.855V36.511H90.4197V37.564C90.6363 37.1827 90.931 36.8924 91.3037 36.693C91.685 36.4937 92.1097 36.394 92.5777 36.394C94.077 36.394 94.8267 37.2434 94.8267 38.942V42.855H93.5137V39.02C93.5137 38.474 93.4053 38.0754 93.1887 37.824C92.9807 37.5727 92.6513 37.447 92.2007 37.447C91.672 37.447 91.2473 37.616 90.9267 37.954C90.6147 38.2834 90.4587 38.721 90.4587 39.267V42.855H89.1457ZM96.6359 42.855V33.69H97.9489V37.499C98.1656 37.135 98.4559 36.862 98.8199 36.68C99.1926 36.4894 99.6086 36.394 100.068 36.394C101.567 36.394 102.317 37.2434 102.317 38.942V42.855H101.004V39.02C101.004 38.474 100.896 38.0754 100.679 37.824C100.471 37.5727 100.142 37.447 99.6909 37.447C99.1622 37.447 98.7376 37.616 98.4169 37.954C98.1049 38.2834 97.9489 38.721 97.9489 39.267V42.855H96.6359ZM106.882 42.972C106.241 42.972 105.686 42.8377 105.218 42.569C104.75 42.3004 104.386 41.9234 104.126 41.438C103.875 40.944 103.749 40.359 103.749 39.683C103.749 39.007 103.875 38.4264 104.126 37.941C104.386 37.447 104.75 37.0657 105.218 36.797C105.686 36.5284 106.241 36.394 106.882 36.394C107.506 36.394 108.052 36.5284 108.52 36.797C108.988 37.0657 109.352 37.447 109.612 37.941C109.872 38.4264 110.002 39.007 110.002 39.683C110.002 40.359 109.872 40.944 109.612 41.438C109.352 41.9234 108.988 42.3004 108.52 42.569C108.052 42.8377 107.506 42.972 106.882 42.972ZM106.882 41.958C107.419 41.958 107.853 41.763 108.182 41.373C108.511 40.983 108.676 40.4197 108.676 39.683C108.676 38.9464 108.511 38.3874 108.182 38.006C107.853 37.616 107.419 37.421 106.882 37.421C106.336 37.421 105.898 37.616 105.569 38.006C105.24 38.3874 105.075 38.9464 105.075 39.683C105.075 40.4197 105.24 40.983 105.569 41.373C105.898 41.763 106.336 41.958 106.882 41.958ZM111.79 42.855V37.525H110.555V36.511H111.79V36.394C111.79 35.5187 112.011 34.86 112.453 34.418C112.904 33.976 113.593 33.729 114.52 33.677L115.092 33.638L115.183 34.626L114.585 34.665C114.057 34.6997 113.675 34.8427 113.441 35.094C113.216 35.3454 113.103 35.718 113.103 36.212V36.511H114.884V37.525H113.103V42.855H111.79ZM115.793 39.917V38.851H119.537V39.917H115.793ZM123.641 42.972C122.107 42.972 121.34 42.1184 121.34 40.411V36.511H122.653V40.424C122.653 40.9354 122.757 41.3124 122.965 41.555C123.173 41.7977 123.502 41.919 123.953 41.919C124.447 41.919 124.846 41.7544 125.149 41.425C125.461 41.0957 125.617 40.6537 125.617 40.099V36.511H126.93V42.855H125.656V41.841C125.448 42.2137 125.171 42.4954 124.824 42.686C124.477 42.8767 124.083 42.972 123.641 42.972ZM128.78 42.855V36.511H130.054V37.564C130.271 37.1827 130.566 36.8924 130.938 36.693C131.32 36.4937 131.744 36.394 132.212 36.394C133.712 36.394 134.461 37.2434 134.461 38.942V42.855H133.148V39.02C133.148 38.474 133.04 38.0754 132.823 37.824C132.615 37.5727 132.286 37.447 131.835 37.447C131.307 37.447 130.882 37.616 130.561 37.954C130.249 38.2834 130.093 38.721 130.093 39.267V42.855H128.78ZM138.689 42.972C138.134 42.972 137.644 42.842 137.22 42.582C136.804 42.3134 136.479 41.932 136.245 41.438C136.011 40.944 135.894 40.359 135.894 39.683C135.894 39.007 136.011 38.4264 136.245 37.941C136.479 37.447 136.804 37.0657 137.22 36.797C137.636 36.5284 138.125 36.394 138.689 36.394C139.165 36.394 139.59 36.498 139.963 36.706C140.335 36.914 140.613 37.1957 140.795 37.551V33.69H142.108V42.855H140.821V41.75C140.639 42.1314 140.357 42.4304 139.976 42.647C139.603 42.8637 139.174 42.972 138.689 42.972ZM139.027 41.958C139.564 41.958 139.997 41.763 140.327 41.373C140.656 40.983 140.821 40.4197 140.821 39.683C140.821 38.9464 140.656 38.3874 140.327 38.006C139.997 37.616 139.564 37.421 139.027 37.421C138.481 37.421 138.043 37.616 137.714 38.006C137.384 38.3874 137.22 38.9464 137.22 39.683C137.22 40.4197 137.384 40.983 137.714 41.373C138.043 41.763 138.481 41.958 139.027 41.958ZM147.509 42.855V33.69H151.305C152.293 33.69 153.056 33.937 153.593 34.431C154.131 34.9164 154.399 35.601 154.399 36.485C154.399 37.3777 154.131 38.071 153.593 38.565C153.056 39.0504 152.293 39.293 151.305 39.293H148.861V42.855H147.509ZM148.861 38.214H151.11C152.428 38.214 153.086 37.6377 153.086 36.485C153.086 35.341 152.428 34.769 151.11 34.769H148.861V38.214ZM156.084 42.855V37.525H154.849V36.511H156.084V36.394C156.084 35.5187 156.305 34.86 156.747 34.418C157.198 33.976 157.887 33.729 158.814 33.677L159.386 33.638L159.477 34.626L158.879 34.665C158.351 34.6997 157.969 34.8427 157.735 35.094C157.51 35.3454 157.397 35.718 157.397 36.212V36.511H159.178V37.525H157.397V42.855H156.084ZM162.285 42.972C161.592 42.972 161.072 42.777 160.725 42.387C160.387 41.997 160.218 41.425 160.218 40.671V33.69H161.531V40.593C161.531 41.451 161.882 41.88 162.584 41.88C162.688 41.88 162.784 41.8757 162.87 41.867C162.966 41.8584 163.061 41.841 163.156 41.815L163.13 42.868C162.836 42.9374 162.554 42.972 162.285 42.972ZM167.127 42.972C166.087 42.972 165.268 42.6817 164.67 42.101C164.072 41.5117 163.773 40.71 163.773 39.696C163.773 39.046 163.903 38.474 164.163 37.98C164.431 37.4774 164.8 37.0874 165.268 36.81C165.736 36.5327 166.273 36.394 166.88 36.394C167.755 36.394 168.444 36.6757 168.947 37.239C169.449 37.7937 169.701 38.5607 169.701 39.54V39.982H165.047C165.142 41.2994 165.84 41.958 167.14 41.958C167.504 41.958 167.859 41.9017 168.206 41.789C168.561 41.6764 168.895 41.49 169.207 41.23L169.597 42.14C169.311 42.4 168.942 42.6037 168.492 42.751C168.041 42.8984 167.586 42.972 167.127 42.972ZM166.932 37.317C166.386 37.317 165.952 37.486 165.632 37.824C165.311 38.162 165.116 38.6127 165.047 39.176H168.596C168.57 38.5867 168.414 38.1317 168.128 37.811C167.842 37.4817 167.443 37.317 166.932 37.317ZM174.005 45.312C173.433 45.312 172.9 45.2427 172.406 45.104C171.912 44.974 171.474 44.766 171.093 44.48L171.496 43.544C171.877 43.804 172.267 43.9947 172.666 44.116C173.065 44.2374 173.481 44.298 173.914 44.298C175.127 44.298 175.734 43.6914 175.734 42.478V41.477C175.552 41.8584 175.266 42.1574 174.876 42.374C174.495 42.5907 174.066 42.699 173.589 42.699C173.017 42.699 172.519 42.569 172.094 42.309C171.669 42.0404 171.34 41.672 171.106 41.204C170.872 40.7274 170.755 40.1727 170.755 39.54C170.755 38.916 170.872 38.37 171.106 37.902C171.34 37.4254 171.669 37.057 172.094 36.797C172.519 36.5284 173.017 36.394 173.589 36.394C174.074 36.394 174.508 36.5024 174.889 36.719C175.27 36.9357 175.552 37.2347 175.734 37.616V36.511H177.008V42.322C177.008 43.3187 176.752 44.064 176.241 44.558C175.73 45.0607 174.984 45.312 174.005 45.312ZM173.901 41.672C174.456 41.672 174.898 41.4814 175.227 41.1C175.556 40.7187 175.721 40.1987 175.721 39.54C175.721 38.8814 175.556 38.3657 175.227 37.993C174.898 37.6117 174.456 37.421 173.901 37.421C173.346 37.421 172.904 37.6117 172.575 37.993C172.246 38.3657 172.081 38.8814 172.081 39.54C172.081 40.1987 172.246 40.7187 172.575 41.1C172.904 41.4814 173.346 41.672 173.901 41.672ZM181.828 42.972C180.788 42.972 179.969 42.6817 179.371 42.101C178.773 41.5117 178.474 40.71 178.474 39.696C178.474 39.046 178.604 38.474 178.864 37.98C179.132 37.4774 179.501 37.0874 179.969 36.81C180.437 36.5327 180.974 36.394 181.581 36.394C182.456 36.394 183.145 36.6757 183.648 37.239C184.15 37.7937 184.402 38.5607 184.402 39.54V39.982H179.748C179.843 41.2994 180.541 41.958 181.841 41.958C182.205 41.958 182.56 41.9017 182.907 41.789C183.262 41.6764 183.596 41.49 183.908 41.23L184.298 42.14C184.012 42.4 183.643 42.6037 183.193 42.751C182.742 42.8984 182.287 42.972 181.828 42.972ZM181.633 37.317C181.087 37.317 180.653 37.486 180.333 37.824C180.012 38.162 179.817 38.6127 179.748 39.176H183.297C183.271 38.5867 183.115 38.1317 182.829 37.811C182.543 37.4817 182.144 37.317 181.633 37.317ZM185.833 42.855V33.69H187.146V37.499C187.363 37.135 187.653 36.862 188.017 36.68C188.39 36.4894 188.806 36.394 189.265 36.394C190.764 36.394 191.514 37.2434 191.514 38.942V42.855H190.201V39.02C190.201 38.474 190.093 38.0754 189.876 37.824C189.668 37.5727 189.339 37.447 188.888 37.447C188.359 37.447 187.935 37.616 187.614 37.954C187.302 38.2834 187.146 38.721 187.146 39.267V42.855H185.833ZM196.3 42.972C195.26 42.972 194.441 42.6817 193.843 42.101C193.245 41.5117 192.946 40.71 192.946 39.696C192.946 39.046 193.076 38.474 193.336 37.98C193.605 37.4774 193.973 37.0874 194.441 36.81C194.909 36.5327 195.447 36.394 196.053 36.394C196.929 36.394 197.618 36.6757 198.12 37.239C198.623 37.7937 198.874 38.5607 198.874 39.54V39.982H194.22C194.316 41.2994 195.013 41.958 196.313 41.958C196.677 41.958 197.033 41.9017 197.379 41.789C197.735 41.6764 198.068 41.49 198.38 41.23L198.77 42.14C198.484 42.4 198.116 42.6037 197.665 42.751C197.215 42.8984 196.76 42.972 196.3 42.972ZM196.105 37.317C195.559 37.317 195.126 37.486 194.805 37.824C194.485 38.162 194.29 38.6127 194.22 39.176H197.769C197.743 38.5867 197.587 38.1317 197.301 37.811C197.015 37.4817 196.617 37.317 196.105 37.317ZM200.189 35.042V33.677H201.723V35.042H200.189ZM200.306 42.855V36.511H201.619V42.855H200.306ZM203.493 42.855V36.511H204.767V37.538C204.958 37.174 205.222 36.8924 205.56 36.693C205.898 36.4937 206.292 36.394 206.743 36.394C207.714 36.394 208.342 36.8187 208.628 37.668C208.827 37.2694 209.113 36.9574 209.486 36.732C209.859 36.5067 210.283 36.394 210.76 36.394C212.181 36.394 212.892 37.2434 212.892 38.942V42.855H211.579V39.007C211.579 38.4697 211.484 38.0754 211.293 37.824C211.111 37.5727 210.808 37.447 210.383 37.447C209.906 37.447 209.529 37.616 209.252 37.954C208.975 38.2834 208.836 38.734 208.836 39.306V42.855H207.523V39.007C207.523 38.4697 207.432 38.0754 207.25 37.824C207.068 37.5727 206.765 37.447 206.34 37.447C205.863 37.447 205.486 37.616 205.209 37.954C204.94 38.2834 204.806 38.734 204.806 39.306V42.855H203.493Z" fill="#457E5D"/>
</svg>
